G04 Layer: BottomSolderMaskLayer*
G04 EasyEDA v6.4.23, 2021-09-03T17:21:03+02:00*
G04 aeee774bf32f4d08b0fc01e64f25dcb3,11806c6667b54f078b534f3636c84428,10*
G04 Gerber Generator version 0.2*
G04 Scale: 100 percent, Rotated: No, Reflected: No *
G04 Dimensions in millimeters *
G04 leading zeros omitted , absolute positions ,4 integer and 5 decimal *
%FSLAX45Y45*%
%MOMM*%

%ADD31C,2.7432*%
%ADD32C,1.7272*%
%ADD35C,1.9016*%
%ADD37C,1.7032*%
%ADD41C,1.3970*%
%ADD42C,1.5032*%
%ADD43C,1.7526*%

%LPD*%
D31*
X6705600Y7899400D02*
G01*
X6858000Y7899400D01*
X6705600Y8407400D02*
G01*
X6858000Y8407400D01*
X6705600Y8915400D02*
G01*
X6858000Y8915400D01*
X4038600Y9791700D02*
G01*
X4038600Y9639300D01*
X3530600Y9639300D02*
G01*
X3530600Y9791700D01*
X1930400Y9791700D02*
G01*
X1930400Y9639300D01*
X1422400Y9639300D02*
G01*
X1422400Y9791700D01*
X2095500Y11899900D02*
G01*
X2095500Y12052300D01*
X1587500Y11899900D02*
G01*
X1587500Y12052300D01*
X1079500Y11899900D02*
G01*
X1079500Y12052300D01*
X1079500Y11163300D02*
G01*
X1079500Y11010900D01*
X1587500Y11163300D02*
G01*
X1587500Y11010900D01*
X2095500Y11163300D02*
G01*
X2095500Y11010900D01*
D32*
G01*
X7391400Y8343900D03*
G01*
X7645400Y8343900D03*
G01*
X7620000Y7772400D03*
G01*
X7366000Y7772400D03*
G01*
X10282097Y12369800D03*
G01*
X10282097Y12623800D03*
G01*
X10566400Y12369800D03*
G01*
X10566400Y12623800D03*
G01*
X6596202Y12369800D03*
G01*
X6596202Y12623800D03*
G01*
X6311900Y12369800D03*
G01*
X6311900Y12623800D03*
G36*
X8807704Y7728204D02*
G01*
X8807704Y7918195D01*
X8997695Y7918195D01*
X8997695Y7728204D01*
G37*
D35*
G01*
X8902700Y8077200D03*
G01*
X8902700Y8331200D03*
G01*
X8902700Y8585200D03*
G01*
X8902700Y8839200D03*
G01*
X8902700Y9093200D03*
G01*
X8902700Y9347200D03*
G01*
X8902700Y9601200D03*
G01*
X8902700Y9855200D03*
G01*
X8902700Y10109200D03*
G01*
X8902700Y10363200D03*
G01*
X8902700Y10617200D03*
G01*
X8902700Y10871200D03*
G01*
X8902700Y11125200D03*
G01*
X8902700Y11379200D03*
G01*
X8902700Y11633200D03*
G01*
X8902700Y11887200D03*
G01*
X8902700Y12141200D03*
G01*
X8902700Y12395200D03*
G01*
X8902700Y12649200D03*
G36*
X7880604Y12554204D02*
G01*
X7880604Y12744195D01*
X8070595Y12744195D01*
X8070595Y12554204D01*
G37*
G01*
X7975600Y12395200D03*
G01*
X7975600Y12141200D03*
G01*
X7975600Y11887200D03*
G01*
X7975600Y11633200D03*
G01*
X7975600Y11379200D03*
G01*
X7975600Y11125200D03*
G01*
X7975600Y10871200D03*
G01*
X7975600Y10617200D03*
G01*
X7975600Y10363200D03*
G01*
X7975600Y10109200D03*
G01*
X7975600Y9855200D03*
G01*
X7975600Y9601200D03*
G01*
X7975600Y9347200D03*
G01*
X7975600Y9093200D03*
G01*
X7975600Y8839200D03*
G01*
X7975600Y8585200D03*
G01*
X7975600Y8331200D03*
G01*
X7975600Y8077200D03*
G01*
X7975600Y7823200D03*
G01*
X2295499Y9448800D03*
G01*
X3165500Y9448800D03*
G01*
X4467199Y9601200D03*
G01*
X5337200Y9601200D03*
D37*
G01*
X4094302Y10985500D03*
G01*
X3754297Y10985500D03*
G36*
X5162550Y7938515D02*
G01*
X5162550Y8078215D01*
X5302250Y8078215D01*
X5302250Y7938515D01*
G37*
D41*
G01*
X5486400Y8008340D03*
G01*
X5740400Y8008340D03*
G01*
X5994400Y8008340D03*
D32*
G01*
X2488006Y8445500D03*
D42*
G01*
X2287981Y9045498D03*
G01*
X2287981Y7845501D03*
G01*
X1068019Y9045498D03*
G01*
X1068019Y7845501D03*
D32*
G01*
X4469206Y8445500D03*
D42*
G01*
X4269181Y9045498D03*
G01*
X4269181Y7845501D03*
G01*
X3049193Y9045498D03*
G01*
X3049193Y7845501D03*
D43*
G01*
X10947400Y11264900D03*
G01*
X10947400Y11010900D03*
G01*
X10274300Y11303000D03*
G01*
X10274300Y11049000D03*
G01*
X9474200Y11303000D03*
G01*
X9474200Y11049000D03*
M02*
