G04 Layer: TopPasteMaskLayer*
G04 EasyEDA v6.4.23, 2021-09-03T17:21:03+02:00*
G04 aeee774bf32f4d08b0fc01e64f25dcb3,11806c6667b54f078b534f3636c84428,10*
G04 Gerber Generator version 0.2*
G04 Scale: 100 percent, Rotated: No, Reflected: No *
G04 Dimensions in millimeters *
G04 leading zeros omitted , absolute positions ,4 integer and 5 decimal *
%FSLAX45Y45*%
%MOMM*%

%ADD10C,0.0001*%

%LPD*%
G36*
X3693820Y11681510D02*
G01*
X3688791Y11676481D01*
X3688791Y11596522D01*
X3693820Y11591493D01*
X3716578Y11591493D01*
X3716578Y11628526D01*
X3749598Y11628526D01*
X3749598Y11591493D01*
X3773779Y11591493D01*
X3778808Y11596522D01*
X3778808Y11676481D01*
X3773779Y11681510D01*
G37*
G36*
X3693820Y11521490D02*
G01*
X3688791Y11516512D01*
X3688791Y11437518D01*
X3693820Y11432489D01*
X3773779Y11432489D01*
X3778808Y11437518D01*
X3778808Y11516512D01*
X3773779Y11521490D01*
X3749598Y11521490D01*
X3749598Y11483492D01*
X3716578Y11483492D01*
X3716578Y11521490D01*
G37*
G36*
X4452518Y10611408D02*
G01*
X4447489Y10606379D01*
X4447489Y10526420D01*
X4452518Y10521391D01*
X4532477Y10521391D01*
X4537506Y10526420D01*
X4537506Y10549178D01*
X4500524Y10549178D01*
X4500524Y10582198D01*
X4537506Y10582198D01*
X4537506Y10606379D01*
X4532477Y10611408D01*
G37*
G36*
X4612487Y10611408D02*
G01*
X4607509Y10606379D01*
X4607509Y10582198D01*
X4645507Y10582198D01*
X4645507Y10549178D01*
X4607509Y10549178D01*
X4607509Y10526420D01*
X4612487Y10521391D01*
X4691481Y10521391D01*
X4696510Y10526420D01*
X4696510Y10606379D01*
X4691481Y10611408D01*
G37*
G36*
X4598822Y11995708D02*
G01*
X4593793Y11990679D01*
X4593793Y11967921D01*
X4630775Y11967921D01*
X4630775Y11934901D01*
X4593793Y11934901D01*
X4593793Y11910720D01*
X4598822Y11905691D01*
X4678781Y11905691D01*
X4683810Y11910720D01*
X4683810Y11990679D01*
X4678781Y11995708D01*
G37*
G36*
X4439818Y11995708D02*
G01*
X4434789Y11990679D01*
X4434789Y11910720D01*
X4439818Y11905691D01*
X4518812Y11905691D01*
X4523790Y11910720D01*
X4523790Y11934901D01*
X4485792Y11934901D01*
X4485792Y11967921D01*
X4523790Y11967921D01*
X4523790Y11990679D01*
X4518812Y11995708D01*
G37*
G36*
X5243220Y12106706D02*
G01*
X5238191Y12101677D01*
X5238191Y12021718D01*
X5243220Y12016689D01*
X5323179Y12016689D01*
X5328208Y12021718D01*
X5328208Y12101677D01*
X5323179Y12106706D01*
X5300421Y12106706D01*
X5300421Y12069673D01*
X5267401Y12069673D01*
X5267401Y12106706D01*
G37*
G36*
X5243220Y12265710D02*
G01*
X5238191Y12260681D01*
X5238191Y12181687D01*
X5243220Y12176709D01*
X5267401Y12176709D01*
X5267401Y12214707D01*
X5300421Y12214707D01*
X5300421Y12176709D01*
X5323179Y12176709D01*
X5328208Y12181687D01*
X5328208Y12260681D01*
X5323179Y12265710D01*
G37*
G36*
X9243720Y10792510D02*
G01*
X9238691Y10787481D01*
X9238691Y10707522D01*
X9243720Y10702493D01*
X9266478Y10702493D01*
X9266478Y10739526D01*
X9299498Y10739526D01*
X9299498Y10702493D01*
X9323679Y10702493D01*
X9328708Y10707522D01*
X9328708Y10787481D01*
X9323679Y10792510D01*
G37*
G36*
X9243720Y10632490D02*
G01*
X9238691Y10627512D01*
X9238691Y10548518D01*
X9243720Y10543489D01*
X9323679Y10543489D01*
X9328708Y10548518D01*
X9328708Y10627512D01*
X9323679Y10632490D01*
X9299498Y10632490D01*
X9299498Y10594492D01*
X9266478Y10594492D01*
X9266478Y10632490D01*
G37*
G36*
X10301122Y10738408D02*
G01*
X10296093Y10733379D01*
X10296093Y10710621D01*
X10333075Y10710621D01*
X10333075Y10677601D01*
X10296093Y10677601D01*
X10296093Y10653420D01*
X10301122Y10648391D01*
X10381081Y10648391D01*
X10386110Y10653420D01*
X10386110Y10733379D01*
X10381081Y10738408D01*
G37*
G36*
X10142118Y10738408D02*
G01*
X10137089Y10733379D01*
X10137089Y10653420D01*
X10142118Y10648391D01*
X10221112Y10648391D01*
X10226090Y10653420D01*
X10226090Y10677601D01*
X10188092Y10677601D01*
X10188092Y10710621D01*
X10226090Y10710621D01*
X10226090Y10733379D01*
X10221112Y10738408D01*
G37*
G36*
X10986922Y10700308D02*
G01*
X10981893Y10695279D01*
X10981893Y10672521D01*
X11018875Y10672521D01*
X11018875Y10639501D01*
X10981893Y10639501D01*
X10981893Y10615320D01*
X10986922Y10610291D01*
X11066881Y10610291D01*
X11071910Y10615320D01*
X11071910Y10695279D01*
X11066881Y10700308D01*
G37*
G36*
X10827918Y10700308D02*
G01*
X10822889Y10695279D01*
X10822889Y10615320D01*
X10827918Y10610291D01*
X10906912Y10610291D01*
X10911890Y10615320D01*
X10911890Y10639501D01*
X10873892Y10639501D01*
X10873892Y10672521D01*
X10911890Y10672521D01*
X10911890Y10695279D01*
X10906912Y10700308D01*
G37*
G36*
X2257600Y10593900D02*
G01*
X2257600Y10437299D01*
X2139099Y10437299D01*
X2139099Y10593900D01*
G37*
G36*
X2517599Y10593900D02*
G01*
X2517599Y10437299D01*
X2636100Y10437299D01*
X2636100Y10593900D01*
G37*
G36*
X2898599Y10919899D02*
G01*
X2898599Y11076500D01*
X3017100Y11076500D01*
X3017100Y10919899D01*
G37*
G36*
X2638600Y10919899D02*
G01*
X2638600Y11076500D01*
X2520099Y11076500D01*
X2520099Y10919899D01*
G37*
G36*
X6486700Y11724200D02*
G01*
X6486700Y11567599D01*
X6368199Y11567599D01*
X6368199Y11724200D01*
G37*
G36*
X6746699Y11724200D02*
G01*
X6746699Y11567599D01*
X6865200Y11567599D01*
X6865200Y11724200D01*
G37*
G36*
X4308398Y11405631D02*
G01*
X4378401Y11405631D01*
X4378401Y11280632D01*
X4308398Y11280632D01*
G37*
G36*
X4213402Y11655577D02*
G01*
X4283405Y11655577D01*
X4283405Y11530558D01*
X4213402Y11530558D01*
G37*
G36*
X4403394Y11655577D02*
G01*
X4473397Y11655577D01*
X4473397Y11530558D01*
X4403394Y11530558D01*
G37*
G36*
X5210098Y10542031D02*
G01*
X5280101Y10542031D01*
X5280101Y10417032D01*
X5210098Y10417032D01*
G37*
G36*
X5115102Y10791977D02*
G01*
X5185105Y10791977D01*
X5185105Y10666958D01*
X5115102Y10666958D01*
G37*
G36*
X5305094Y10791977D02*
G01*
X5375097Y10791977D01*
X5375097Y10666958D01*
X5305094Y10666958D01*
G37*
M02*
