M48
METRIC,LZ,000.000
;FILE_FORMAT=3:3
;TYPE=PLATED
;Layer: Drill PTH
;EasyEDA v6.4.23, 2021-09-03T17:21:03+02:00
;aeee774bf32f4d08b0fc01e64f25dcb3,11806c6667b54f078b534f3636c84428,10
;Gerber Generator version 0.2
;Holesize 1 = 0.306 mm
T01C0.306
;Holesize 2 = 0.712 mm
T02C0.712
;Holesize 3 = 0.800 mm
T03C0.800
;Holesize 4 = 0.915 mm
T04C0.915
;Holesize 5 = 0.966 mm
T05C0.966
;Holesize 6 = 1.000 mm
T06C1.000
;Holesize 7 = 1.021 mm
T07C1.021
;Holesize 8 = 1.200 mm
T08C1.200
;Holesize 9 = 1.270 mm
T09C1.270
%
G05
G90
T01
X062537Y105584
X057133Y118724
X044697Y118591
X071086Y092202
X044073Y105587
X039272Y114408
T02
X052324Y080083
X054864Y080083
X057404Y080083
X059944Y080083
T03
X040946Y109855G85X040940Y109855
X037545Y109855G85X037539Y109855
T04
X024880Y084455
X022880Y090455
X022880Y078455
X010680Y090455
X010680Y078455
X044692Y084455
X042692Y090455
X042692Y078455
X030492Y090455
X030492Y078455
T05
X109474Y112649
X109474Y110109
X102743Y113030
X102743Y110490
X094742Y113030
X094742Y110490
T06
X022955Y094488
X031655Y094488
X044672Y096012
X053372Y096012
T07
X073914Y083439
X076454Y083439
X076200Y077724
X073660Y077724
X102821Y123698
X102821Y126238
X105664Y123698
X105664Y126238
X065962Y123698
X065962Y126238
X063119Y123698
X063119Y126238
T08
X089027Y078232
X089027Y080772
X089027Y083312
X089027Y085852
X089027Y088392
X089027Y090932
X089027Y093472
X089027Y096012
X089027Y098552
X089027Y101092
X089027Y103632
X089027Y106172
X089027Y108712
X089027Y111252
X089027Y113792
X089027Y116332
X089027Y118872
X089027Y121412
X089027Y123952
X089027Y126492
X079756Y126492
X079756Y123952
X079756Y121412
X079756Y118872
X079756Y116332
X079756Y113792
X079756Y111252
X079756Y108712
X079756Y106172
X079756Y103632
X079756Y101092
X079756Y098552
X079756Y096012
X079756Y093472
X079756Y090932
X079756Y088392
X079756Y085852
X079756Y083312
X079756Y080772
X079756Y078232
T09
X067818Y078994
X067818Y084074
X067818Y089154
X040386Y097155
X035306Y097155
X019304Y097155
X014224Y097155
X020955Y119761
X015875Y119761
X010795Y119761
X010795Y110871
X015875Y110871
X020955Y110871
M30
