G04 Layer: TopLayer*
G04 EasyEDA v6.4.23, 2021-09-03T17:21:03+02:00*
G04 aeee774bf32f4d08b0fc01e64f25dcb3,11806c6667b54f078b534f3636c84428,10*
G04 Gerber Generator version 0.2*
G04 Scale: 100 percent, Rotated: No, Reflected: No *
G04 Dimensions in millimeters *
G04 leading zeros omitted , absolute positions ,4 integer and 5 decimal *
%FSLAX45Y45*%
%MOMM*%

%ADD10C,0.2540*%
%ADD11C,0.4000*%
%ADD12C,0.6100*%
%ADD15R,0.8640X0.8065*%
%ADD17C,1.5240*%
%ADD18R,1.8000X1.8000*%
%ADD19C,1.8000*%
%ADD20C,1.5000*%
%ADD21R,1.2954X1.2954*%
%ADD22C,1.2954*%
%ADD23C,1.3000*%
%ADD24C,1.6510*%
%ADD25C,2.5400*%

%LPD*%
G36*
X772668Y7569708D02*
G01*
X768756Y7570470D01*
X765505Y7572705D01*
X763270Y7575956D01*
X762508Y7579868D01*
X762508Y12473432D01*
X763270Y12477343D01*
X765505Y12480594D01*
X768756Y12482830D01*
X772668Y12483592D01*
X2412593Y12483592D01*
X2416403Y12483896D01*
X2423464Y12485928D01*
X2428341Y12488672D01*
X2431592Y12491466D01*
X2750972Y12810794D01*
X2754274Y12813030D01*
X2758135Y12813792D01*
X11432032Y12813792D01*
X11435943Y12813030D01*
X11439194Y12810794D01*
X11441430Y12807543D01*
X11442192Y12803632D01*
X11442192Y10208768D01*
X11441430Y10204856D01*
X11439194Y10201605D01*
X11435943Y10199370D01*
X11432032Y10198608D01*
X9472320Y10198608D01*
X9468459Y10199370D01*
X9465157Y10201605D01*
X9462922Y10204856D01*
X9462160Y10208768D01*
X9462922Y10212679D01*
X9465157Y10215930D01*
X9777526Y10528350D01*
X9780828Y10530535D01*
X9784740Y10531297D01*
X10717784Y10531297D01*
X10725810Y10532110D01*
X10733024Y10534294D01*
X10739678Y10537850D01*
X10745927Y10542981D01*
X10798048Y10595102D01*
X10801350Y10597337D01*
X10805210Y10598099D01*
X10809122Y10597337D01*
X10812424Y10595102D01*
X10815624Y10591901D01*
X10820552Y10588802D01*
X10825988Y10586923D01*
X10832338Y10586212D01*
X10911840Y10586212D01*
X10918139Y10586923D01*
X10923625Y10588802D01*
X10928502Y10591901D01*
X10932617Y10595965D01*
X10935665Y10600893D01*
X10937798Y10606938D01*
X10939932Y10610494D01*
X10943336Y10612932D01*
X10947400Y10613745D01*
X10951464Y10612932D01*
X10954867Y10610494D01*
X10957001Y10606938D01*
X10959134Y10600893D01*
X10962182Y10595965D01*
X10966297Y10591901D01*
X10971174Y10588802D01*
X10976660Y10586923D01*
X10982960Y10586212D01*
X11062462Y10586212D01*
X11068812Y10586923D01*
X11074247Y10588802D01*
X11079175Y10591901D01*
X11083239Y10595965D01*
X11086338Y10600893D01*
X11088268Y10606328D01*
X11088979Y10612678D01*
X11088979Y10697921D01*
X11088268Y10704271D01*
X11086338Y10709706D01*
X11083239Y10714634D01*
X11081461Y10716412D01*
X11079276Y10719663D01*
X11078514Y10723575D01*
X11079276Y10727486D01*
X11081461Y10730738D01*
X11087912Y10737189D01*
X11093043Y10743438D01*
X11096599Y10750092D01*
X11098784Y10757306D01*
X11099596Y10765332D01*
X11099596Y11150854D01*
X11098784Y11158880D01*
X11096599Y11166094D01*
X11093043Y11172748D01*
X11087912Y11178997D01*
X11051032Y11215878D01*
X11048898Y11218976D01*
X11048034Y11222634D01*
X11048593Y11226342D01*
X11052149Y11236858D01*
X11054892Y11250726D01*
X11055858Y11264900D01*
X11054892Y11279073D01*
X11052149Y11292941D01*
X11047577Y11306403D01*
X11041329Y11319103D01*
X11033404Y11330889D01*
X11024057Y11341557D01*
X11013389Y11350904D01*
X11001603Y11358829D01*
X10988903Y11365077D01*
X10975441Y11369649D01*
X10961573Y11372392D01*
X10947400Y11373358D01*
X10933226Y11372392D01*
X10919358Y11369649D01*
X10905896Y11365077D01*
X10893196Y11358829D01*
X10881410Y11350904D01*
X10870742Y11341557D01*
X10861395Y11330889D01*
X10853470Y11319103D01*
X10847222Y11306403D01*
X10842650Y11292941D01*
X10839907Y11279073D01*
X10838942Y11264900D01*
X10839907Y11250726D01*
X10842650Y11236858D01*
X10847222Y11223396D01*
X10853470Y11210696D01*
X10861395Y11198910D01*
X10870742Y11188242D01*
X10881410Y11178895D01*
X10893196Y11170970D01*
X10905896Y11164722D01*
X10919358Y11160150D01*
X10933226Y11157407D01*
X10947400Y11156442D01*
X10961573Y11157407D01*
X10975441Y11160150D01*
X10985957Y11163706D01*
X10989665Y11164265D01*
X10993323Y11163401D01*
X10996422Y11161268D01*
X11019383Y11138306D01*
X11021568Y11135004D01*
X11022380Y11131143D01*
X11022380Y11109960D01*
X11021415Y11105692D01*
X11018774Y11102238D01*
X11014964Y11100206D01*
X11010595Y11099901D01*
X11006531Y11101527D01*
X11001603Y11104829D01*
X10995050Y11108080D01*
X10995050Y11058499D01*
X11012220Y11058499D01*
X11016081Y11057737D01*
X11019383Y11055553D01*
X11021568Y11052251D01*
X11022380Y11048339D01*
X11022380Y10973409D01*
X11021568Y10969548D01*
X11019383Y10966246D01*
X11016081Y10964062D01*
X11012220Y10963249D01*
X10995050Y10963249D01*
X10995050Y10913719D01*
X11001603Y10916970D01*
X11006531Y10920272D01*
X11010595Y10921898D01*
X11014964Y10921593D01*
X11018774Y10919561D01*
X11021415Y10916107D01*
X11022380Y10911840D01*
X11022380Y10785043D01*
X11021568Y10781182D01*
X11019383Y10777880D01*
X10995812Y10754258D01*
X10990681Y10748060D01*
X10987125Y10741355D01*
X10984941Y10734141D01*
X10983671Y10729010D01*
X10981283Y10726013D01*
X10977930Y10724083D01*
X10971174Y10721746D01*
X10966297Y10718698D01*
X10962182Y10714634D01*
X10959134Y10709706D01*
X10957001Y10703661D01*
X10954867Y10700105D01*
X10951464Y10697667D01*
X10947400Y10696854D01*
X10943336Y10697667D01*
X10939932Y10700105D01*
X10937798Y10703661D01*
X10935665Y10709706D01*
X10932617Y10714634D01*
X10928502Y10718698D01*
X10923625Y10721797D01*
X10918139Y10723676D01*
X10911840Y10724388D01*
X10832338Y10724388D01*
X10825988Y10723676D01*
X10820552Y10721797D01*
X10815624Y10718698D01*
X10811560Y10714634D01*
X10808462Y10709706D01*
X10806531Y10704271D01*
X10805363Y10698886D01*
X10803382Y10696092D01*
X10800537Y10694162D01*
X10796117Y10693095D01*
X10788904Y10690910D01*
X10782198Y10687354D01*
X10776000Y10682224D01*
X10705236Y10611510D01*
X10701934Y10609326D01*
X10698073Y10608513D01*
X10394492Y10608513D01*
X10390225Y10609478D01*
X10386771Y10612069D01*
X10384739Y10615879D01*
X10384434Y10620197D01*
X10385958Y10624261D01*
X10389057Y10627309D01*
X10393375Y10630001D01*
X10397439Y10634065D01*
X10400538Y10638993D01*
X10402468Y10644428D01*
X10403179Y10650778D01*
X10403179Y10736021D01*
X10402468Y10742371D01*
X10400538Y10747806D01*
X10397439Y10752734D01*
X10395661Y10754512D01*
X10393476Y10757763D01*
X10392714Y10761675D01*
X10393476Y10765586D01*
X10395661Y10768838D01*
X10424363Y10797590D01*
X10429494Y10803788D01*
X10433050Y10810494D01*
X10435234Y10817707D01*
X10436047Y10825734D01*
X10436047Y11179352D01*
X10435234Y11187379D01*
X10433050Y11194592D01*
X10429494Y11201298D01*
X10424363Y11207496D01*
X10377932Y11253978D01*
X10375798Y11257076D01*
X10374934Y11260734D01*
X10375493Y11264442D01*
X10379049Y11274958D01*
X10381792Y11288826D01*
X10382758Y11303000D01*
X10381792Y11317173D01*
X10379049Y11331041D01*
X10374477Y11344503D01*
X10368229Y11357203D01*
X10360304Y11368989D01*
X10350957Y11379657D01*
X10340289Y11389004D01*
X10328503Y11396929D01*
X10315803Y11403177D01*
X10302341Y11407749D01*
X10288473Y11410492D01*
X10274300Y11411458D01*
X10260126Y11410492D01*
X10246258Y11407749D01*
X10232796Y11403177D01*
X10220096Y11396929D01*
X10208310Y11389004D01*
X10197642Y11379657D01*
X10188295Y11368989D01*
X10180370Y11357203D01*
X10174122Y11344503D01*
X10169550Y11331041D01*
X10166807Y11317173D01*
X10165842Y11303000D01*
X10166807Y11288826D01*
X10169550Y11274958D01*
X10174122Y11261496D01*
X10180370Y11248796D01*
X10188295Y11237010D01*
X10197642Y11226342D01*
X10208310Y11216995D01*
X10220096Y11209070D01*
X10232796Y11202822D01*
X10246258Y11198250D01*
X10260126Y11195507D01*
X10274300Y11194542D01*
X10288473Y11195507D01*
X10302341Y11198250D01*
X10312857Y11201806D01*
X10316565Y11202365D01*
X10320223Y11201501D01*
X10323322Y11199368D01*
X10355834Y11166856D01*
X10358069Y11163554D01*
X10358831Y11159642D01*
X10358831Y11141202D01*
X10358120Y11137442D01*
X10355986Y11134191D01*
X10352887Y11131956D01*
X10349128Y11131042D01*
X10345318Y11131600D01*
X10341965Y11133582D01*
X10340289Y11135004D01*
X10328503Y11142929D01*
X10321950Y11146180D01*
X10321950Y11096599D01*
X10348671Y11096599D01*
X10352582Y11095837D01*
X10355834Y11093653D01*
X10358069Y11090351D01*
X10358831Y11086439D01*
X10358831Y11011509D01*
X10358069Y11007648D01*
X10355834Y11004346D01*
X10352582Y11002162D01*
X10348671Y11001349D01*
X10321950Y11001349D01*
X10321950Y10951819D01*
X10328503Y10955070D01*
X10340289Y10962995D01*
X10341965Y10964418D01*
X10345318Y10966348D01*
X10349128Y10966958D01*
X10352887Y10966043D01*
X10355986Y10963808D01*
X10358120Y10960557D01*
X10358831Y10956798D01*
X10358831Y10845444D01*
X10358069Y10841532D01*
X10355834Y10838230D01*
X10310012Y10792358D01*
X10304881Y10786160D01*
X10301325Y10779455D01*
X10299141Y10772241D01*
X10297871Y10767110D01*
X10295483Y10764113D01*
X10292130Y10762183D01*
X10285374Y10759846D01*
X10280497Y10756798D01*
X10276382Y10752734D01*
X10273334Y10747806D01*
X10271201Y10741761D01*
X10269067Y10738205D01*
X10265664Y10735767D01*
X10261600Y10734954D01*
X10257536Y10735767D01*
X10254132Y10738205D01*
X10251998Y10741761D01*
X10249865Y10747806D01*
X10246817Y10752734D01*
X10242702Y10756798D01*
X10237825Y10759897D01*
X10232339Y10761776D01*
X10226040Y10762488D01*
X10146538Y10762488D01*
X10140188Y10761776D01*
X10134752Y10759897D01*
X10129824Y10756798D01*
X10125760Y10752734D01*
X10122662Y10747806D01*
X10120731Y10742371D01*
X10119563Y10737494D01*
X10117277Y10734598D01*
X10114127Y10732668D01*
X10110520Y10732008D01*
X9682734Y10732008D01*
X9674707Y10731195D01*
X9667494Y10729010D01*
X9660788Y10725454D01*
X9654590Y10720324D01*
X9035694Y10101478D01*
X9032392Y10099294D01*
X9028531Y10098481D01*
X9024620Y10099294D01*
X9021318Y10101478D01*
X9019133Y10104780D01*
X9018371Y10108641D01*
X9018371Y10116464D01*
X9016542Y10130891D01*
X9012936Y10145014D01*
X9007551Y10158526D01*
X9000540Y10171277D01*
X8992768Y10181996D01*
X8991041Y10185857D01*
X8991092Y10190073D01*
X8992819Y10193985D01*
X8995968Y10196779D01*
X8999982Y10198049D01*
X9003182Y10198404D01*
X9010396Y10200589D01*
X9017101Y10204145D01*
X9023299Y10209276D01*
X9310624Y10496600D01*
X9315754Y10502798D01*
X9319310Y10509504D01*
X9321495Y10516717D01*
X9322562Y10521137D01*
X9324492Y10523982D01*
X9327286Y10525963D01*
X9332671Y10527131D01*
X9338106Y10529062D01*
X9343034Y10532160D01*
X9347098Y10536224D01*
X9350197Y10541152D01*
X9352076Y10546588D01*
X9352788Y10552938D01*
X9352788Y10632440D01*
X9352076Y10638739D01*
X9350197Y10644225D01*
X9347098Y10649102D01*
X9343034Y10653217D01*
X9338106Y10656265D01*
X9332061Y10658398D01*
X9328505Y10660532D01*
X9326067Y10663936D01*
X9325254Y10668000D01*
X9326067Y10672064D01*
X9328505Y10675467D01*
X9332061Y10677601D01*
X9338106Y10679734D01*
X9343034Y10682782D01*
X9347098Y10686897D01*
X9350197Y10691774D01*
X9352076Y10697260D01*
X9352788Y10703560D01*
X9352788Y10783062D01*
X9352076Y10789412D01*
X9350197Y10794847D01*
X9347098Y10799775D01*
X9343034Y10803839D01*
X9338106Y10806938D01*
X9332671Y10808868D01*
X9327794Y10810036D01*
X9324898Y10812322D01*
X9322968Y10815472D01*
X9322308Y10819079D01*
X9322308Y11092281D01*
X9323070Y11096193D01*
X9325305Y11099495D01*
X9425178Y11199368D01*
X9428276Y11201501D01*
X9431934Y11202365D01*
X9435642Y11201806D01*
X9446158Y11198250D01*
X9460026Y11195507D01*
X9474200Y11194542D01*
X9488373Y11195507D01*
X9502241Y11198250D01*
X9515703Y11202822D01*
X9528403Y11209070D01*
X9540189Y11216995D01*
X9550857Y11226342D01*
X9560204Y11237010D01*
X9568129Y11248796D01*
X9574377Y11261496D01*
X9578949Y11274958D01*
X9581692Y11288826D01*
X9582658Y11303000D01*
X9581692Y11317173D01*
X9578949Y11331041D01*
X9574377Y11344503D01*
X9568129Y11357203D01*
X9560204Y11368989D01*
X9550857Y11379657D01*
X9540189Y11389004D01*
X9528403Y11396929D01*
X9515703Y11403177D01*
X9502241Y11407749D01*
X9488373Y11410492D01*
X9474200Y11411458D01*
X9460026Y11410492D01*
X9446158Y11407749D01*
X9432696Y11403177D01*
X9419996Y11396929D01*
X9408210Y11389004D01*
X9397542Y11379657D01*
X9388195Y11368989D01*
X9380270Y11357203D01*
X9374022Y11344503D01*
X9369450Y11331041D01*
X9366707Y11317173D01*
X9365742Y11303000D01*
X9366707Y11288826D01*
X9369450Y11274958D01*
X9373006Y11264442D01*
X9373565Y11260734D01*
X9372701Y11257076D01*
X9370568Y11253978D01*
X9256776Y11140135D01*
X9251645Y11133937D01*
X9248089Y11127232D01*
X9245904Y11120018D01*
X9245092Y11111992D01*
X9245092Y10819079D01*
X9244431Y10815472D01*
X9242501Y10812322D01*
X9239605Y10810036D01*
X9234728Y10808868D01*
X9229293Y10806938D01*
X9224365Y10803839D01*
X9220301Y10799775D01*
X9217202Y10794847D01*
X9215323Y10789412D01*
X9214612Y10783062D01*
X9214612Y10703560D01*
X9215323Y10697260D01*
X9217202Y10691774D01*
X9220301Y10686897D01*
X9224365Y10682782D01*
X9229293Y10679734D01*
X9235338Y10677601D01*
X9238894Y10675467D01*
X9241332Y10672064D01*
X9242145Y10668000D01*
X9241332Y10663936D01*
X9238894Y10660532D01*
X9235338Y10658398D01*
X9229293Y10656265D01*
X9224365Y10653217D01*
X9220301Y10649102D01*
X9217202Y10644225D01*
X9215323Y10638739D01*
X9214612Y10632440D01*
X9214612Y10552938D01*
X9215323Y10546588D01*
X9217202Y10541152D01*
X9220301Y10536224D01*
X9223502Y10533024D01*
X9225737Y10529722D01*
X9226499Y10525810D01*
X9225737Y10521950D01*
X9223502Y10518648D01*
X9032494Y10327640D01*
X9028785Y10325252D01*
X9024467Y10324693D01*
X9020302Y10326014D01*
X9017050Y10328910D01*
X9015323Y10332974D01*
X9015476Y10337342D01*
X9016542Y10341508D01*
X9018371Y10355935D01*
X9018371Y10370464D01*
X9016542Y10384891D01*
X9012936Y10399014D01*
X9007551Y10412526D01*
X9000540Y10425277D01*
X8992006Y10437063D01*
X8982049Y10447680D01*
X8970822Y10456976D01*
X8958529Y10464749D01*
X8945372Y10470946D01*
X8931503Y10475468D01*
X8917228Y10478160D01*
X8902700Y10479074D01*
X8888171Y10478160D01*
X8873896Y10475468D01*
X8860028Y10470946D01*
X8846870Y10464749D01*
X8834577Y10456976D01*
X8823350Y10447680D01*
X8813393Y10437063D01*
X8804859Y10425277D01*
X8797848Y10412526D01*
X8792464Y10399014D01*
X8788857Y10384891D01*
X8787028Y10370464D01*
X8787028Y10355935D01*
X8788857Y10341508D01*
X8792464Y10327386D01*
X8797848Y10313873D01*
X8804859Y10301122D01*
X8813393Y10289336D01*
X8823401Y10278719D01*
X8825534Y10275163D01*
X8826144Y10271099D01*
X8825026Y10267086D01*
X8821521Y10263124D01*
X8696248Y10137851D01*
X8691118Y10131602D01*
X8687562Y10124948D01*
X8685377Y10117734D01*
X8684564Y10109708D01*
X8684564Y9273235D01*
X8685377Y9265208D01*
X8687562Y9257995D01*
X8691118Y9251289D01*
X8696248Y9245092D01*
X8793378Y9147911D01*
X8795562Y9144660D01*
X8796375Y9140850D01*
X8795664Y9136989D01*
X8792464Y9129014D01*
X8788857Y9114891D01*
X8787028Y9100464D01*
X8787028Y9085935D01*
X8788857Y9071508D01*
X8792464Y9057386D01*
X8797848Y9043873D01*
X8804859Y9031122D01*
X8813393Y9019336D01*
X8823350Y9008719D01*
X8834577Y8999423D01*
X8846870Y8991650D01*
X8860028Y8985453D01*
X8873896Y8980932D01*
X8888171Y8978239D01*
X8902700Y8977325D01*
X8917228Y8978239D01*
X8931503Y8980932D01*
X8945372Y8985453D01*
X8958529Y8991650D01*
X8970822Y8999423D01*
X8982049Y9008719D01*
X8992006Y9019336D01*
X9000540Y9031122D01*
X9007551Y9043873D01*
X9012936Y9057386D01*
X9016542Y9071508D01*
X9018371Y9085935D01*
X9018371Y9100464D01*
X9016542Y9114891D01*
X9012936Y9129014D01*
X9007551Y9142526D01*
X9000540Y9155277D01*
X8992006Y9167063D01*
X8982049Y9177680D01*
X8970822Y9186976D01*
X8958529Y9194749D01*
X8945372Y9200946D01*
X8931503Y9205468D01*
X8917228Y9208160D01*
X8902700Y9209074D01*
X8888171Y9208160D01*
X8873896Y9205468D01*
X8860028Y9200946D01*
X8855354Y9199676D01*
X8851290Y9200388D01*
X8847836Y9202623D01*
X8764778Y9285732D01*
X8762542Y9289034D01*
X8761780Y9292945D01*
X8761780Y9408972D01*
X8762542Y9412884D01*
X8764778Y9416186D01*
X8768029Y9418370D01*
X8771940Y9419132D01*
X8775852Y9418370D01*
X8779103Y9416186D01*
X8793378Y9401911D01*
X8795562Y9398660D01*
X8796375Y9394850D01*
X8795664Y9390989D01*
X8792464Y9383014D01*
X8788857Y9368891D01*
X8787028Y9354464D01*
X8787028Y9339935D01*
X8788857Y9325508D01*
X8792464Y9311386D01*
X8797848Y9297873D01*
X8804859Y9285122D01*
X8813393Y9273336D01*
X8823350Y9262719D01*
X8834577Y9253423D01*
X8846870Y9245650D01*
X8860028Y9239453D01*
X8873896Y9234932D01*
X8888171Y9232239D01*
X8902700Y9231325D01*
X8917228Y9232239D01*
X8931503Y9234932D01*
X8945372Y9239453D01*
X8958529Y9245650D01*
X8970822Y9253423D01*
X8982049Y9262719D01*
X8992006Y9273336D01*
X9000540Y9285122D01*
X9007551Y9297873D01*
X9012936Y9311386D01*
X9016542Y9325508D01*
X9018371Y9339935D01*
X9018371Y9354464D01*
X9016542Y9368891D01*
X9012936Y9383014D01*
X9007551Y9396526D01*
X9000540Y9409277D01*
X8992006Y9421063D01*
X8982049Y9431680D01*
X8970822Y9440976D01*
X8958529Y9448749D01*
X8945372Y9454946D01*
X8931503Y9459468D01*
X8917228Y9462160D01*
X8902700Y9463074D01*
X8888171Y9462160D01*
X8873896Y9459468D01*
X8860028Y9454946D01*
X8855354Y9453676D01*
X8851290Y9454388D01*
X8847836Y9456623D01*
X8808415Y9496094D01*
X8806230Y9499396D01*
X8805468Y9503257D01*
X8805468Y9510166D01*
X8806230Y9514078D01*
X8808516Y9517430D01*
X8811869Y9519615D01*
X8815832Y9520326D01*
X8819743Y9519412D01*
X8823350Y9516719D01*
X8834577Y9507423D01*
X8846870Y9499650D01*
X8860028Y9493453D01*
X8873896Y9488932D01*
X8888171Y9486239D01*
X8902700Y9485325D01*
X8917228Y9486239D01*
X8931503Y9488932D01*
X8945372Y9493453D01*
X8958529Y9499650D01*
X8970822Y9507423D01*
X8982049Y9516719D01*
X8992006Y9527336D01*
X9000540Y9539122D01*
X9007551Y9551873D01*
X9012936Y9565386D01*
X9016542Y9579508D01*
X9018371Y9593935D01*
X9018371Y9608464D01*
X9016542Y9622891D01*
X9012936Y9637014D01*
X9009735Y9644989D01*
X9009024Y9648850D01*
X9009837Y9652660D01*
X9012021Y9655911D01*
X9065514Y9709404D01*
X9070644Y9715652D01*
X9074200Y9722307D01*
X9076385Y9729520D01*
X9077198Y9737547D01*
X9077198Y9823754D01*
X9077960Y9827666D01*
X9080144Y9830968D01*
X9367469Y10118242D01*
X9370720Y10120477D01*
X9374632Y10121239D01*
X9378543Y10120477D01*
X9381794Y10118242D01*
X9384030Y10114940D01*
X9384792Y10111079D01*
X9384792Y7579868D01*
X9384030Y7575956D01*
X9381794Y7572705D01*
X9378543Y7570470D01*
X9374632Y7569708D01*
G37*

%LPC*%
G36*
X7613192Y7670546D02*
G01*
X7626807Y7670546D01*
X7640320Y7672374D01*
X7653477Y7675981D01*
X7666024Y7681264D01*
X7677759Y7688224D01*
X7688478Y7696708D01*
X7697978Y7706512D01*
X7706055Y7717485D01*
X7712608Y7729423D01*
X7717485Y7742174D01*
X7720685Y7755432D01*
X7722006Y7768996D01*
X7721549Y7782610D01*
X7719314Y7796072D01*
X7715250Y7809077D01*
X7709509Y7821472D01*
X7702194Y7832953D01*
X7693406Y7843367D01*
X7683246Y7852511D01*
X7672019Y7860233D01*
X7659878Y7866380D01*
X7646974Y7870850D01*
X7633614Y7873593D01*
X7620000Y7874508D01*
X7606385Y7873593D01*
X7593025Y7870850D01*
X7580122Y7866380D01*
X7567980Y7860233D01*
X7556753Y7852511D01*
X7546594Y7843367D01*
X7537805Y7832953D01*
X7530490Y7821472D01*
X7524750Y7809077D01*
X7520686Y7796072D01*
X7518450Y7782610D01*
X7517993Y7768996D01*
X7519314Y7755432D01*
X7522514Y7742174D01*
X7527391Y7729423D01*
X7533944Y7717485D01*
X7542022Y7706512D01*
X7551521Y7696708D01*
X7562240Y7688224D01*
X7573975Y7681264D01*
X7586522Y7675981D01*
X7599680Y7672374D01*
G37*
G36*
X7410450Y7680604D02*
G01*
X7412024Y7681264D01*
X7423759Y7688224D01*
X7434478Y7696708D01*
X7443978Y7706512D01*
X7452055Y7717485D01*
X7457795Y7727950D01*
X7410450Y7727950D01*
G37*
G36*
X7321550Y7680604D02*
G01*
X7321550Y7727950D01*
X7274204Y7727950D01*
X7279944Y7717485D01*
X7288022Y7706512D01*
X7297521Y7696708D01*
X7308240Y7688224D01*
X7319975Y7681264D01*
G37*
G36*
X8813292Y7707274D02*
G01*
X8992108Y7707274D01*
X8998458Y7707985D01*
X9003893Y7709916D01*
X9008821Y7713014D01*
X9012885Y7717078D01*
X9015984Y7722006D01*
X9017914Y7727442D01*
X9018625Y7733792D01*
X9018625Y7912608D01*
X9017914Y7918958D01*
X9015984Y7924393D01*
X9012885Y7929321D01*
X9008821Y7933385D01*
X9003893Y7936484D01*
X8998458Y7938414D01*
X8992108Y7939125D01*
X8813292Y7939125D01*
X8806942Y7938414D01*
X8801506Y7936484D01*
X8796578Y7933385D01*
X8792514Y7929321D01*
X8789416Y7924393D01*
X8787485Y7918958D01*
X8786774Y7912608D01*
X8786774Y7733792D01*
X8787485Y7727442D01*
X8789416Y7722006D01*
X8792514Y7717078D01*
X8796578Y7713014D01*
X8801506Y7709916D01*
X8806942Y7707985D01*
G37*
G36*
X7975600Y7707325D02*
G01*
X7990128Y7708239D01*
X8004403Y7710931D01*
X8018272Y7715453D01*
X8031429Y7721650D01*
X8043722Y7729423D01*
X8054949Y7738719D01*
X8064906Y7749336D01*
X8073440Y7761122D01*
X8080451Y7773873D01*
X8085836Y7787386D01*
X8089442Y7801508D01*
X8091271Y7815935D01*
X8091271Y7830464D01*
X8089442Y7844891D01*
X8085836Y7859014D01*
X8080451Y7872526D01*
X8073440Y7885277D01*
X8064906Y7897063D01*
X8054949Y7907680D01*
X8043722Y7916976D01*
X8031429Y7924749D01*
X8018272Y7930946D01*
X8004403Y7935468D01*
X7990128Y7938160D01*
X7975600Y7939074D01*
X7961071Y7938160D01*
X7946796Y7935468D01*
X7932928Y7930946D01*
X7919770Y7924749D01*
X7907477Y7916976D01*
X7896250Y7907680D01*
X7886293Y7897063D01*
X7877759Y7885277D01*
X7870748Y7872526D01*
X7865364Y7859014D01*
X7861757Y7844891D01*
X7859928Y7830464D01*
X7859928Y7815935D01*
X7861757Y7801508D01*
X7865364Y7787386D01*
X7870748Y7773873D01*
X7877759Y7761122D01*
X7886293Y7749336D01*
X7896250Y7738719D01*
X7907477Y7729423D01*
X7919770Y7721650D01*
X7932928Y7715453D01*
X7946796Y7710931D01*
X7961071Y7708239D01*
G37*
G36*
X6889750Y7749895D02*
G01*
X6906818Y7754518D01*
X6922211Y7760614D01*
X6936841Y7768386D01*
X6950506Y7777683D01*
X6963156Y7788402D01*
X6974535Y7800441D01*
X6984542Y7813598D01*
X6993077Y7827772D01*
X6993890Y7829550D01*
X6889750Y7829550D01*
G37*
G36*
X6673850Y7749895D02*
G01*
X6673850Y7829550D01*
X6569709Y7829550D01*
X6570522Y7827772D01*
X6579057Y7813598D01*
X6589064Y7800441D01*
X6600444Y7788402D01*
X6613093Y7777683D01*
X6626758Y7768386D01*
X6641388Y7760614D01*
X6656781Y7754518D01*
G37*
G36*
X1071168Y7754670D02*
G01*
X1083767Y7755991D01*
X1096111Y7759090D01*
X1107846Y7763814D01*
X1118819Y7770164D01*
X1128826Y7777937D01*
X1137615Y7787081D01*
X1145082Y7797342D01*
X1151026Y7808518D01*
X1155344Y7820456D01*
X1157986Y7832852D01*
X1158900Y7845501D01*
X1157986Y7858150D01*
X1155344Y7870545D01*
X1151026Y7882483D01*
X1145082Y7893659D01*
X1137615Y7903921D01*
X1128826Y7913065D01*
X1118819Y7920837D01*
X1107846Y7927187D01*
X1096111Y7931912D01*
X1083767Y7935010D01*
X1071168Y7936331D01*
X1058519Y7935874D01*
X1046022Y7933690D01*
X1033983Y7929778D01*
X1022553Y7924190D01*
X1012037Y7917129D01*
X1002639Y7908645D01*
X994460Y7898942D01*
X987755Y7888173D01*
X982624Y7876590D01*
X979119Y7864398D01*
X977341Y7851851D01*
X977341Y7839151D01*
X979119Y7826603D01*
X982624Y7814411D01*
X987755Y7802829D01*
X994460Y7792059D01*
X1002639Y7782356D01*
X1012037Y7773873D01*
X1022553Y7766812D01*
X1033983Y7761224D01*
X1046022Y7757312D01*
X1058519Y7755128D01*
G37*
G36*
X2291181Y7754670D02*
G01*
X2303780Y7755991D01*
X2316073Y7759090D01*
X2327859Y7763814D01*
X2338832Y7770164D01*
X2348788Y7777937D01*
X2357628Y7787081D01*
X2365044Y7797342D01*
X2371039Y7808518D01*
X2375357Y7820456D01*
X2377998Y7832852D01*
X2378862Y7845501D01*
X2377998Y7858150D01*
X2375357Y7870545D01*
X2371039Y7882483D01*
X2365044Y7893659D01*
X2357628Y7903921D01*
X2348788Y7913065D01*
X2338832Y7920837D01*
X2327859Y7927187D01*
X2316073Y7931912D01*
X2303780Y7935010D01*
X2291181Y7936331D01*
X2278481Y7935874D01*
X2265984Y7933690D01*
X2253945Y7929778D01*
X2242566Y7924190D01*
X2232050Y7917129D01*
X2222601Y7908645D01*
X2214473Y7898942D01*
X2207768Y7888173D01*
X2202586Y7876590D01*
X2199081Y7864398D01*
X2197354Y7851851D01*
X2197354Y7839151D01*
X2199081Y7826603D01*
X2202586Y7814411D01*
X2207768Y7802829D01*
X2214473Y7792059D01*
X2222601Y7782356D01*
X2232050Y7773873D01*
X2242566Y7766812D01*
X2253945Y7761224D01*
X2265984Y7757312D01*
X2278481Y7755128D01*
G37*
G36*
X4272381Y7754670D02*
G01*
X4284980Y7755991D01*
X4297273Y7759090D01*
X4309059Y7763814D01*
X4320032Y7770164D01*
X4329988Y7777937D01*
X4338828Y7787081D01*
X4346244Y7797342D01*
X4352239Y7808518D01*
X4356557Y7820456D01*
X4359198Y7832852D01*
X4360062Y7845501D01*
X4359198Y7858150D01*
X4356557Y7870545D01*
X4352239Y7882483D01*
X4346244Y7893659D01*
X4338828Y7903921D01*
X4329988Y7913065D01*
X4320032Y7920837D01*
X4309059Y7927187D01*
X4297273Y7931912D01*
X4284980Y7935010D01*
X4272381Y7936331D01*
X4259681Y7935874D01*
X4247184Y7933690D01*
X4235145Y7929778D01*
X4223766Y7924190D01*
X4213250Y7917129D01*
X4203801Y7908645D01*
X4195673Y7898942D01*
X4188968Y7888173D01*
X4183786Y7876590D01*
X4180281Y7864398D01*
X4178554Y7851851D01*
X4178554Y7839151D01*
X4180281Y7826603D01*
X4183786Y7814411D01*
X4188968Y7802829D01*
X4195673Y7792059D01*
X4203801Y7782356D01*
X4213250Y7773873D01*
X4223766Y7766812D01*
X4235145Y7761224D01*
X4247184Y7757312D01*
X4259681Y7755128D01*
G37*
G36*
X3052368Y7754670D02*
G01*
X3064967Y7755991D01*
X3077311Y7759090D01*
X3089046Y7763814D01*
X3100019Y7770164D01*
X3110026Y7777937D01*
X3118815Y7787081D01*
X3126282Y7797342D01*
X3132226Y7808518D01*
X3136544Y7820456D01*
X3139186Y7832852D01*
X3140100Y7845501D01*
X3139186Y7858150D01*
X3136544Y7870545D01*
X3132226Y7882483D01*
X3126282Y7893659D01*
X3118815Y7903921D01*
X3110026Y7913065D01*
X3100019Y7920837D01*
X3089046Y7927187D01*
X3077311Y7931912D01*
X3064967Y7935010D01*
X3052368Y7936331D01*
X3039719Y7935874D01*
X3027222Y7933690D01*
X3015183Y7929778D01*
X3003753Y7924190D01*
X2993237Y7917129D01*
X2983839Y7908645D01*
X2975660Y7898942D01*
X2968955Y7888173D01*
X2963824Y7876590D01*
X2960319Y7864398D01*
X2958541Y7851851D01*
X2958541Y7839151D01*
X2960319Y7826603D01*
X2963824Y7814411D01*
X2968955Y7802829D01*
X2975660Y7792059D01*
X2983839Y7782356D01*
X2993237Y7773873D01*
X3003753Y7766812D01*
X3015183Y7761224D01*
X3027222Y7757312D01*
X3039719Y7755128D01*
G37*
G36*
X7410450Y7816850D02*
G01*
X7457643Y7816850D01*
X7455509Y7821472D01*
X7448194Y7832953D01*
X7439406Y7843367D01*
X7429246Y7852511D01*
X7418019Y7860233D01*
X7410450Y7864043D01*
G37*
G36*
X7274356Y7816850D02*
G01*
X7321550Y7816850D01*
X7321550Y7864043D01*
X7313980Y7860233D01*
X7302753Y7852511D01*
X7292594Y7843367D01*
X7283805Y7832953D01*
X7276490Y7821472D01*
G37*
G36*
X5168188Y7917637D02*
G01*
X5296611Y7917637D01*
X5302910Y7918348D01*
X5308396Y7920278D01*
X5313273Y7923377D01*
X5317388Y7927441D01*
X5320436Y7932369D01*
X5322366Y7937804D01*
X5323078Y7944154D01*
X5323078Y8072526D01*
X5322366Y8078876D01*
X5320436Y8084312D01*
X5317388Y8089239D01*
X5313273Y8093303D01*
X5308396Y8096402D01*
X5302910Y8098281D01*
X5296611Y8098993D01*
X5168188Y8098993D01*
X5161889Y8098281D01*
X5156403Y8096402D01*
X5151526Y8093303D01*
X5147411Y8089239D01*
X5144363Y8084312D01*
X5142433Y8078876D01*
X5141722Y8072526D01*
X5141722Y7944154D01*
X5142433Y7937804D01*
X5144363Y7932369D01*
X5147411Y7927441D01*
X5151526Y7923377D01*
X5156403Y7920278D01*
X5161889Y7918348D01*
G37*
G36*
X5737250Y7917738D02*
G01*
X5749899Y7918196D01*
X5762345Y7920380D01*
X5774334Y7924292D01*
X5785713Y7929829D01*
X5796229Y7936890D01*
X5805627Y7945374D01*
X5813755Y7955025D01*
X5820460Y7965795D01*
X5825591Y7977327D01*
X5829096Y7989468D01*
X5830824Y8002016D01*
X5830824Y8014665D01*
X5829096Y8027162D01*
X5825591Y8039353D01*
X5820460Y8050885D01*
X5813755Y8061604D01*
X5805627Y8071307D01*
X5796229Y8079790D01*
X5785713Y8086852D01*
X5774334Y8092389D01*
X5762345Y8096300D01*
X5749899Y8098485D01*
X5737250Y8098942D01*
X5724652Y8097621D01*
X5712409Y8094573D01*
X5700674Y8089798D01*
X5689701Y8083499D01*
X5679744Y8075726D01*
X5670956Y8066582D01*
X5663539Y8056372D01*
X5657596Y8045196D01*
X5653278Y8033308D01*
X5650636Y8020964D01*
X5649722Y8008315D01*
X5650636Y7995716D01*
X5653278Y7983372D01*
X5657596Y7971485D01*
X5663539Y7960309D01*
X5670956Y7950047D01*
X5679744Y7940954D01*
X5689701Y7933181D01*
X5700674Y7926831D01*
X5712409Y7922107D01*
X5724652Y7919059D01*
G37*
G36*
X5483250Y7917738D02*
G01*
X5495899Y7918196D01*
X5508345Y7920380D01*
X5520334Y7924292D01*
X5531713Y7929829D01*
X5542229Y7936890D01*
X5551627Y7945374D01*
X5559755Y7955025D01*
X5566460Y7965795D01*
X5571591Y7977327D01*
X5575096Y7989468D01*
X5576824Y8002016D01*
X5576824Y8014665D01*
X5575096Y8027162D01*
X5571591Y8039353D01*
X5566460Y8050885D01*
X5559755Y8061604D01*
X5551627Y8071307D01*
X5542229Y8079790D01*
X5531713Y8086852D01*
X5520334Y8092389D01*
X5508345Y8096300D01*
X5495899Y8098485D01*
X5483250Y8098942D01*
X5470652Y8097621D01*
X5458409Y8094573D01*
X5446674Y8089798D01*
X5435701Y8083499D01*
X5425744Y8075726D01*
X5416956Y8066582D01*
X5409539Y8056372D01*
X5403596Y8045196D01*
X5399278Y8033308D01*
X5396636Y8020964D01*
X5395722Y8008315D01*
X5396636Y7995716D01*
X5399278Y7983372D01*
X5403596Y7971485D01*
X5409539Y7960309D01*
X5416956Y7950047D01*
X5425744Y7940954D01*
X5435701Y7933181D01*
X5446674Y7926831D01*
X5458409Y7922107D01*
X5470652Y7919059D01*
G37*
G36*
X5955690Y7926425D02*
G01*
X5955690Y7969605D01*
X5912561Y7969605D01*
X5917539Y7960309D01*
X5924956Y7950047D01*
X5933744Y7940954D01*
X5943701Y7933181D01*
X5954674Y7926831D01*
G37*
G36*
X6033160Y7926628D02*
G01*
X6039713Y7929829D01*
X6050229Y7936890D01*
X6059627Y7945374D01*
X6067755Y7955025D01*
X6074460Y7965795D01*
X6076137Y7969605D01*
X6033160Y7969605D01*
G37*
G36*
X8902700Y7961325D02*
G01*
X8917228Y7962239D01*
X8931503Y7964931D01*
X8945372Y7969453D01*
X8958529Y7975650D01*
X8970822Y7983423D01*
X8982049Y7992719D01*
X8992006Y8003336D01*
X9000540Y8015122D01*
X9007551Y8027873D01*
X9012936Y8041386D01*
X9016542Y8055508D01*
X9018371Y8069935D01*
X9018371Y8084464D01*
X9016542Y8098891D01*
X9012936Y8113014D01*
X9007551Y8126526D01*
X9000540Y8139277D01*
X8992006Y8151063D01*
X8982049Y8161680D01*
X8970822Y8170976D01*
X8958529Y8178749D01*
X8945372Y8184946D01*
X8931503Y8189468D01*
X8917228Y8192160D01*
X8902700Y8193074D01*
X8888171Y8192160D01*
X8873896Y8189468D01*
X8860028Y8184946D01*
X8846870Y8178749D01*
X8834577Y8170976D01*
X8823350Y8161680D01*
X8813393Y8151063D01*
X8804859Y8139277D01*
X8797848Y8126526D01*
X8792464Y8113014D01*
X8788857Y8098891D01*
X8787028Y8084464D01*
X8787028Y8069935D01*
X8788857Y8055508D01*
X8792464Y8041386D01*
X8797848Y8027873D01*
X8804859Y8015122D01*
X8813393Y8003336D01*
X8823350Y7992719D01*
X8834577Y7983423D01*
X8846870Y7975650D01*
X8860028Y7969453D01*
X8873896Y7964931D01*
X8888171Y7962239D01*
G37*
G36*
X7975600Y7961325D02*
G01*
X7990128Y7962239D01*
X8004403Y7964931D01*
X8018272Y7969453D01*
X8031429Y7975650D01*
X8043722Y7983423D01*
X8054949Y7992719D01*
X8064906Y8003336D01*
X8073440Y8015122D01*
X8080451Y8027873D01*
X8085836Y8041386D01*
X8089442Y8055508D01*
X8091271Y8069935D01*
X8091271Y8084464D01*
X8089442Y8098891D01*
X8085836Y8113014D01*
X8080451Y8126526D01*
X8073440Y8139277D01*
X8064906Y8151063D01*
X8054949Y8161680D01*
X8043722Y8170976D01*
X8031429Y8178749D01*
X8018272Y8184946D01*
X8004403Y8189468D01*
X7990128Y8192160D01*
X7975600Y8193074D01*
X7961071Y8192160D01*
X7946796Y8189468D01*
X7932928Y8184946D01*
X7919770Y8178749D01*
X7907477Y8170976D01*
X7896250Y8161680D01*
X7886293Y8151063D01*
X7877759Y8139277D01*
X7871764Y8128355D01*
X7869478Y8125561D01*
X7866380Y8123732D01*
X7862824Y8123123D01*
X6707124Y8123123D01*
X6703263Y8123885D01*
X6699961Y8126069D01*
X5746800Y9079179D01*
X5739739Y9084513D01*
X5732170Y9088272D01*
X5724042Y9090558D01*
X5715152Y9091422D01*
X4353102Y9091422D01*
X4349953Y9091879D01*
X4347108Y9093352D01*
X4344873Y9095587D01*
X4338828Y9103918D01*
X4329988Y9113062D01*
X4320032Y9120835D01*
X4309059Y9127185D01*
X4297273Y9131909D01*
X4284980Y9135008D01*
X4272381Y9136329D01*
X4259681Y9135872D01*
X4251299Y9134398D01*
X4248099Y9134348D01*
X4245000Y9135313D01*
X4242358Y9137243D01*
X4191457Y9188094D01*
X4184446Y9193377D01*
X4176877Y9197136D01*
X4168698Y9199473D01*
X4159808Y9200286D01*
X2395118Y9200235D01*
X2386380Y9199016D01*
X2378354Y9196324D01*
X2370937Y9192209D01*
X2364079Y9186519D01*
X2314854Y9137294D01*
X2312009Y9135313D01*
X2308707Y9134398D01*
X2291181Y9136329D01*
X2278481Y9135872D01*
X2265984Y9133687D01*
X2253945Y9129776D01*
X2242566Y9124188D01*
X2232050Y9117126D01*
X2222601Y9108643D01*
X2214473Y9098940D01*
X2207768Y9088170D01*
X2202586Y9076588D01*
X2199081Y9064396D01*
X2197354Y9051848D01*
X2197354Y9039148D01*
X2199081Y9026601D01*
X2202586Y9014409D01*
X2207768Y9002826D01*
X2214473Y8992057D01*
X2222601Y8982354D01*
X2232050Y8973870D01*
X2242566Y8966809D01*
X2253945Y8961221D01*
X2265984Y8957310D01*
X2278481Y8955125D01*
X2291181Y8954668D01*
X2303780Y8955989D01*
X2316073Y8959088D01*
X2327859Y8963812D01*
X2338832Y8970162D01*
X2348788Y8977934D01*
X2357628Y8987078D01*
X2365044Y8997340D01*
X2371039Y9008516D01*
X2375357Y9020454D01*
X2377998Y9032849D01*
X2378862Y9045498D01*
X2377998Y9058148D01*
X2376982Y9063024D01*
X2376830Y9066377D01*
X2377744Y9069578D01*
X2379726Y9072321D01*
X2412898Y9105493D01*
X2416200Y9107728D01*
X2420112Y9108490D01*
X2963316Y9108490D01*
X2967532Y9107576D01*
X2970987Y9105036D01*
X2973070Y9101277D01*
X2973374Y9096959D01*
X2971952Y9092946D01*
X2968955Y9088170D01*
X2963824Y9076588D01*
X2960319Y9064396D01*
X2958541Y9051848D01*
X2958541Y9039148D01*
X2960319Y9026601D01*
X2963824Y9014409D01*
X2968955Y9002826D01*
X2975660Y8992057D01*
X2983839Y8982354D01*
X2993237Y8973870D01*
X3003753Y8966809D01*
X3015183Y8961221D01*
X3027222Y8957310D01*
X3039719Y8955125D01*
X3052368Y8954668D01*
X3064967Y8955989D01*
X3077311Y8959088D01*
X3089046Y8963812D01*
X3100019Y8970162D01*
X3110026Y8977934D01*
X3118815Y8987078D01*
X3126282Y8997340D01*
X3132226Y9008516D01*
X3136544Y9020454D01*
X3139186Y9032849D01*
X3140100Y9045498D01*
X3139186Y9058148D01*
X3136544Y9070543D01*
X3132226Y9082481D01*
X3126333Y9093555D01*
X3125165Y9097518D01*
X3125724Y9101683D01*
X3127857Y9105239D01*
X3131261Y9107627D01*
X3135325Y9108490D01*
X4137050Y9108490D01*
X4140962Y9107728D01*
X4144264Y9105493D01*
X4177334Y9072422D01*
X4179163Y9069882D01*
X4180179Y9066936D01*
X4180230Y9063837D01*
X4178554Y9051848D01*
X4178554Y9039148D01*
X4180281Y9026601D01*
X4183786Y9014409D01*
X4188968Y9002826D01*
X4195673Y8992057D01*
X4203801Y8982354D01*
X4213250Y8973870D01*
X4223766Y8966809D01*
X4235145Y8961221D01*
X4247184Y8957310D01*
X4259681Y8955125D01*
X4272381Y8954668D01*
X4284980Y8955989D01*
X4297273Y8959088D01*
X4309059Y8963812D01*
X4320032Y8970162D01*
X4329988Y8977934D01*
X4338828Y8987078D01*
X4344873Y8995410D01*
X4347108Y8997645D01*
X4349953Y8999118D01*
X4353102Y8999575D01*
X5692394Y8999575D01*
X5696254Y8998813D01*
X5699556Y8996629D01*
X6642557Y8053628D01*
X6644690Y8050530D01*
X6645503Y8046821D01*
X6644944Y8043113D01*
X6643065Y8039862D01*
X6640118Y8037474D01*
X6626758Y8030413D01*
X6613093Y8021116D01*
X6600444Y8010398D01*
X6589064Y7998358D01*
X6579057Y7985201D01*
X6570522Y7971028D01*
X6569709Y7969250D01*
X6673850Y7969250D01*
X6673850Y8021116D01*
X6674612Y8025028D01*
X6676847Y8028330D01*
X6680098Y8030514D01*
X6684009Y8031276D01*
X6879590Y8031276D01*
X6883501Y8030514D01*
X6886752Y8028330D01*
X6888988Y8025028D01*
X6889750Y8021116D01*
X6889750Y7969250D01*
X6993890Y7969250D01*
X6993077Y7971028D01*
X6984542Y7985201D01*
X6974535Y7998358D01*
X6963156Y8010398D01*
X6959650Y8013395D01*
X6957110Y8016595D01*
X6956044Y8020558D01*
X6956653Y8024622D01*
X6958838Y8028127D01*
X6962190Y8030464D01*
X6966203Y8031276D01*
X7862824Y8031276D01*
X7866380Y8030667D01*
X7869478Y8028838D01*
X7871764Y8026044D01*
X7877759Y8015122D01*
X7886293Y8003336D01*
X7896250Y7992719D01*
X7907477Y7983423D01*
X7919770Y7975650D01*
X7932928Y7969453D01*
X7946796Y7964931D01*
X7961071Y7962239D01*
G37*
G36*
X6033160Y8047075D02*
G01*
X6076137Y8047075D01*
X6074460Y8050885D01*
X6067755Y8061604D01*
X6059627Y8071307D01*
X6050229Y8079790D01*
X6039713Y8086852D01*
X6033160Y8090052D01*
G37*
G36*
X5912561Y8047075D02*
G01*
X5955690Y8047075D01*
X5955690Y8090204D01*
X5954674Y8089798D01*
X5943701Y8083499D01*
X5933744Y8075726D01*
X5924956Y8066582D01*
X5917539Y8056372D01*
G37*
G36*
X7975600Y8215325D02*
G01*
X7990128Y8216239D01*
X8004403Y8218931D01*
X8018272Y8223453D01*
X8031429Y8229650D01*
X8043722Y8237423D01*
X8054949Y8246719D01*
X8064906Y8257336D01*
X8073440Y8269122D01*
X8080451Y8281873D01*
X8085836Y8295386D01*
X8089442Y8309508D01*
X8091271Y8323935D01*
X8091271Y8338464D01*
X8089442Y8352891D01*
X8085836Y8367014D01*
X8080451Y8380526D01*
X8073440Y8393277D01*
X8064906Y8405063D01*
X8054949Y8415680D01*
X8043722Y8424976D01*
X8031429Y8432749D01*
X8018272Y8438946D01*
X8004403Y8443468D01*
X7990128Y8446160D01*
X7975600Y8447074D01*
X7961071Y8446160D01*
X7946796Y8443468D01*
X7932928Y8438946D01*
X7919770Y8432749D01*
X7907477Y8424976D01*
X7896250Y8415680D01*
X7886293Y8405063D01*
X7877759Y8393277D01*
X7870748Y8380526D01*
X7865364Y8367014D01*
X7861757Y8352891D01*
X7859928Y8338464D01*
X7859928Y8323935D01*
X7861757Y8309508D01*
X7865364Y8295386D01*
X7870748Y8281873D01*
X7877759Y8269122D01*
X7886293Y8257336D01*
X7896250Y8246719D01*
X7907477Y8237423D01*
X7919770Y8229650D01*
X7932928Y8223453D01*
X7946796Y8218931D01*
X7961071Y8216239D01*
G37*
G36*
X8902700Y8215325D02*
G01*
X8917228Y8216239D01*
X8931503Y8218931D01*
X8945372Y8223453D01*
X8958529Y8229650D01*
X8970822Y8237423D01*
X8982049Y8246719D01*
X8992006Y8257336D01*
X9000540Y8269122D01*
X9007551Y8281873D01*
X9012936Y8295386D01*
X9016542Y8309508D01*
X9018371Y8323935D01*
X9018371Y8338464D01*
X9016542Y8352891D01*
X9012936Y8367014D01*
X9007551Y8380526D01*
X9000540Y8393277D01*
X8992006Y8405063D01*
X8982049Y8415680D01*
X8970822Y8424976D01*
X8958529Y8432749D01*
X8945372Y8438946D01*
X8931503Y8443468D01*
X8917228Y8446160D01*
X8902700Y8447074D01*
X8888171Y8446160D01*
X8873896Y8443468D01*
X8860028Y8438946D01*
X8846870Y8432749D01*
X8834577Y8424976D01*
X8823350Y8415680D01*
X8813393Y8405063D01*
X8804859Y8393277D01*
X8797848Y8380526D01*
X8792464Y8367014D01*
X8788857Y8352891D01*
X8787028Y8338464D01*
X8787028Y8323935D01*
X8788857Y8309508D01*
X8792464Y8295386D01*
X8797848Y8281873D01*
X8804859Y8269122D01*
X8813393Y8257336D01*
X8823350Y8246719D01*
X8834577Y8237423D01*
X8846870Y8229650D01*
X8860028Y8223453D01*
X8873896Y8218931D01*
X8888171Y8216239D01*
G37*
G36*
X7391400Y8241792D02*
G01*
X7405014Y8242706D01*
X7418374Y8245449D01*
X7431278Y8249920D01*
X7443419Y8256066D01*
X7454646Y8263788D01*
X7464806Y8272932D01*
X7473594Y8283346D01*
X7480909Y8294827D01*
X7486650Y8307222D01*
X7490714Y8320227D01*
X7492949Y8333689D01*
X7493406Y8347303D01*
X7492085Y8360867D01*
X7488885Y8374125D01*
X7484008Y8386876D01*
X7477455Y8398814D01*
X7469378Y8409787D01*
X7459878Y8419592D01*
X7449159Y8428075D01*
X7437424Y8435035D01*
X7424877Y8440318D01*
X7411720Y8443925D01*
X7398207Y8445754D01*
X7384592Y8445754D01*
X7371080Y8443925D01*
X7357922Y8440318D01*
X7345375Y8435035D01*
X7333640Y8428075D01*
X7322921Y8419592D01*
X7313422Y8409787D01*
X7305344Y8398814D01*
X7298791Y8386876D01*
X7293914Y8374125D01*
X7290714Y8360867D01*
X7289393Y8347303D01*
X7289850Y8333689D01*
X7292086Y8320227D01*
X7296150Y8307222D01*
X7301890Y8294827D01*
X7309205Y8283346D01*
X7317994Y8272932D01*
X7328153Y8263788D01*
X7339380Y8256066D01*
X7351522Y8249920D01*
X7364425Y8245449D01*
X7377785Y8242706D01*
G37*
G36*
X7645400Y8241792D02*
G01*
X7659014Y8242706D01*
X7672374Y8245449D01*
X7685278Y8249920D01*
X7697419Y8256066D01*
X7708646Y8263788D01*
X7718806Y8272932D01*
X7727594Y8283346D01*
X7734909Y8294827D01*
X7740650Y8307222D01*
X7744714Y8320227D01*
X7746949Y8333689D01*
X7747406Y8347303D01*
X7746085Y8360867D01*
X7742885Y8374125D01*
X7738008Y8386876D01*
X7731455Y8398814D01*
X7723378Y8409787D01*
X7713878Y8419592D01*
X7703159Y8428075D01*
X7691424Y8435035D01*
X7678877Y8440318D01*
X7665720Y8443925D01*
X7652207Y8445754D01*
X7638592Y8445754D01*
X7625080Y8443925D01*
X7611922Y8440318D01*
X7599375Y8435035D01*
X7587640Y8428075D01*
X7576921Y8419592D01*
X7567422Y8409787D01*
X7559344Y8398814D01*
X7552791Y8386876D01*
X7547914Y8374125D01*
X7544714Y8360867D01*
X7543393Y8347303D01*
X7543850Y8333689D01*
X7546086Y8320227D01*
X7550150Y8307222D01*
X7555890Y8294827D01*
X7563205Y8283346D01*
X7571994Y8272932D01*
X7582153Y8263788D01*
X7593380Y8256066D01*
X7605522Y8249920D01*
X7618425Y8245449D01*
X7631785Y8242706D01*
G37*
G36*
X6705853Y8254492D02*
G01*
X6857746Y8254492D01*
X6874509Y8255406D01*
X6890867Y8258098D01*
X6906818Y8262518D01*
X6922211Y8268614D01*
X6936841Y8276386D01*
X6950506Y8285683D01*
X6963156Y8296402D01*
X6974535Y8308441D01*
X6984542Y8321598D01*
X6993077Y8335772D01*
X7000036Y8350808D01*
X7005320Y8366506D01*
X7008875Y8382660D01*
X7010653Y8399119D01*
X7010653Y8415680D01*
X7008875Y8432139D01*
X7005320Y8448294D01*
X7000036Y8463991D01*
X6993077Y8479028D01*
X6984542Y8493201D01*
X6974535Y8506358D01*
X6963156Y8518398D01*
X6950506Y8529116D01*
X6936841Y8538413D01*
X6922211Y8546185D01*
X6906818Y8552281D01*
X6890867Y8556701D01*
X6874509Y8559393D01*
X6857746Y8560308D01*
X6705853Y8560308D01*
X6689090Y8559393D01*
X6672732Y8556701D01*
X6656781Y8552281D01*
X6641388Y8546185D01*
X6626758Y8538413D01*
X6613093Y8529116D01*
X6600444Y8518398D01*
X6589064Y8506358D01*
X6579057Y8493201D01*
X6570522Y8479028D01*
X6563563Y8463991D01*
X6558280Y8448294D01*
X6554724Y8432139D01*
X6552946Y8415680D01*
X6552946Y8399119D01*
X6554724Y8382660D01*
X6558280Y8366506D01*
X6563563Y8350808D01*
X6570522Y8335772D01*
X6579057Y8321598D01*
X6589064Y8308441D01*
X6600444Y8296402D01*
X6613093Y8285683D01*
X6626758Y8276386D01*
X6641388Y8268614D01*
X6656781Y8262518D01*
X6672732Y8258098D01*
X6689090Y8255406D01*
G37*
G36*
X2484577Y8343493D02*
G01*
X2498191Y8343950D01*
X2511653Y8346186D01*
X2524709Y8350250D01*
X2537053Y8355990D01*
X2548534Y8363305D01*
X2558948Y8372094D01*
X2568092Y8382253D01*
X2575814Y8393480D01*
X2581960Y8405622D01*
X2586431Y8418525D01*
X2589174Y8431885D01*
X2590088Y8445500D01*
X2589174Y8459114D01*
X2586431Y8472474D01*
X2581960Y8485378D01*
X2575814Y8497519D01*
X2568092Y8508746D01*
X2558948Y8518906D01*
X2548534Y8527694D01*
X2537053Y8535009D01*
X2524709Y8540750D01*
X2511653Y8544814D01*
X2498191Y8547049D01*
X2484577Y8547506D01*
X2471013Y8546185D01*
X2457754Y8542985D01*
X2445004Y8538108D01*
X2433066Y8531555D01*
X2422093Y8523478D01*
X2412288Y8513978D01*
X2403805Y8503259D01*
X2396896Y8491524D01*
X2391562Y8478977D01*
X2387955Y8465820D01*
X2386126Y8452307D01*
X2386126Y8438692D01*
X2387955Y8425180D01*
X2391562Y8412022D01*
X2396896Y8399475D01*
X2403805Y8387740D01*
X2412288Y8377021D01*
X2422093Y8367522D01*
X2433066Y8359444D01*
X2445004Y8352891D01*
X2457754Y8348014D01*
X2471013Y8344814D01*
G37*
G36*
X4465777Y8343493D02*
G01*
X4479391Y8343950D01*
X4492853Y8346186D01*
X4505909Y8350250D01*
X4518253Y8355990D01*
X4529734Y8363305D01*
X4540148Y8372094D01*
X4549292Y8382253D01*
X4557014Y8393480D01*
X4563160Y8405622D01*
X4567631Y8418525D01*
X4570374Y8431885D01*
X4571288Y8445500D01*
X4570374Y8459114D01*
X4567631Y8472474D01*
X4563160Y8485378D01*
X4557014Y8497519D01*
X4549292Y8508746D01*
X4540148Y8518906D01*
X4529734Y8527694D01*
X4518253Y8535009D01*
X4505909Y8540750D01*
X4492853Y8544814D01*
X4479391Y8547049D01*
X4465777Y8547506D01*
X4452213Y8546185D01*
X4438954Y8542985D01*
X4426204Y8538108D01*
X4414266Y8531555D01*
X4403293Y8523478D01*
X4393488Y8513978D01*
X4385005Y8503259D01*
X4378096Y8491524D01*
X4372762Y8478977D01*
X4369155Y8465820D01*
X4367326Y8452307D01*
X4367326Y8438692D01*
X4369155Y8425180D01*
X4372762Y8412022D01*
X4378096Y8399475D01*
X4385005Y8387740D01*
X4393488Y8377021D01*
X4403293Y8367522D01*
X4414266Y8359444D01*
X4426204Y8352891D01*
X4438954Y8348014D01*
X4452213Y8344814D01*
G37*
G36*
X7975600Y8469325D02*
G01*
X7990128Y8470239D01*
X8004403Y8472932D01*
X8018272Y8477453D01*
X8031429Y8483650D01*
X8043722Y8491423D01*
X8054949Y8500719D01*
X8064906Y8511336D01*
X8073440Y8523122D01*
X8080451Y8535873D01*
X8085836Y8549386D01*
X8089442Y8563508D01*
X8091271Y8577935D01*
X8091271Y8592464D01*
X8089442Y8606891D01*
X8085836Y8621014D01*
X8080451Y8634526D01*
X8073440Y8647277D01*
X8064906Y8659063D01*
X8054949Y8669680D01*
X8043722Y8678976D01*
X8031429Y8686749D01*
X8018272Y8692946D01*
X8004403Y8697468D01*
X7990128Y8700160D01*
X7975600Y8701074D01*
X7961071Y8700160D01*
X7946796Y8697468D01*
X7932928Y8692946D01*
X7919770Y8686749D01*
X7907477Y8678976D01*
X7896250Y8669680D01*
X7886293Y8659063D01*
X7877759Y8647277D01*
X7870748Y8634526D01*
X7865364Y8621014D01*
X7861757Y8606891D01*
X7859928Y8592464D01*
X7859928Y8577935D01*
X7861757Y8563508D01*
X7865364Y8549386D01*
X7870748Y8535873D01*
X7877759Y8523122D01*
X7886293Y8511336D01*
X7896250Y8500719D01*
X7907477Y8491423D01*
X7919770Y8483650D01*
X7932928Y8477453D01*
X7946796Y8472932D01*
X7961071Y8470239D01*
G37*
G36*
X8902700Y8469325D02*
G01*
X8917228Y8470239D01*
X8931503Y8472932D01*
X8945372Y8477453D01*
X8958529Y8483650D01*
X8970822Y8491423D01*
X8982049Y8500719D01*
X8992006Y8511336D01*
X9000540Y8523122D01*
X9007551Y8535873D01*
X9012936Y8549386D01*
X9016542Y8563508D01*
X9018371Y8577935D01*
X9018371Y8592464D01*
X9016542Y8606891D01*
X9012936Y8621014D01*
X9007551Y8634526D01*
X9000540Y8647277D01*
X8992006Y8659063D01*
X8982049Y8669680D01*
X8970822Y8678976D01*
X8958529Y8686749D01*
X8945372Y8692946D01*
X8931503Y8697468D01*
X8917228Y8700160D01*
X8902700Y8701074D01*
X8888171Y8700160D01*
X8873896Y8697468D01*
X8860028Y8692946D01*
X8846870Y8686749D01*
X8834577Y8678976D01*
X8823350Y8669680D01*
X8813393Y8659063D01*
X8804859Y8647277D01*
X8797848Y8634526D01*
X8792464Y8621014D01*
X8788857Y8606891D01*
X8787028Y8592464D01*
X8787028Y8577935D01*
X8788857Y8563508D01*
X8792464Y8549386D01*
X8797848Y8535873D01*
X8804859Y8523122D01*
X8813393Y8511336D01*
X8823350Y8500719D01*
X8834577Y8491423D01*
X8846870Y8483650D01*
X8860028Y8477453D01*
X8873896Y8472932D01*
X8888171Y8470239D01*
G37*
G36*
X7975600Y8723325D02*
G01*
X7990128Y8724239D01*
X8004403Y8726932D01*
X8018272Y8731453D01*
X8031429Y8737650D01*
X8043722Y8745423D01*
X8054949Y8754719D01*
X8064906Y8765336D01*
X8073440Y8777122D01*
X8080451Y8789873D01*
X8085836Y8803386D01*
X8089442Y8817508D01*
X8091271Y8831935D01*
X8091271Y8846464D01*
X8089442Y8860891D01*
X8085836Y8875014D01*
X8080451Y8888526D01*
X8073440Y8901277D01*
X8064906Y8913063D01*
X8054949Y8923680D01*
X8043722Y8932976D01*
X8031429Y8940749D01*
X8018272Y8946946D01*
X8004403Y8951468D01*
X7990128Y8954160D01*
X7975600Y8955074D01*
X7961071Y8954160D01*
X7946796Y8951468D01*
X7932928Y8946946D01*
X7919770Y8940749D01*
X7907477Y8932976D01*
X7896250Y8923680D01*
X7886293Y8913063D01*
X7877759Y8901277D01*
X7870748Y8888526D01*
X7865364Y8875014D01*
X7861757Y8860891D01*
X7859928Y8846464D01*
X7859928Y8831935D01*
X7861757Y8817508D01*
X7865364Y8803386D01*
X7870748Y8789873D01*
X7877759Y8777122D01*
X7886293Y8765336D01*
X7896250Y8754719D01*
X7907477Y8745423D01*
X7919770Y8737650D01*
X7932928Y8731453D01*
X7946796Y8726932D01*
X7961071Y8724239D01*
G37*
G36*
X8902700Y8723325D02*
G01*
X8917228Y8724239D01*
X8931503Y8726932D01*
X8945372Y8731453D01*
X8958529Y8737650D01*
X8970822Y8745423D01*
X8982049Y8754719D01*
X8992006Y8765336D01*
X9000540Y8777122D01*
X9007551Y8789873D01*
X9012936Y8803386D01*
X9016542Y8817508D01*
X9018371Y8831935D01*
X9018371Y8846464D01*
X9016542Y8860891D01*
X9012936Y8875014D01*
X9007551Y8888526D01*
X9000540Y8901277D01*
X8992006Y8913063D01*
X8982049Y8923680D01*
X8970822Y8932976D01*
X8958529Y8940749D01*
X8945372Y8946946D01*
X8931503Y8951468D01*
X8917228Y8954160D01*
X8902700Y8955074D01*
X8888171Y8954160D01*
X8873896Y8951468D01*
X8860028Y8946946D01*
X8855354Y8945676D01*
X8851290Y8946388D01*
X8847836Y8948623D01*
X8549335Y9247124D01*
X8543137Y9252254D01*
X8536432Y9255810D01*
X8529218Y9257995D01*
X8521192Y9258808D01*
X8074304Y9258808D01*
X8069935Y9259773D01*
X8066430Y9262516D01*
X8064449Y9266428D01*
X8064296Y9270847D01*
X8066074Y9274962D01*
X8073440Y9285122D01*
X8079333Y9295841D01*
X8026958Y9295841D01*
X8026958Y9268968D01*
X8026196Y9265056D01*
X8023961Y9261805D01*
X8020659Y9259570D01*
X8016798Y9258808D01*
X7934401Y9258808D01*
X7930540Y9259570D01*
X7927238Y9261805D01*
X7925003Y9265056D01*
X7924241Y9268968D01*
X7924241Y9295841D01*
X7871866Y9295841D01*
X7877759Y9285122D01*
X7885125Y9274962D01*
X7886903Y9270847D01*
X7886750Y9266428D01*
X7884769Y9262516D01*
X7881264Y9259773D01*
X7876895Y9258808D01*
X7153605Y9258808D01*
X7149744Y9259570D01*
X7146442Y9261805D01*
X7144816Y9263380D01*
X7136790Y9269018D01*
X7127900Y9273184D01*
X7118400Y9275724D01*
X7108596Y9276588D01*
X7098792Y9275724D01*
X7089292Y9273184D01*
X7080402Y9269018D01*
X7072375Y9263380D01*
X7065416Y9256420D01*
X7059777Y9248394D01*
X7055612Y9239504D01*
X7053072Y9230004D01*
X7052208Y9220200D01*
X7053072Y9210395D01*
X7055612Y9200896D01*
X7059777Y9192006D01*
X7065416Y9183979D01*
X7072375Y9177020D01*
X7080402Y9171381D01*
X7089292Y9167215D01*
X7098792Y9164675D01*
X7108596Y9163812D01*
X7118400Y9164675D01*
X7127900Y9167215D01*
X7136790Y9171381D01*
X7144816Y9177020D01*
X7146442Y9178594D01*
X7149744Y9180830D01*
X7153605Y9181592D01*
X7876895Y9181592D01*
X7881264Y9180626D01*
X7884769Y9177883D01*
X7886750Y9173972D01*
X7886903Y9169552D01*
X7885125Y9165437D01*
X7877759Y9155277D01*
X7870748Y9142526D01*
X7865364Y9129014D01*
X7861757Y9114891D01*
X7859928Y9100464D01*
X7859928Y9085935D01*
X7861757Y9071508D01*
X7865364Y9057386D01*
X7870748Y9043873D01*
X7877759Y9031122D01*
X7886293Y9019336D01*
X7896250Y9008719D01*
X7907477Y8999423D01*
X7919770Y8991650D01*
X7932928Y8985453D01*
X7946796Y8980932D01*
X7961071Y8978239D01*
X7975600Y8977325D01*
X7990128Y8978239D01*
X8004403Y8980932D01*
X8018272Y8985453D01*
X8031429Y8991650D01*
X8043722Y8999423D01*
X8054949Y9008719D01*
X8064906Y9019336D01*
X8073440Y9031122D01*
X8080451Y9043873D01*
X8085836Y9057386D01*
X8089442Y9071508D01*
X8091271Y9085935D01*
X8091271Y9100464D01*
X8089442Y9114891D01*
X8085836Y9129014D01*
X8080451Y9142526D01*
X8073440Y9155277D01*
X8066074Y9165437D01*
X8064296Y9169552D01*
X8064449Y9173972D01*
X8066430Y9177883D01*
X8069935Y9180626D01*
X8074304Y9181592D01*
X8501481Y9181592D01*
X8505393Y9180830D01*
X8508695Y9178594D01*
X8793378Y8893911D01*
X8795562Y8890660D01*
X8796375Y8886850D01*
X8795664Y8882989D01*
X8792464Y8875014D01*
X8788857Y8860891D01*
X8787028Y8846464D01*
X8787028Y8831935D01*
X8788857Y8817508D01*
X8792464Y8803386D01*
X8797848Y8789873D01*
X8804859Y8777122D01*
X8813393Y8765336D01*
X8823350Y8754719D01*
X8834577Y8745423D01*
X8846870Y8737650D01*
X8860028Y8731453D01*
X8873896Y8726932D01*
X8888171Y8724239D01*
G37*
G36*
X6705853Y8762492D02*
G01*
X6857746Y8762492D01*
X6874509Y8763406D01*
X6890867Y8766098D01*
X6906818Y8770518D01*
X6922211Y8776614D01*
X6936841Y8784386D01*
X6950506Y8793683D01*
X6963156Y8804402D01*
X6974535Y8816441D01*
X6984542Y8829598D01*
X6993077Y8843772D01*
X7000036Y8858808D01*
X7005320Y8874506D01*
X7008875Y8890660D01*
X7010653Y8907119D01*
X7010653Y8923680D01*
X7008875Y8940139D01*
X7005320Y8956294D01*
X7000036Y8971991D01*
X6993077Y8987028D01*
X6984542Y9001201D01*
X6974535Y9014358D01*
X6963156Y9026398D01*
X6950506Y9037116D01*
X6936841Y9046413D01*
X6922211Y9054185D01*
X6906818Y9060281D01*
X6890867Y9064701D01*
X6874509Y9067393D01*
X6857746Y9068308D01*
X6705853Y9068308D01*
X6689090Y9067393D01*
X6672732Y9064701D01*
X6656781Y9060281D01*
X6641388Y9054185D01*
X6626758Y9046413D01*
X6613093Y9037116D01*
X6600444Y9026398D01*
X6589064Y9014358D01*
X6579057Y9001201D01*
X6570522Y8987028D01*
X6563563Y8971991D01*
X6558280Y8956294D01*
X6554724Y8940139D01*
X6552946Y8923680D01*
X6552946Y8907119D01*
X6554724Y8890660D01*
X6558280Y8874506D01*
X6563563Y8858808D01*
X6570522Y8843772D01*
X6579057Y8829598D01*
X6589064Y8816441D01*
X6600444Y8804402D01*
X6613093Y8793683D01*
X6626758Y8784386D01*
X6641388Y8776614D01*
X6656781Y8770518D01*
X6672732Y8766098D01*
X6689090Y8763406D01*
G37*
G36*
X1071168Y8954668D02*
G01*
X1083767Y8955989D01*
X1096111Y8959088D01*
X1107846Y8963812D01*
X1118819Y8970162D01*
X1128826Y8977934D01*
X1137615Y8987078D01*
X1145082Y8997340D01*
X1151026Y9008516D01*
X1155344Y9020454D01*
X1157986Y9032849D01*
X1158900Y9045498D01*
X1157986Y9058148D01*
X1155344Y9070543D01*
X1151026Y9082481D01*
X1145082Y9093657D01*
X1137615Y9103918D01*
X1128826Y9113062D01*
X1118819Y9120835D01*
X1107846Y9127185D01*
X1096111Y9131909D01*
X1083767Y9135008D01*
X1071168Y9136329D01*
X1058519Y9135872D01*
X1046022Y9133687D01*
X1033983Y9129776D01*
X1022553Y9124188D01*
X1012037Y9117126D01*
X1002639Y9108643D01*
X994460Y9098940D01*
X987755Y9088170D01*
X982624Y9076588D01*
X979119Y9064396D01*
X977341Y9051848D01*
X977341Y9039148D01*
X979119Y9026601D01*
X982624Y9014409D01*
X987755Y9002826D01*
X994460Y8992057D01*
X1002639Y8982354D01*
X1012037Y8973870D01*
X1022553Y8966809D01*
X1033983Y8961221D01*
X1046022Y8957310D01*
X1058519Y8955125D01*
G37*
G36*
X2288235Y9333128D02*
G01*
X2302764Y9333128D01*
X2317191Y9334957D01*
X2331313Y9338564D01*
X2344826Y9343948D01*
X2357577Y9350959D01*
X2369362Y9359493D01*
X2379980Y9369450D01*
X2389225Y9380677D01*
X2397048Y9392970D01*
X2403246Y9406128D01*
X2407716Y9419996D01*
X2410460Y9434271D01*
X2411374Y9448800D01*
X2410460Y9463328D01*
X2407716Y9477603D01*
X2403246Y9491472D01*
X2397048Y9504629D01*
X2389225Y9516922D01*
X2379980Y9528149D01*
X2369362Y9538106D01*
X2357577Y9546640D01*
X2344826Y9553651D01*
X2331313Y9559036D01*
X2317191Y9562642D01*
X2302764Y9564471D01*
X2288235Y9564471D01*
X2273757Y9562642D01*
X2259685Y9559036D01*
X2246172Y9553651D01*
X2233422Y9546640D01*
X2221636Y9538106D01*
X2211019Y9528149D01*
X2201722Y9516922D01*
X2193950Y9504629D01*
X2187752Y9491472D01*
X2183231Y9477603D01*
X2180539Y9463328D01*
X2179624Y9448800D01*
X2180539Y9434271D01*
X2183231Y9419996D01*
X2187752Y9406128D01*
X2193950Y9392970D01*
X2201722Y9380677D01*
X2211019Y9369450D01*
X2221636Y9359493D01*
X2233422Y9350959D01*
X2246172Y9343948D01*
X2259685Y9338564D01*
X2273757Y9334957D01*
G37*
G36*
X3158236Y9333128D02*
G01*
X3172764Y9333128D01*
X3187242Y9334957D01*
X3201314Y9338564D01*
X3214827Y9343948D01*
X3227578Y9350959D01*
X3239363Y9359493D01*
X3249980Y9369450D01*
X3259277Y9380677D01*
X3267049Y9392970D01*
X3273247Y9406128D01*
X3277768Y9419996D01*
X3280460Y9434271D01*
X3281375Y9448800D01*
X3280460Y9463328D01*
X3277768Y9477603D01*
X3273247Y9491472D01*
X3267049Y9504629D01*
X3259277Y9516922D01*
X3249980Y9528149D01*
X3239363Y9538106D01*
X3227578Y9546640D01*
X3214827Y9553651D01*
X3201314Y9559036D01*
X3187242Y9562642D01*
X3172764Y9564471D01*
X3158236Y9564471D01*
X3143808Y9562642D01*
X3129686Y9559036D01*
X3116173Y9553651D01*
X3103422Y9546640D01*
X3091637Y9538106D01*
X3081020Y9528149D01*
X3071774Y9516922D01*
X3063951Y9504629D01*
X3057753Y9491472D01*
X3053283Y9477603D01*
X3050540Y9463328D01*
X3049625Y9448800D01*
X3050540Y9434271D01*
X3053283Y9419996D01*
X3057753Y9406128D01*
X3063951Y9392970D01*
X3071774Y9380677D01*
X3081020Y9369450D01*
X3091637Y9359493D01*
X3103422Y9350959D01*
X3116173Y9343948D01*
X3129686Y9338564D01*
X3143808Y9334957D01*
G37*
G36*
X7871866Y9398558D02*
G01*
X7924241Y9398558D01*
X7924241Y9450882D01*
X7919770Y9448749D01*
X7907477Y9440976D01*
X7896250Y9431680D01*
X7886293Y9421063D01*
X7877759Y9409277D01*
G37*
G36*
X8026958Y9398558D02*
G01*
X8079333Y9398558D01*
X8073440Y9409277D01*
X8064906Y9421063D01*
X8054949Y9431680D01*
X8043722Y9440976D01*
X8031429Y9448749D01*
X8026958Y9450882D01*
G37*
G36*
X3433622Y9430613D02*
G01*
X7335164Y9430613D01*
X7343190Y9431426D01*
X7350404Y9433610D01*
X7357059Y9437166D01*
X7363307Y9442297D01*
X7920736Y9999776D01*
X7924190Y10002012D01*
X7928254Y10002723D01*
X7932928Y10001453D01*
X7946796Y9996932D01*
X7961071Y9994239D01*
X7975600Y9993325D01*
X7990128Y9994239D01*
X8004403Y9996932D01*
X8018272Y10001453D01*
X8031429Y10007650D01*
X8043722Y10015423D01*
X8054949Y10024719D01*
X8064906Y10035336D01*
X8073440Y10047122D01*
X8080451Y10059873D01*
X8085836Y10073386D01*
X8089442Y10087508D01*
X8091271Y10101935D01*
X8091271Y10116464D01*
X8089442Y10130891D01*
X8085836Y10145014D01*
X8080451Y10158526D01*
X8073440Y10171277D01*
X8064906Y10183063D01*
X8054949Y10193680D01*
X8043722Y10202976D01*
X8031429Y10210749D01*
X8018272Y10216946D01*
X8004403Y10221468D01*
X7990128Y10224160D01*
X7975600Y10225074D01*
X7961071Y10224160D01*
X7946796Y10221468D01*
X7932928Y10216946D01*
X7919770Y10210749D01*
X7907477Y10202976D01*
X7896250Y10193680D01*
X7886293Y10183063D01*
X7877759Y10171277D01*
X7870748Y10158526D01*
X7865364Y10145014D01*
X7861757Y10130891D01*
X7859928Y10116464D01*
X7859928Y10101935D01*
X7861757Y10087508D01*
X7865364Y10073386D01*
X7868564Y10065410D01*
X7869275Y10061549D01*
X7868462Y10057739D01*
X7866278Y10054488D01*
X7322616Y9510826D01*
X7319314Y9508642D01*
X7315453Y9507829D01*
X5431688Y9507829D01*
X5427929Y9508591D01*
X5424728Y9510623D01*
X5422493Y9513671D01*
X5421528Y9517380D01*
X5422036Y9521139D01*
X5423865Y9524492D01*
X5430977Y9533077D01*
X5438749Y9545370D01*
X5444947Y9558528D01*
X5449468Y9572396D01*
X5452160Y9586671D01*
X5453075Y9601200D01*
X5452160Y9615728D01*
X5449468Y9630003D01*
X5444947Y9643872D01*
X5438749Y9657029D01*
X5430977Y9669322D01*
X5421680Y9680549D01*
X5411063Y9690506D01*
X5399278Y9699040D01*
X5386527Y9706051D01*
X5373014Y9711436D01*
X5358942Y9715042D01*
X5344464Y9716871D01*
X5329936Y9716871D01*
X5315508Y9715042D01*
X5303672Y9711994D01*
X5300014Y9711740D01*
X5296509Y9712807D01*
X5293614Y9715093D01*
X5291683Y9718243D01*
X5291023Y9721850D01*
X5291023Y10387939D01*
X5291582Y10391292D01*
X5293207Y10394289D01*
X5296204Y10396829D01*
X5300319Y10400893D01*
X5303367Y10405821D01*
X5305298Y10411256D01*
X5306009Y10417606D01*
X5306009Y10541457D01*
X5305298Y10547807D01*
X5303367Y10553242D01*
X5300319Y10558170D01*
X5297220Y10561269D01*
X5294985Y10564520D01*
X5294223Y10568432D01*
X5294985Y10572343D01*
X5297220Y10575594D01*
X5300522Y10577830D01*
X5304383Y10578592D01*
X7859572Y10578592D01*
X7863535Y10577779D01*
X7866837Y10575544D01*
X7869021Y10572191D01*
X7870748Y10567873D01*
X7877759Y10555122D01*
X7886293Y10543336D01*
X7896250Y10532719D01*
X7907477Y10523423D01*
X7919770Y10515650D01*
X7932928Y10509453D01*
X7946796Y10504932D01*
X7961071Y10502239D01*
X7975600Y10501325D01*
X7990128Y10502239D01*
X8004403Y10504932D01*
X8018272Y10509453D01*
X8031429Y10515650D01*
X8043722Y10523423D01*
X8054949Y10532719D01*
X8064906Y10543336D01*
X8073440Y10555122D01*
X8080451Y10567873D01*
X8085836Y10581386D01*
X8089442Y10595508D01*
X8091271Y10609935D01*
X8091271Y10624464D01*
X8089442Y10638891D01*
X8085836Y10653014D01*
X8080451Y10666526D01*
X8073440Y10679277D01*
X8064906Y10691063D01*
X8054949Y10701680D01*
X8043722Y10710976D01*
X8031429Y10718749D01*
X8018272Y10724946D01*
X8004403Y10729468D01*
X7990128Y10732160D01*
X7975600Y10733074D01*
X7961071Y10732160D01*
X7946796Y10729468D01*
X7932928Y10724946D01*
X7919770Y10718749D01*
X7907477Y10710976D01*
X7896250Y10701680D01*
X7886293Y10691063D01*
X7877759Y10679277D01*
X7870748Y10666526D01*
X7869021Y10662208D01*
X7866837Y10658856D01*
X7863535Y10656620D01*
X7859572Y10655808D01*
X5411063Y10655808D01*
X5406898Y10656671D01*
X5403494Y10659211D01*
X5401360Y10662869D01*
X5401005Y10667542D01*
X5401005Y10791393D01*
X5400294Y10797743D01*
X5398363Y10803178D01*
X5395315Y10808106D01*
X5388203Y10814710D01*
X5386578Y10817707D01*
X5386019Y10821060D01*
X5385968Y11935206D01*
X5384749Y11943943D01*
X5382056Y11951970D01*
X5377942Y11959386D01*
X5372201Y11966244D01*
X5345023Y11993473D01*
X5342788Y11996775D01*
X5342026Y12000636D01*
X5342788Y12004548D01*
X5345023Y12007850D01*
X5346598Y12009424D01*
X5349697Y12014352D01*
X5351576Y12019788D01*
X5352288Y12026138D01*
X5352288Y12068302D01*
X5353100Y12072162D01*
X5355285Y12075464D01*
X5358587Y12077700D01*
X5362448Y12078462D01*
X5366359Y12077700D01*
X5369661Y12075464D01*
X5965901Y11479276D01*
X5972098Y11474145D01*
X5978804Y11470589D01*
X5986018Y11468404D01*
X5994044Y11467592D01*
X7876895Y11467592D01*
X7881264Y11466626D01*
X7884769Y11463883D01*
X7886750Y11459972D01*
X7886903Y11455552D01*
X7885125Y11451437D01*
X7877759Y11441277D01*
X7870748Y11428526D01*
X7865364Y11415014D01*
X7861757Y11400891D01*
X7859928Y11386464D01*
X7859928Y11371935D01*
X7861757Y11357508D01*
X7865364Y11343386D01*
X7870748Y11329873D01*
X7877759Y11317122D01*
X7886293Y11305336D01*
X7896250Y11294719D01*
X7907477Y11285423D01*
X7919770Y11277650D01*
X7932928Y11271453D01*
X7946796Y11266932D01*
X7961071Y11264239D01*
X7975600Y11263325D01*
X7990128Y11264239D01*
X8004403Y11266932D01*
X8018272Y11271453D01*
X8031429Y11277650D01*
X8043722Y11285423D01*
X8054949Y11294719D01*
X8064906Y11305336D01*
X8073440Y11317122D01*
X8080451Y11329873D01*
X8085836Y11343386D01*
X8089442Y11357508D01*
X8091271Y11371935D01*
X8091271Y11386464D01*
X8089442Y11400891D01*
X8085836Y11415014D01*
X8080451Y11428526D01*
X8073440Y11441277D01*
X8066074Y11451437D01*
X8064296Y11455552D01*
X8064449Y11459972D01*
X8066430Y11463883D01*
X8069935Y11466626D01*
X8074304Y11467592D01*
X8755481Y11467592D01*
X8759393Y11466830D01*
X8762695Y11464594D01*
X8793378Y11433911D01*
X8795562Y11430660D01*
X8796375Y11426850D01*
X8795664Y11422989D01*
X8792464Y11415014D01*
X8788857Y11400891D01*
X8787028Y11386464D01*
X8787028Y11371935D01*
X8788857Y11357508D01*
X8792464Y11343386D01*
X8797848Y11329873D01*
X8804859Y11317122D01*
X8813393Y11305336D01*
X8823350Y11294719D01*
X8834577Y11285423D01*
X8846870Y11277650D01*
X8860028Y11271453D01*
X8873896Y11266932D01*
X8888171Y11264239D01*
X8902700Y11263325D01*
X8917228Y11264239D01*
X8931503Y11266932D01*
X8945372Y11271453D01*
X8958529Y11277650D01*
X8970822Y11285423D01*
X8982049Y11294719D01*
X8992006Y11305336D01*
X9000540Y11317122D01*
X9007551Y11329873D01*
X9012936Y11343386D01*
X9016542Y11357508D01*
X9018371Y11371935D01*
X9018371Y11386464D01*
X9016542Y11400891D01*
X9012936Y11415014D01*
X9007551Y11428526D01*
X9000540Y11441277D01*
X8992006Y11453063D01*
X8982049Y11463680D01*
X8970822Y11472976D01*
X8958529Y11480749D01*
X8945372Y11486946D01*
X8931503Y11491468D01*
X8917228Y11494160D01*
X8902700Y11495074D01*
X8888171Y11494160D01*
X8873896Y11491468D01*
X8860028Y11486946D01*
X8855354Y11485676D01*
X8851290Y11486388D01*
X8847836Y11488623D01*
X8803335Y11533124D01*
X8797137Y11538254D01*
X8790432Y11541810D01*
X8783218Y11543995D01*
X8775192Y11544808D01*
X8074304Y11544808D01*
X8069935Y11545773D01*
X8066430Y11548516D01*
X8064449Y11552428D01*
X8064296Y11556847D01*
X8066074Y11560962D01*
X8073440Y11571122D01*
X8080451Y11583873D01*
X8085836Y11597386D01*
X8089442Y11611508D01*
X8091271Y11625935D01*
X8091271Y11640464D01*
X8089442Y11654891D01*
X8085836Y11669014D01*
X8080451Y11682526D01*
X8073440Y11695277D01*
X8064906Y11707063D01*
X8054949Y11717680D01*
X8043722Y11726976D01*
X8031429Y11734749D01*
X8018272Y11740946D01*
X8004403Y11745468D01*
X7990128Y11748160D01*
X7975600Y11749074D01*
X7961071Y11748160D01*
X7946796Y11745468D01*
X7932928Y11740946D01*
X7919770Y11734749D01*
X7907477Y11726976D01*
X7896250Y11717680D01*
X7886293Y11707063D01*
X7877759Y11695277D01*
X7870748Y11682526D01*
X7869021Y11678208D01*
X7866837Y11674856D01*
X7863535Y11672620D01*
X7859572Y11671808D01*
X6925868Y11671808D01*
X6922465Y11672417D01*
X6919417Y11674094D01*
X6914743Y11677954D01*
X6908088Y11681510D01*
X6896709Y11684812D01*
X6893763Y11687048D01*
X6891781Y11690248D01*
X6891121Y11693906D01*
X6891121Y11723624D01*
X6890410Y11729974D01*
X6888480Y11735409D01*
X6885381Y11740337D01*
X6881317Y11744401D01*
X6876389Y11747500D01*
X6870953Y11749379D01*
X6864654Y11750090D01*
X6804253Y11750090D01*
X6800342Y11750903D01*
X6797040Y11753088D01*
X6270447Y12279731D01*
X6268212Y12283033D01*
X6267450Y12286894D01*
X6267450Y12325350D01*
X6211316Y12325350D01*
X6208623Y12324029D01*
X6205626Y12323572D01*
X5219801Y12323572D01*
X5211775Y12322810D01*
X5204561Y12320625D01*
X5197856Y12317069D01*
X5191658Y12311938D01*
X5184902Y12305182D01*
X5179771Y12298984D01*
X5176215Y12292279D01*
X5174030Y12285065D01*
X5173268Y12277039D01*
X5173268Y12244374D01*
X5172456Y12240514D01*
X5170271Y12237212D01*
X4516628Y11583568D01*
X4513376Y11581384D01*
X4509465Y11580622D01*
X4505553Y11581384D01*
X4502302Y11583568D01*
X4500067Y11586870D01*
X4499305Y11590782D01*
X4499305Y11654993D01*
X4498594Y11661343D01*
X4496663Y11666778D01*
X4494276Y11670588D01*
X4493006Y11673738D01*
X4492802Y11677142D01*
X4493717Y11680393D01*
X4495698Y11683187D01*
X4636820Y11824258D01*
X4639157Y11826036D01*
X4641900Y11827002D01*
X4647285Y11828170D01*
X4651197Y11829491D01*
X4655108Y11831218D01*
X4658817Y11833250D01*
X4662271Y11835638D01*
X4665573Y11838381D01*
X4668570Y11841378D01*
X4671263Y11844629D01*
X4673650Y11848134D01*
X4675733Y11851843D01*
X4677410Y11855704D01*
X4678781Y11859717D01*
X4679746Y11863832D01*
X4680305Y11867997D01*
X4680559Y11875363D01*
X4681169Y11878614D01*
X4682845Y11881459D01*
X4685284Y11883694D01*
X4691075Y11887301D01*
X4695139Y11891365D01*
X4698238Y11896293D01*
X4700168Y11901728D01*
X4700879Y11908078D01*
X4700879Y11993321D01*
X4700168Y11999671D01*
X4698238Y12005106D01*
X4695139Y12010034D01*
X4691075Y12014098D01*
X4686147Y12017197D01*
X4680712Y12019076D01*
X4674362Y12019788D01*
X4594860Y12019788D01*
X4588560Y12019076D01*
X4583074Y12017197D01*
X4578197Y12014098D01*
X4574082Y12010034D01*
X4571034Y12005106D01*
X4568901Y11999061D01*
X4566767Y11995505D01*
X4563364Y11993067D01*
X4559300Y11992254D01*
X4555236Y11993067D01*
X4551832Y11995505D01*
X4549698Y11999061D01*
X4547565Y12005106D01*
X4544517Y12010034D01*
X4540402Y12014098D01*
X4535525Y12017197D01*
X4530039Y12019076D01*
X4523740Y12019788D01*
X4444238Y12019788D01*
X4437888Y12019076D01*
X4432452Y12017197D01*
X4427524Y12014098D01*
X4423460Y12010034D01*
X4420362Y12005106D01*
X4418431Y11999671D01*
X4417720Y11993321D01*
X4417720Y11908078D01*
X4418431Y11901830D01*
X4421073Y11894820D01*
X4421682Y11890857D01*
X4420717Y11886996D01*
X4416704Y11878411D01*
X4414164Y11868912D01*
X4413300Y11859107D01*
X4414164Y11849303D01*
X4416704Y11839803D01*
X4420870Y11830913D01*
X4426508Y11822887D01*
X4433468Y11815927D01*
X4441494Y11810288D01*
X4450384Y11806123D01*
X4459884Y11803583D01*
X4462475Y11803380D01*
X4466132Y11802313D01*
X4469180Y11800027D01*
X4471111Y11796725D01*
X4471720Y11792966D01*
X4470908Y11789206D01*
X4468774Y11786057D01*
X4404715Y11721947D01*
X4399381Y11714937D01*
X4395622Y11707368D01*
X4393285Y11699087D01*
X4392523Y11692737D01*
X4392472Y11684609D01*
X4391914Y11681256D01*
X4390237Y11678310D01*
X4387291Y11675770D01*
X4383176Y11671706D01*
X4380128Y11666778D01*
X4378198Y11661343D01*
X4377486Y11654993D01*
X4377486Y11551158D01*
X4376724Y11547297D01*
X4374489Y11543995D01*
X4371238Y11541810D01*
X4367326Y11540998D01*
X4319473Y11540998D01*
X4315561Y11541810D01*
X4312310Y11543995D01*
X4310075Y11547297D01*
X4309313Y11551158D01*
X4309313Y11555476D01*
X4272229Y11555476D01*
X4272229Y11551158D01*
X4271467Y11547297D01*
X4269282Y11543995D01*
X4265980Y11541810D01*
X4262069Y11540998D01*
X4234738Y11540998D01*
X4230827Y11541810D01*
X4227525Y11543995D01*
X4225340Y11547297D01*
X4224578Y11551158D01*
X4224578Y11555476D01*
X4187494Y11555476D01*
X4187494Y11551158D01*
X4186732Y11547297D01*
X4184497Y11543995D01*
X4181246Y11541810D01*
X4177334Y11540998D01*
X4126484Y11540998D01*
X4122623Y11541810D01*
X4119321Y11543995D01*
X4086199Y11577066D01*
X4080001Y11582196D01*
X4073296Y11585752D01*
X4066082Y11587937D01*
X4058056Y11588750D01*
X3813048Y11588750D01*
X3809187Y11589512D01*
X3805885Y11591747D01*
X3803700Y11594998D01*
X3802887Y11598910D01*
X3802887Y11605818D01*
X3761740Y11605818D01*
X3761740Y11598910D01*
X3760978Y11594998D01*
X3758793Y11591747D01*
X3755491Y11589512D01*
X3751579Y11588750D01*
X3716020Y11588750D01*
X3712108Y11589512D01*
X3708806Y11591747D01*
X3706622Y11594998D01*
X3705860Y11598910D01*
X3705860Y11605818D01*
X3664712Y11605818D01*
X3664712Y11598910D01*
X3663899Y11594998D01*
X3661714Y11591747D01*
X3658412Y11589512D01*
X3654551Y11588750D01*
X3219145Y11588750D01*
X3211118Y11587937D01*
X3203905Y11585752D01*
X3197250Y11582196D01*
X3191002Y11577066D01*
X2681833Y11067948D01*
X2678684Y11065814D01*
X2674975Y11064951D01*
X2671216Y11065560D01*
X2667965Y11067491D01*
X2665628Y11070488D01*
X2664561Y11074146D01*
X2663748Y11082324D01*
X2661869Y11087709D01*
X2658821Y11092637D01*
X2654706Y11096701D01*
X2649829Y11099800D01*
X2644343Y11101679D01*
X2638044Y11102390D01*
X2520645Y11102390D01*
X2514346Y11101679D01*
X2508910Y11099800D01*
X2503982Y11096701D01*
X2499918Y11092637D01*
X2496820Y11087709D01*
X2494889Y11082274D01*
X2494178Y11075924D01*
X2494178Y10920476D01*
X2494889Y10914126D01*
X2496820Y10908690D01*
X2499918Y10903762D01*
X2503982Y10899698D01*
X2508910Y10896600D01*
X2514346Y10894720D01*
X2520645Y10894009D01*
X2528112Y10894009D01*
X2531973Y10893196D01*
X2535275Y10891012D01*
X2537460Y10887710D01*
X2538222Y10883849D01*
X2538222Y10629950D01*
X2537460Y10626090D01*
X2535275Y10622788D01*
X2531973Y10620603D01*
X2528112Y10619790D01*
X2518156Y10619790D01*
X2511856Y10619079D01*
X2506370Y10617200D01*
X2501493Y10614101D01*
X2497378Y10610037D01*
X2494330Y10605109D01*
X2492400Y10599674D01*
X2491689Y10593324D01*
X2491689Y10489844D01*
X2490927Y10485932D01*
X2488692Y10482630D01*
X2485440Y10480446D01*
X2481529Y10479684D01*
X2477668Y10480446D01*
X2474366Y10482630D01*
X2228189Y10728807D01*
X2221941Y10733938D01*
X2215286Y10737494D01*
X2208072Y10739678D01*
X2200046Y10740440D01*
X1992934Y10740440D01*
X1989074Y10741253D01*
X1985772Y10743438D01*
X1742439Y10986719D01*
X1740154Y10990275D01*
X1739493Y10994491D01*
X1740407Y11011154D01*
X1740407Y11163046D01*
X1739493Y11179810D01*
X1736801Y11196167D01*
X1732381Y11212118D01*
X1726285Y11227511D01*
X1718513Y11242141D01*
X1709216Y11255806D01*
X1698498Y11268456D01*
X1686458Y11279835D01*
X1673301Y11289842D01*
X1659128Y11298377D01*
X1644091Y11305336D01*
X1628394Y11310620D01*
X1612239Y11314176D01*
X1595780Y11315954D01*
X1579219Y11315954D01*
X1562760Y11314176D01*
X1546606Y11310620D01*
X1530908Y11305336D01*
X1515872Y11298377D01*
X1501698Y11289842D01*
X1488541Y11279835D01*
X1476502Y11268456D01*
X1465783Y11255806D01*
X1456486Y11242141D01*
X1448714Y11227511D01*
X1442618Y11212118D01*
X1438198Y11196167D01*
X1435506Y11179810D01*
X1434592Y11163046D01*
X1434592Y11011154D01*
X1435506Y10994390D01*
X1438198Y10978032D01*
X1442618Y10962081D01*
X1448714Y10946688D01*
X1456486Y10932058D01*
X1465783Y10918393D01*
X1476502Y10905744D01*
X1488541Y10894364D01*
X1501698Y10884357D01*
X1515872Y10875822D01*
X1530908Y10868863D01*
X1546606Y10863580D01*
X1562760Y10860024D01*
X1579219Y10858246D01*
X1595780Y10858246D01*
X1612239Y10860024D01*
X1628394Y10863580D01*
X1644091Y10868863D01*
X1659128Y10875822D01*
X1673301Y10884357D01*
X1686458Y10894364D01*
X1698599Y10905845D01*
X1701901Y10908436D01*
X1705914Y10909452D01*
X1710029Y10908741D01*
X1713534Y10906455D01*
X1945081Y10674908D01*
X1951329Y10669778D01*
X1957984Y10666222D01*
X1965198Y10664037D01*
X1973224Y10663224D01*
X2180336Y10663224D01*
X2184196Y10662462D01*
X2187498Y10660278D01*
X2210612Y10637164D01*
X2212848Y10633862D01*
X2213610Y10629950D01*
X2212848Y10626090D01*
X2210612Y10622788D01*
X2207361Y10620603D01*
X2203450Y10619790D01*
X2139645Y10619790D01*
X2133346Y10619079D01*
X2127910Y10617200D01*
X2122982Y10614101D01*
X2118918Y10610037D01*
X2115820Y10605109D01*
X2113889Y10599674D01*
X2113178Y10593324D01*
X2113178Y10571683D01*
X2112416Y10567771D01*
X2110232Y10564469D01*
X2106930Y10562285D01*
X2103018Y10561523D01*
X1674215Y10561523D01*
X1670354Y10562285D01*
X1667052Y10564469D01*
X1234998Y10996523D01*
X1232712Y11000079D01*
X1232052Y11004245D01*
X1232408Y11011154D01*
X1232408Y11163046D01*
X1231493Y11179810D01*
X1228801Y11196167D01*
X1224381Y11212118D01*
X1218285Y11227511D01*
X1210513Y11242141D01*
X1201216Y11255806D01*
X1190498Y11268456D01*
X1178458Y11279835D01*
X1165301Y11289842D01*
X1151128Y11298377D01*
X1136091Y11305336D01*
X1120394Y11310620D01*
X1104239Y11314176D01*
X1087780Y11315954D01*
X1071219Y11315954D01*
X1054760Y11314176D01*
X1038606Y11310620D01*
X1022908Y11305336D01*
X1007871Y11298377D01*
X993698Y11289842D01*
X980541Y11279835D01*
X968502Y11268456D01*
X957783Y11255806D01*
X948486Y11242141D01*
X940714Y11227511D01*
X934618Y11212118D01*
X930198Y11196167D01*
X927506Y11179810D01*
X926592Y11163046D01*
X926592Y11011154D01*
X927506Y10994390D01*
X930198Y10978032D01*
X934618Y10962081D01*
X940714Y10946688D01*
X948486Y10932058D01*
X957783Y10918393D01*
X968502Y10905744D01*
X980541Y10894364D01*
X993698Y10884357D01*
X1007871Y10875822D01*
X1022908Y10868863D01*
X1038606Y10863580D01*
X1054760Y10860024D01*
X1071219Y10858246D01*
X1087780Y10858246D01*
X1104239Y10860024D01*
X1120394Y10863580D01*
X1136091Y10868863D01*
X1151128Y10875822D01*
X1165301Y10884357D01*
X1178458Y10894364D01*
X1186129Y10901578D01*
X1189380Y10903661D01*
X1193241Y10904372D01*
X1197051Y10903559D01*
X1200251Y10901375D01*
X1619808Y10481919D01*
X1626870Y10476585D01*
X1634439Y10472826D01*
X1642567Y10470540D01*
X1651457Y10469676D01*
X2103018Y10469676D01*
X2106930Y10468914D01*
X2110232Y10466730D01*
X2112416Y10463428D01*
X2113178Y10459516D01*
X2113178Y10437876D01*
X2113889Y10431526D01*
X2115820Y10426090D01*
X2118918Y10421162D01*
X2122982Y10417098D01*
X2127910Y10414000D01*
X2133346Y10412120D01*
X2139645Y10411409D01*
X2257044Y10411409D01*
X2263343Y10412120D01*
X2268829Y10414000D01*
X2273706Y10417098D01*
X2277821Y10421162D01*
X2280869Y10426090D01*
X2282799Y10431526D01*
X2283510Y10437876D01*
X2283510Y10539730D01*
X2284272Y10543641D01*
X2286508Y10546943D01*
X2289759Y10549128D01*
X2293670Y10549890D01*
X2297531Y10549128D01*
X2300833Y10546943D01*
X3405479Y9442297D01*
X3411728Y9437166D01*
X3418382Y9433610D01*
X3425596Y9431426D01*
G37*
G36*
X7975600Y9485325D02*
G01*
X7990128Y9486239D01*
X8004403Y9488932D01*
X8018272Y9493453D01*
X8031429Y9499650D01*
X8043722Y9507423D01*
X8054949Y9516719D01*
X8064906Y9527336D01*
X8073440Y9539122D01*
X8080451Y9551873D01*
X8085836Y9565386D01*
X8089442Y9579508D01*
X8091271Y9593935D01*
X8091271Y9608464D01*
X8089442Y9622891D01*
X8085836Y9637014D01*
X8080451Y9650526D01*
X8073440Y9663277D01*
X8064906Y9675063D01*
X8054949Y9685680D01*
X8043722Y9694976D01*
X8031429Y9702749D01*
X8018272Y9708946D01*
X8004403Y9713468D01*
X7990128Y9716160D01*
X7975600Y9717074D01*
X7961071Y9716160D01*
X7946796Y9713468D01*
X7932928Y9708946D01*
X7919770Y9702749D01*
X7907477Y9694976D01*
X7896250Y9685680D01*
X7886293Y9675063D01*
X7877759Y9663277D01*
X7870748Y9650526D01*
X7865364Y9637014D01*
X7861757Y9622891D01*
X7859928Y9608464D01*
X7859928Y9593935D01*
X7861757Y9579508D01*
X7865364Y9565386D01*
X7870748Y9551873D01*
X7877759Y9539122D01*
X7886293Y9527336D01*
X7896250Y9516719D01*
X7907477Y9507423D01*
X7919770Y9499650D01*
X7932928Y9493453D01*
X7946796Y9488932D01*
X7961071Y9486239D01*
G37*
G36*
X1414119Y9486646D02*
G01*
X1430680Y9486646D01*
X1447139Y9488424D01*
X1463294Y9491980D01*
X1478991Y9497263D01*
X1494028Y9504222D01*
X1508201Y9512757D01*
X1521358Y9522764D01*
X1533398Y9534144D01*
X1544116Y9546793D01*
X1553413Y9560458D01*
X1561185Y9575088D01*
X1567281Y9590481D01*
X1571701Y9606432D01*
X1574393Y9622790D01*
X1575308Y9639554D01*
X1575308Y9791446D01*
X1574393Y9808210D01*
X1571701Y9824567D01*
X1567281Y9840518D01*
X1561185Y9855911D01*
X1553413Y9870541D01*
X1544116Y9884206D01*
X1533398Y9896856D01*
X1521358Y9908235D01*
X1508201Y9918242D01*
X1494028Y9926777D01*
X1478991Y9933736D01*
X1463294Y9939020D01*
X1447139Y9942576D01*
X1430680Y9944354D01*
X1414119Y9944354D01*
X1397660Y9942576D01*
X1381506Y9939020D01*
X1365808Y9933736D01*
X1350772Y9926777D01*
X1336598Y9918242D01*
X1323441Y9908235D01*
X1311402Y9896856D01*
X1300683Y9884206D01*
X1291386Y9870541D01*
X1283614Y9855911D01*
X1277518Y9840518D01*
X1273098Y9824567D01*
X1270406Y9808210D01*
X1269492Y9791446D01*
X1269492Y9639554D01*
X1270406Y9622790D01*
X1273098Y9606432D01*
X1277518Y9590481D01*
X1283614Y9575088D01*
X1291386Y9560458D01*
X1300683Y9546793D01*
X1311402Y9534144D01*
X1323441Y9522764D01*
X1336598Y9512757D01*
X1350772Y9504222D01*
X1365808Y9497263D01*
X1381506Y9491980D01*
X1397660Y9488424D01*
G37*
G36*
X1922119Y9486646D02*
G01*
X1938680Y9486646D01*
X1955139Y9488424D01*
X1971293Y9491980D01*
X1986991Y9497263D01*
X2002028Y9504222D01*
X2016201Y9512757D01*
X2029358Y9522764D01*
X2041398Y9534144D01*
X2052116Y9546793D01*
X2061413Y9560458D01*
X2069185Y9575088D01*
X2075281Y9590481D01*
X2079701Y9606432D01*
X2082393Y9622790D01*
X2083307Y9639554D01*
X2083307Y9791446D01*
X2082393Y9808210D01*
X2079701Y9824567D01*
X2075281Y9840518D01*
X2069185Y9855911D01*
X2061413Y9870541D01*
X2052116Y9884206D01*
X2041398Y9896856D01*
X2029358Y9908235D01*
X2016201Y9918242D01*
X2002028Y9926777D01*
X1986991Y9933736D01*
X1971293Y9939020D01*
X1955139Y9942576D01*
X1938680Y9944354D01*
X1922119Y9944354D01*
X1905660Y9942576D01*
X1889506Y9939020D01*
X1873808Y9933736D01*
X1858772Y9926777D01*
X1844598Y9918242D01*
X1831441Y9908235D01*
X1819402Y9896856D01*
X1808683Y9884206D01*
X1799386Y9870541D01*
X1791614Y9855911D01*
X1785518Y9840518D01*
X1781098Y9824567D01*
X1778406Y9808210D01*
X1777492Y9791446D01*
X1777492Y9639554D01*
X1778406Y9622790D01*
X1781098Y9606432D01*
X1785518Y9590481D01*
X1791614Y9575088D01*
X1799386Y9560458D01*
X1808683Y9546793D01*
X1819402Y9534144D01*
X1831441Y9522764D01*
X1844598Y9512757D01*
X1858772Y9504222D01*
X1873808Y9497263D01*
X1889506Y9491980D01*
X1905660Y9488424D01*
G37*
G36*
X7975600Y9739325D02*
G01*
X7990128Y9740239D01*
X8004403Y9742932D01*
X8018272Y9747453D01*
X8031429Y9753650D01*
X8043722Y9761423D01*
X8054949Y9770719D01*
X8064906Y9781336D01*
X8073440Y9793122D01*
X8080451Y9805873D01*
X8085836Y9819386D01*
X8089442Y9833508D01*
X8091271Y9847935D01*
X8091271Y9862464D01*
X8089442Y9876891D01*
X8085836Y9891014D01*
X8080451Y9904526D01*
X8073440Y9917277D01*
X8064906Y9929063D01*
X8054949Y9939680D01*
X8043722Y9948976D01*
X8031429Y9956749D01*
X8018272Y9962946D01*
X8004403Y9967468D01*
X7990128Y9970160D01*
X7975600Y9971074D01*
X7961071Y9970160D01*
X7946796Y9967468D01*
X7932928Y9962946D01*
X7919770Y9956749D01*
X7907477Y9948976D01*
X7896250Y9939680D01*
X7886293Y9929063D01*
X7877759Y9917277D01*
X7870748Y9904526D01*
X7865364Y9891014D01*
X7861757Y9876891D01*
X7859928Y9862464D01*
X7859928Y9847935D01*
X7861757Y9833508D01*
X7865364Y9819386D01*
X7870748Y9805873D01*
X7877759Y9793122D01*
X7886293Y9781336D01*
X7896250Y9770719D01*
X7907477Y9761423D01*
X7919770Y9753650D01*
X7932928Y9747453D01*
X7946796Y9742932D01*
X7961071Y9740239D01*
G37*
G36*
X7975600Y10247325D02*
G01*
X7990128Y10248239D01*
X8004403Y10250932D01*
X8018272Y10255453D01*
X8031429Y10261650D01*
X8043722Y10269423D01*
X8054949Y10278719D01*
X8064906Y10289336D01*
X8073440Y10301122D01*
X8080451Y10313873D01*
X8085836Y10327386D01*
X8089442Y10341508D01*
X8091271Y10355935D01*
X8091271Y10370464D01*
X8089442Y10384891D01*
X8085836Y10399014D01*
X8080451Y10412526D01*
X8073440Y10425277D01*
X8064906Y10437063D01*
X8054949Y10447680D01*
X8043722Y10456976D01*
X8031429Y10464749D01*
X8018272Y10470946D01*
X8004403Y10475468D01*
X7990128Y10478160D01*
X7975600Y10479074D01*
X7961071Y10478160D01*
X7946796Y10475468D01*
X7932928Y10470946D01*
X7919770Y10464749D01*
X7907477Y10456976D01*
X7896250Y10447680D01*
X7886293Y10437063D01*
X7877759Y10425277D01*
X7870748Y10412526D01*
X7865364Y10399014D01*
X7861757Y10384891D01*
X7859928Y10370464D01*
X7859928Y10355935D01*
X7861757Y10341508D01*
X7865364Y10327386D01*
X7870748Y10313873D01*
X7877759Y10301122D01*
X7886293Y10289336D01*
X7896250Y10278719D01*
X7907477Y10269423D01*
X7919770Y10261650D01*
X7932928Y10255453D01*
X7946796Y10250932D01*
X7961071Y10248239D01*
G37*
G36*
X8902700Y10501325D02*
G01*
X8917228Y10502239D01*
X8931503Y10504932D01*
X8945372Y10509453D01*
X8958529Y10515650D01*
X8970822Y10523423D01*
X8982049Y10532719D01*
X8992006Y10543336D01*
X9000540Y10555122D01*
X9007551Y10567873D01*
X9012936Y10581386D01*
X9016542Y10595508D01*
X9018371Y10609935D01*
X9018371Y10624464D01*
X9016542Y10638891D01*
X9012936Y10653014D01*
X9007551Y10666526D01*
X9000540Y10679277D01*
X8992006Y10691063D01*
X8982049Y10701680D01*
X8970822Y10710976D01*
X8958529Y10718749D01*
X8945372Y10724946D01*
X8931503Y10729468D01*
X8917228Y10732160D01*
X8902700Y10733074D01*
X8888171Y10732160D01*
X8873896Y10729468D01*
X8860028Y10724946D01*
X8846870Y10718749D01*
X8834577Y10710976D01*
X8823350Y10701680D01*
X8813393Y10691063D01*
X8804859Y10679277D01*
X8797848Y10666526D01*
X8792464Y10653014D01*
X8788857Y10638891D01*
X8787028Y10624464D01*
X8787028Y10609935D01*
X8788857Y10595508D01*
X8792464Y10581386D01*
X8797848Y10567873D01*
X8804859Y10555122D01*
X8813393Y10543336D01*
X8823350Y10532719D01*
X8834577Y10523423D01*
X8846870Y10515650D01*
X8860028Y10509453D01*
X8873896Y10504932D01*
X8888171Y10502239D01*
G37*
G36*
X8902700Y10755325D02*
G01*
X8917228Y10756239D01*
X8931503Y10758932D01*
X8945372Y10763453D01*
X8958529Y10769650D01*
X8970822Y10777423D01*
X8982049Y10786719D01*
X8992006Y10797336D01*
X9000540Y10809122D01*
X9007551Y10821873D01*
X9012936Y10835386D01*
X9016542Y10849508D01*
X9018371Y10863935D01*
X9018371Y10878464D01*
X9016542Y10892891D01*
X9012936Y10907014D01*
X9007551Y10920526D01*
X9000540Y10933277D01*
X8992006Y10945063D01*
X8982049Y10955680D01*
X8970822Y10964976D01*
X8958529Y10972749D01*
X8945372Y10978946D01*
X8931503Y10983468D01*
X8917228Y10986160D01*
X8902700Y10987074D01*
X8888171Y10986160D01*
X8873896Y10983468D01*
X8860028Y10978946D01*
X8846870Y10972749D01*
X8834577Y10964976D01*
X8823350Y10955680D01*
X8813393Y10945063D01*
X8804859Y10933277D01*
X8797848Y10920526D01*
X8792464Y10907014D01*
X8788857Y10892891D01*
X8787028Y10878464D01*
X8787028Y10863935D01*
X8788857Y10849508D01*
X8792464Y10835386D01*
X8797848Y10821873D01*
X8804859Y10809122D01*
X8813393Y10797336D01*
X8823350Y10786719D01*
X8834577Y10777423D01*
X8846870Y10769650D01*
X8860028Y10763453D01*
X8873896Y10758932D01*
X8888171Y10756239D01*
G37*
G36*
X7975600Y10755325D02*
G01*
X7990128Y10756239D01*
X8004403Y10758932D01*
X8018272Y10763453D01*
X8031429Y10769650D01*
X8043722Y10777423D01*
X8054949Y10786719D01*
X8064906Y10797336D01*
X8073440Y10809122D01*
X8080451Y10821873D01*
X8085836Y10835386D01*
X8089442Y10849508D01*
X8091271Y10863935D01*
X8091271Y10878464D01*
X8089442Y10892891D01*
X8085836Y10907014D01*
X8080451Y10920526D01*
X8073440Y10933277D01*
X8064906Y10945063D01*
X8054949Y10955680D01*
X8043722Y10964976D01*
X8031429Y10972749D01*
X8018272Y10978946D01*
X8004403Y10983468D01*
X7990128Y10986160D01*
X7975600Y10987074D01*
X7961071Y10986160D01*
X7946796Y10983468D01*
X7932928Y10978946D01*
X7919770Y10972749D01*
X7907477Y10964976D01*
X7896250Y10955680D01*
X7886293Y10945063D01*
X7877759Y10933277D01*
X7870748Y10920526D01*
X7865364Y10907014D01*
X7861757Y10892891D01*
X7859928Y10878464D01*
X7859928Y10863935D01*
X7861757Y10849508D01*
X7865364Y10835386D01*
X7870748Y10821873D01*
X7877759Y10809122D01*
X7886293Y10797336D01*
X7896250Y10786719D01*
X7907477Y10777423D01*
X7919770Y10769650D01*
X7932928Y10763453D01*
X7946796Y10758932D01*
X7961071Y10756239D01*
G37*
G36*
X2165350Y10875010D02*
G01*
X2167128Y10875822D01*
X2181301Y10884357D01*
X2194458Y10894364D01*
X2206498Y10905744D01*
X2217216Y10918393D01*
X2226513Y10932058D01*
X2234285Y10946688D01*
X2240381Y10962081D01*
X2245004Y10979150D01*
X2165350Y10979150D01*
G37*
G36*
X2025650Y10875010D02*
G01*
X2025650Y10979150D01*
X1945995Y10979150D01*
X1950618Y10962081D01*
X1956714Y10946688D01*
X1964486Y10932058D01*
X1973783Y10918393D01*
X1984502Y10905744D01*
X1996541Y10894364D01*
X2009698Y10884357D01*
X2023872Y10875822D01*
G37*
G36*
X10899800Y10913719D02*
G01*
X10899800Y10963249D01*
X10850219Y10963249D01*
X10853470Y10956696D01*
X10861395Y10944910D01*
X10870742Y10934242D01*
X10881410Y10924895D01*
X10893196Y10916970D01*
G37*
G36*
X10226700Y10951819D02*
G01*
X10226700Y11001349D01*
X10177119Y11001349D01*
X10180370Y10994796D01*
X10188295Y10983010D01*
X10197642Y10972342D01*
X10208310Y10962995D01*
X10220096Y10955070D01*
G37*
G36*
X9426600Y10951819D02*
G01*
X9426600Y11001349D01*
X9377019Y11001349D01*
X9380270Y10994796D01*
X9388195Y10983010D01*
X9397542Y10972342D01*
X9408210Y10962995D01*
X9419996Y10955070D01*
G37*
G36*
X9521850Y10951819D02*
G01*
X9528403Y10955070D01*
X9540189Y10962995D01*
X9550857Y10972342D01*
X9560204Y10983010D01*
X9568129Y10994796D01*
X9571380Y11001349D01*
X9521850Y11001349D01*
G37*
G36*
X8902700Y11009325D02*
G01*
X8917228Y11010239D01*
X8931503Y11012932D01*
X8945372Y11017453D01*
X8958529Y11023650D01*
X8970822Y11031423D01*
X8982049Y11040719D01*
X8992006Y11051336D01*
X9000540Y11063122D01*
X9007551Y11075873D01*
X9012936Y11089386D01*
X9016542Y11103508D01*
X9018371Y11117935D01*
X9018371Y11132464D01*
X9016542Y11146891D01*
X9012936Y11161014D01*
X9007551Y11174526D01*
X9000540Y11187277D01*
X8992006Y11199063D01*
X8982049Y11209680D01*
X8970822Y11218976D01*
X8958529Y11226749D01*
X8945372Y11232946D01*
X8931503Y11237468D01*
X8917228Y11240160D01*
X8902700Y11241074D01*
X8888171Y11240160D01*
X8873896Y11237468D01*
X8860028Y11232946D01*
X8846870Y11226749D01*
X8834577Y11218976D01*
X8823350Y11209680D01*
X8813393Y11199063D01*
X8804859Y11187277D01*
X8797848Y11174526D01*
X8792464Y11161014D01*
X8788857Y11146891D01*
X8787028Y11132464D01*
X8787028Y11117935D01*
X8788857Y11103508D01*
X8792464Y11089386D01*
X8797848Y11075873D01*
X8804859Y11063122D01*
X8813393Y11051336D01*
X8823350Y11040719D01*
X8834577Y11031423D01*
X8846870Y11023650D01*
X8860028Y11017453D01*
X8873896Y11012932D01*
X8888171Y11010239D01*
G37*
G36*
X7975600Y11009325D02*
G01*
X7990128Y11010239D01*
X8004403Y11012932D01*
X8018272Y11017453D01*
X8031429Y11023650D01*
X8043722Y11031423D01*
X8054949Y11040719D01*
X8064906Y11051336D01*
X8073440Y11063122D01*
X8080451Y11075873D01*
X8085836Y11089386D01*
X8089442Y11103508D01*
X8091271Y11117935D01*
X8091271Y11132464D01*
X8089442Y11146891D01*
X8085836Y11161014D01*
X8080451Y11174526D01*
X8073440Y11187277D01*
X8064906Y11199063D01*
X8054949Y11209680D01*
X8043722Y11218976D01*
X8031429Y11226749D01*
X8018272Y11232946D01*
X8004403Y11237468D01*
X7990128Y11240160D01*
X7975600Y11241074D01*
X7961071Y11240160D01*
X7946796Y11237468D01*
X7932928Y11232946D01*
X7919770Y11226749D01*
X7907477Y11218976D01*
X7896250Y11209680D01*
X7886293Y11199063D01*
X7877759Y11187277D01*
X7870748Y11174526D01*
X7865364Y11161014D01*
X7861757Y11146891D01*
X7859928Y11132464D01*
X7859928Y11117935D01*
X7861757Y11103508D01*
X7865364Y11089386D01*
X7870748Y11075873D01*
X7877759Y11063122D01*
X7886293Y11051336D01*
X7896250Y11040719D01*
X7907477Y11031423D01*
X7919770Y11023650D01*
X7932928Y11017453D01*
X7946796Y11012932D01*
X7961071Y11010239D01*
G37*
G36*
X10850219Y11058499D02*
G01*
X10899800Y11058499D01*
X10899800Y11108080D01*
X10893196Y11104829D01*
X10881410Y11096904D01*
X10870742Y11087557D01*
X10861395Y11076889D01*
X10853470Y11065103D01*
G37*
G36*
X9521850Y11096599D02*
G01*
X9571380Y11096599D01*
X9568129Y11103203D01*
X9560204Y11114989D01*
X9550857Y11125657D01*
X9540189Y11135004D01*
X9528403Y11142929D01*
X9521850Y11146180D01*
G37*
G36*
X10177119Y11096599D02*
G01*
X10226700Y11096599D01*
X10226700Y11146180D01*
X10220096Y11142929D01*
X10208310Y11135004D01*
X10197642Y11125657D01*
X10188295Y11114989D01*
X10180370Y11103203D01*
G37*
G36*
X9377019Y11096599D02*
G01*
X9426600Y11096599D01*
X9426600Y11146180D01*
X9419996Y11142929D01*
X9408210Y11135004D01*
X9397542Y11125657D01*
X9388195Y11114989D01*
X9380270Y11103203D01*
G37*
G36*
X2165350Y11195050D02*
G01*
X2245004Y11195050D01*
X2240381Y11212118D01*
X2234285Y11227511D01*
X2226513Y11242141D01*
X2217216Y11255806D01*
X2206498Y11268456D01*
X2194458Y11279835D01*
X2181301Y11289842D01*
X2167128Y11298377D01*
X2165350Y11299190D01*
G37*
G36*
X1945995Y11195050D02*
G01*
X2025650Y11195050D01*
X2025650Y11299190D01*
X2023872Y11298377D01*
X2009698Y11289842D01*
X1996541Y11279835D01*
X1984502Y11268456D01*
X1973783Y11255806D01*
X1964486Y11242141D01*
X1956714Y11227511D01*
X1950618Y11212118D01*
G37*
G36*
X8902700Y11517325D02*
G01*
X8917228Y11518239D01*
X8931503Y11520932D01*
X8945372Y11525453D01*
X8958529Y11531650D01*
X8970822Y11539423D01*
X8982049Y11548719D01*
X8992006Y11559336D01*
X9000540Y11571122D01*
X9007551Y11583873D01*
X9012936Y11597386D01*
X9016542Y11611508D01*
X9018371Y11625935D01*
X9018371Y11640464D01*
X9016542Y11654891D01*
X9012936Y11669014D01*
X9007551Y11682526D01*
X9000540Y11695277D01*
X8992006Y11707063D01*
X8982049Y11717680D01*
X8970822Y11726976D01*
X8958529Y11734749D01*
X8945372Y11740946D01*
X8931503Y11745468D01*
X8917228Y11748160D01*
X8902700Y11749074D01*
X8888171Y11748160D01*
X8873896Y11745468D01*
X8860028Y11740946D01*
X8846870Y11734749D01*
X8834577Y11726976D01*
X8823350Y11717680D01*
X8813393Y11707063D01*
X8804859Y11695277D01*
X8797848Y11682526D01*
X8792464Y11669014D01*
X8788857Y11654891D01*
X8787028Y11640464D01*
X8787028Y11625935D01*
X8788857Y11611508D01*
X8792464Y11597386D01*
X8797848Y11583873D01*
X8804859Y11571122D01*
X8813393Y11559336D01*
X8823350Y11548719D01*
X8834577Y11539423D01*
X8846870Y11531650D01*
X8860028Y11525453D01*
X8873896Y11520932D01*
X8888171Y11518239D01*
G37*
G36*
X4272229Y11630660D02*
G01*
X4309313Y11630660D01*
X4309313Y11654993D01*
X4308602Y11661343D01*
X4306671Y11666778D01*
X4303623Y11671706D01*
X4299508Y11675770D01*
X4294632Y11678869D01*
X4289145Y11680748D01*
X4282846Y11681460D01*
X4272229Y11681460D01*
G37*
G36*
X4187494Y11630660D02*
G01*
X4224578Y11630660D01*
X4224578Y11681460D01*
X4213961Y11681460D01*
X4207662Y11680748D01*
X4202176Y11678869D01*
X4197299Y11675770D01*
X4193184Y11671706D01*
X4190136Y11666778D01*
X4188206Y11661343D01*
X4187494Y11654993D01*
G37*
G36*
X3761740Y11658854D02*
G01*
X3802887Y11658854D01*
X3802887Y11672062D01*
X3802176Y11678412D01*
X3800297Y11683847D01*
X3797198Y11688775D01*
X3793134Y11692839D01*
X3788206Y11695938D01*
X3782771Y11697868D01*
X3776421Y11698579D01*
X3761740Y11698579D01*
G37*
G36*
X3664712Y11658854D02*
G01*
X3705860Y11658854D01*
X3705860Y11698579D01*
X3691178Y11698579D01*
X3684828Y11697868D01*
X3679393Y11695938D01*
X3674465Y11692839D01*
X3670401Y11688775D01*
X3667302Y11683847D01*
X3665423Y11678412D01*
X3664712Y11672062D01*
G37*
G36*
X1579219Y11747246D02*
G01*
X1595780Y11747246D01*
X1612239Y11749024D01*
X1628394Y11752580D01*
X1644091Y11757863D01*
X1659128Y11764822D01*
X1673301Y11773357D01*
X1686458Y11783364D01*
X1698498Y11794744D01*
X1709216Y11807393D01*
X1718513Y11821058D01*
X1726285Y11835688D01*
X1732381Y11851081D01*
X1736801Y11867032D01*
X1739493Y11883390D01*
X1740407Y11900154D01*
X1740407Y12052046D01*
X1739493Y12068810D01*
X1736801Y12085167D01*
X1732381Y12101118D01*
X1726285Y12116511D01*
X1718513Y12131141D01*
X1709216Y12144806D01*
X1698498Y12157456D01*
X1686458Y12168835D01*
X1673301Y12178842D01*
X1659128Y12187377D01*
X1644091Y12194336D01*
X1628394Y12199620D01*
X1612239Y12203176D01*
X1595780Y12204954D01*
X1579219Y12204954D01*
X1562760Y12203176D01*
X1546606Y12199620D01*
X1530908Y12194336D01*
X1515872Y12187377D01*
X1501698Y12178842D01*
X1488541Y12168835D01*
X1476502Y12157456D01*
X1465783Y12144806D01*
X1456486Y12131141D01*
X1448714Y12116511D01*
X1442618Y12101118D01*
X1438198Y12085167D01*
X1435506Y12068810D01*
X1434592Y12052046D01*
X1434592Y11900154D01*
X1435506Y11883390D01*
X1438198Y11867032D01*
X1442618Y11851081D01*
X1448714Y11835688D01*
X1456486Y11821058D01*
X1465783Y11807393D01*
X1476502Y11794744D01*
X1488541Y11783364D01*
X1501698Y11773357D01*
X1515872Y11764822D01*
X1530908Y11757863D01*
X1546606Y11752580D01*
X1562760Y11749024D01*
G37*
G36*
X2087219Y11747246D02*
G01*
X2103780Y11747246D01*
X2120239Y11749024D01*
X2136394Y11752580D01*
X2152091Y11757863D01*
X2167128Y11764822D01*
X2181301Y11773357D01*
X2194458Y11783364D01*
X2206498Y11794744D01*
X2217216Y11807393D01*
X2226513Y11821058D01*
X2234285Y11835688D01*
X2240381Y11851081D01*
X2244801Y11867032D01*
X2247493Y11883390D01*
X2248408Y11900154D01*
X2248408Y12052046D01*
X2247493Y12068810D01*
X2244801Y12085167D01*
X2240381Y12101118D01*
X2234285Y12116511D01*
X2226513Y12131141D01*
X2217216Y12144806D01*
X2206498Y12157456D01*
X2194458Y12168835D01*
X2181301Y12178842D01*
X2167128Y12187377D01*
X2152091Y12194336D01*
X2136394Y12199620D01*
X2120239Y12203176D01*
X2103780Y12204954D01*
X2087219Y12204954D01*
X2070760Y12203176D01*
X2054606Y12199620D01*
X2038908Y12194336D01*
X2023872Y12187377D01*
X2009698Y12178842D01*
X1996541Y12168835D01*
X1984502Y12157456D01*
X1973783Y12144806D01*
X1964486Y12131141D01*
X1956714Y12116511D01*
X1950618Y12101118D01*
X1946198Y12085167D01*
X1943506Y12068810D01*
X1942592Y12052046D01*
X1942592Y11900154D01*
X1943506Y11883390D01*
X1946198Y11867032D01*
X1950618Y11851081D01*
X1956714Y11835688D01*
X1964486Y11821058D01*
X1973783Y11807393D01*
X1984502Y11794744D01*
X1996541Y11783364D01*
X2009698Y11773357D01*
X2023872Y11764822D01*
X2038908Y11757863D01*
X2054606Y11752580D01*
X2070760Y11749024D01*
G37*
G36*
X1149350Y11764010D02*
G01*
X1151128Y11764822D01*
X1165301Y11773357D01*
X1178458Y11783364D01*
X1190498Y11794744D01*
X1201216Y11807393D01*
X1210513Y11821058D01*
X1218285Y11835688D01*
X1224381Y11851081D01*
X1229004Y11868150D01*
X1149350Y11868150D01*
G37*
G36*
X1009650Y11764010D02*
G01*
X1009650Y11868150D01*
X929995Y11868150D01*
X934618Y11851081D01*
X940714Y11835688D01*
X948486Y11821058D01*
X957783Y11807393D01*
X968502Y11794744D01*
X980541Y11783364D01*
X993698Y11773357D01*
X1007871Y11764822D01*
G37*
G36*
X8902700Y11771325D02*
G01*
X8917228Y11772239D01*
X8931503Y11774932D01*
X8945372Y11779453D01*
X8958529Y11785650D01*
X8970822Y11793423D01*
X8982049Y11802719D01*
X8992006Y11813336D01*
X9000540Y11825122D01*
X9007551Y11837873D01*
X9012936Y11851386D01*
X9016542Y11865508D01*
X9018371Y11879935D01*
X9018371Y11894464D01*
X9016542Y11908891D01*
X9012936Y11923014D01*
X9007551Y11936526D01*
X9000540Y11949277D01*
X8992006Y11961063D01*
X8982049Y11971680D01*
X8970822Y11980976D01*
X8958529Y11988749D01*
X8945372Y11994946D01*
X8931503Y11999468D01*
X8917228Y12002160D01*
X8902700Y12003074D01*
X8888171Y12002160D01*
X8873896Y11999468D01*
X8860028Y11994946D01*
X8846870Y11988749D01*
X8834577Y11980976D01*
X8823350Y11971680D01*
X8813393Y11961063D01*
X8804859Y11949277D01*
X8797848Y11936526D01*
X8792464Y11923014D01*
X8788857Y11908891D01*
X8787028Y11894464D01*
X8787028Y11879935D01*
X8788857Y11865508D01*
X8792464Y11851386D01*
X8797848Y11837873D01*
X8804859Y11825122D01*
X8813393Y11813336D01*
X8823350Y11802719D01*
X8834577Y11793423D01*
X8846870Y11785650D01*
X8860028Y11779453D01*
X8873896Y11774932D01*
X8888171Y11772239D01*
G37*
G36*
X7975600Y11771325D02*
G01*
X7990128Y11772239D01*
X8004403Y11774932D01*
X8018272Y11779453D01*
X8031429Y11785650D01*
X8043722Y11793423D01*
X8054949Y11802719D01*
X8064906Y11813336D01*
X8073440Y11825122D01*
X8080451Y11837873D01*
X8085836Y11851386D01*
X8089442Y11865508D01*
X8091271Y11879935D01*
X8091271Y11894464D01*
X8089442Y11908891D01*
X8085836Y11923014D01*
X8080451Y11936526D01*
X8073440Y11949277D01*
X8064906Y11961063D01*
X8054949Y11971680D01*
X8043722Y11980976D01*
X8031429Y11988749D01*
X8018272Y11994946D01*
X8004403Y11999468D01*
X7990128Y12002160D01*
X7975600Y12003074D01*
X7961071Y12002160D01*
X7946796Y11999468D01*
X7932928Y11994946D01*
X7919770Y11988749D01*
X7907477Y11980976D01*
X7896250Y11971680D01*
X7886293Y11961063D01*
X7877759Y11949277D01*
X7870748Y11936526D01*
X7865364Y11923014D01*
X7861757Y11908891D01*
X7859928Y11894464D01*
X7859928Y11879935D01*
X7861757Y11865508D01*
X7865364Y11851386D01*
X7870748Y11837873D01*
X7877759Y11825122D01*
X7886293Y11813336D01*
X7896250Y11802719D01*
X7907477Y11793423D01*
X7919770Y11785650D01*
X7932928Y11779453D01*
X7946796Y11774932D01*
X7961071Y11772239D01*
G37*
G36*
X8902700Y12025325D02*
G01*
X8917228Y12026239D01*
X8931503Y12028932D01*
X8945372Y12033453D01*
X8958529Y12039650D01*
X8970822Y12047423D01*
X8982049Y12056719D01*
X8992006Y12067336D01*
X9000540Y12079122D01*
X9007551Y12091873D01*
X9012936Y12105386D01*
X9016542Y12119508D01*
X9018371Y12133935D01*
X9018371Y12148464D01*
X9016542Y12162891D01*
X9012936Y12177014D01*
X9007551Y12190526D01*
X9000540Y12203277D01*
X8992006Y12215063D01*
X8982049Y12225680D01*
X8970822Y12234976D01*
X8958529Y12242749D01*
X8945372Y12248946D01*
X8931503Y12253468D01*
X8917228Y12256160D01*
X8902700Y12257074D01*
X8888171Y12256160D01*
X8873896Y12253468D01*
X8860028Y12248946D01*
X8846870Y12242749D01*
X8834577Y12234976D01*
X8823350Y12225680D01*
X8813393Y12215063D01*
X8804859Y12203277D01*
X8797848Y12190526D01*
X8792464Y12177014D01*
X8788857Y12162891D01*
X8787028Y12148464D01*
X8787028Y12133935D01*
X8788857Y12119508D01*
X8792464Y12105386D01*
X8797848Y12091873D01*
X8804859Y12079122D01*
X8813393Y12067336D01*
X8823350Y12056719D01*
X8834577Y12047423D01*
X8846870Y12039650D01*
X8860028Y12033453D01*
X8873896Y12028932D01*
X8888171Y12026239D01*
G37*
G36*
X7975600Y12025325D02*
G01*
X7990128Y12026239D01*
X8004403Y12028932D01*
X8018272Y12033453D01*
X8031429Y12039650D01*
X8043722Y12047423D01*
X8054949Y12056719D01*
X8064906Y12067336D01*
X8073440Y12079122D01*
X8080451Y12091873D01*
X8085836Y12105386D01*
X8089442Y12119508D01*
X8091271Y12133935D01*
X8091271Y12148464D01*
X8089442Y12162891D01*
X8085836Y12177014D01*
X8080451Y12190526D01*
X8073440Y12203277D01*
X8064906Y12215063D01*
X8054949Y12225680D01*
X8043722Y12234976D01*
X8031429Y12242749D01*
X8018272Y12248946D01*
X8004403Y12253468D01*
X7990128Y12256160D01*
X7975600Y12257074D01*
X7961071Y12256160D01*
X7946796Y12253468D01*
X7932928Y12248946D01*
X7919770Y12242749D01*
X7907477Y12234976D01*
X7896250Y12225680D01*
X7886293Y12215063D01*
X7877759Y12203277D01*
X7870748Y12190526D01*
X7865364Y12177014D01*
X7861757Y12162891D01*
X7859928Y12148464D01*
X7859928Y12133935D01*
X7861757Y12119508D01*
X7865364Y12105386D01*
X7870748Y12091873D01*
X7877759Y12079122D01*
X7886293Y12067336D01*
X7896250Y12056719D01*
X7907477Y12047423D01*
X7919770Y12039650D01*
X7932928Y12033453D01*
X7946796Y12028932D01*
X7961071Y12026239D01*
G37*
G36*
X1149350Y12084050D02*
G01*
X1229004Y12084050D01*
X1224381Y12101118D01*
X1218285Y12116511D01*
X1210513Y12131141D01*
X1201216Y12144806D01*
X1190498Y12157456D01*
X1178458Y12168835D01*
X1165301Y12178842D01*
X1151128Y12187377D01*
X1149350Y12188190D01*
G37*
G36*
X929995Y12084050D02*
G01*
X1009650Y12084050D01*
X1009650Y12188190D01*
X1007871Y12187377D01*
X993698Y12178842D01*
X980541Y12168835D01*
X968502Y12157456D01*
X957783Y12144806D01*
X948486Y12131141D01*
X940714Y12116511D01*
X934618Y12101118D01*
G37*
G36*
X10278668Y12267793D02*
G01*
X10292334Y12268250D01*
X10305745Y12270486D01*
X10318800Y12274550D01*
X10331145Y12280290D01*
X10342676Y12287605D01*
X10353090Y12296394D01*
X10362234Y12306554D01*
X10369956Y12317780D01*
X10376103Y12329922D01*
X10380573Y12342825D01*
X10383266Y12356185D01*
X10384180Y12369800D01*
X10383266Y12383414D01*
X10380573Y12396774D01*
X10376103Y12409678D01*
X10369956Y12421819D01*
X10362234Y12433046D01*
X10353090Y12443206D01*
X10342676Y12451994D01*
X10331145Y12459309D01*
X10318800Y12465050D01*
X10305745Y12469114D01*
X10292334Y12471349D01*
X10278668Y12471806D01*
X10265105Y12470485D01*
X10251846Y12467285D01*
X10239146Y12462408D01*
X10227157Y12455855D01*
X10216184Y12447778D01*
X10206380Y12438278D01*
X10197947Y12427559D01*
X10190988Y12415824D01*
X10185654Y12403277D01*
X10182047Y12390120D01*
X10180218Y12376607D01*
X10180218Y12362992D01*
X10182047Y12349480D01*
X10185654Y12336322D01*
X10190988Y12323775D01*
X10197947Y12312040D01*
X10206380Y12301321D01*
X10216184Y12291822D01*
X10227157Y12283744D01*
X10239146Y12277191D01*
X10251846Y12272314D01*
X10265105Y12269114D01*
G37*
G36*
X6592773Y12267793D02*
G01*
X6606438Y12268250D01*
X6619849Y12270486D01*
X6632905Y12274550D01*
X6645249Y12280290D01*
X6656730Y12287605D01*
X6667144Y12296394D01*
X6676339Y12306554D01*
X6684009Y12317780D01*
X6690207Y12329922D01*
X6694678Y12342825D01*
X6697370Y12356185D01*
X6698284Y12369800D01*
X6697370Y12383414D01*
X6694678Y12396774D01*
X6690207Y12409678D01*
X6684009Y12421819D01*
X6676339Y12433046D01*
X6667144Y12443206D01*
X6656730Y12451994D01*
X6646824Y12458344D01*
X6644284Y12460630D01*
X6642658Y12463576D01*
X6642100Y12466878D01*
X6642100Y12526721D01*
X6642658Y12530023D01*
X6644284Y12532969D01*
X6646824Y12535255D01*
X6656730Y12541605D01*
X6667144Y12550394D01*
X6676339Y12560554D01*
X6684009Y12571780D01*
X6690207Y12583922D01*
X6694678Y12596825D01*
X6697370Y12610185D01*
X6698284Y12623800D01*
X6697370Y12637414D01*
X6694678Y12650774D01*
X6690207Y12663678D01*
X6684009Y12675819D01*
X6676339Y12687046D01*
X6667144Y12697206D01*
X6656730Y12705994D01*
X6645249Y12713309D01*
X6632905Y12719050D01*
X6619849Y12723114D01*
X6606438Y12725349D01*
X6592773Y12725806D01*
X6579209Y12724485D01*
X6565950Y12721285D01*
X6553250Y12716408D01*
X6541262Y12709855D01*
X6530289Y12701778D01*
X6520484Y12692278D01*
X6512052Y12681559D01*
X6505092Y12669824D01*
X6499758Y12657277D01*
X6496151Y12644120D01*
X6494322Y12630607D01*
X6494322Y12616992D01*
X6496151Y12603480D01*
X6499758Y12590322D01*
X6505092Y12577775D01*
X6512052Y12566040D01*
X6520484Y12555321D01*
X6530289Y12545822D01*
X6541262Y12537744D01*
X6545021Y12535712D01*
X6547815Y12533426D01*
X6549644Y12530328D01*
X6550304Y12526772D01*
X6550304Y12466828D01*
X6549644Y12463272D01*
X6547815Y12460173D01*
X6545021Y12457887D01*
X6541262Y12455855D01*
X6530289Y12447778D01*
X6520484Y12438278D01*
X6512052Y12427559D01*
X6505092Y12415824D01*
X6499758Y12403277D01*
X6496151Y12390120D01*
X6494322Y12376607D01*
X6494322Y12362992D01*
X6496151Y12349480D01*
X6499758Y12336322D01*
X6505092Y12323775D01*
X6512052Y12312040D01*
X6520484Y12301321D01*
X6530289Y12291822D01*
X6541262Y12283744D01*
X6553250Y12277191D01*
X6565950Y12272314D01*
X6579209Y12269114D01*
G37*
G36*
X10521950Y12278004D02*
G01*
X10521950Y12325350D01*
X10474604Y12325350D01*
X10475264Y12323775D01*
X10482224Y12312040D01*
X10490708Y12301321D01*
X10500512Y12291822D01*
X10511485Y12283744D01*
G37*
G36*
X6356350Y12278156D02*
G01*
X6360972Y12280290D01*
X6372453Y12287605D01*
X6382867Y12296394D01*
X6392011Y12306554D01*
X6399733Y12317780D01*
X6403543Y12325350D01*
X6356350Y12325350D01*
G37*
G36*
X10610850Y12278156D02*
G01*
X10615472Y12280290D01*
X10626953Y12287605D01*
X10637367Y12296394D01*
X10646511Y12306554D01*
X10654233Y12317780D01*
X10658043Y12325350D01*
X10610850Y12325350D01*
G37*
G36*
X7975600Y12279325D02*
G01*
X7990128Y12280239D01*
X8004403Y12282932D01*
X8018272Y12287453D01*
X8031429Y12293650D01*
X8043722Y12301423D01*
X8054949Y12310719D01*
X8064906Y12321336D01*
X8073440Y12333122D01*
X8080451Y12345873D01*
X8085836Y12359386D01*
X8089442Y12373508D01*
X8091271Y12387935D01*
X8091271Y12402464D01*
X8089442Y12416891D01*
X8085836Y12431014D01*
X8080451Y12444526D01*
X8073440Y12457277D01*
X8064906Y12469063D01*
X8054949Y12479680D01*
X8043722Y12488976D01*
X8031429Y12496749D01*
X8018272Y12502946D01*
X8004403Y12507468D01*
X7990128Y12510160D01*
X7975600Y12511074D01*
X7961071Y12510160D01*
X7946796Y12507468D01*
X7932928Y12502946D01*
X7919770Y12496749D01*
X7907477Y12488976D01*
X7896250Y12479680D01*
X7886293Y12469063D01*
X7877759Y12457277D01*
X7870748Y12444526D01*
X7865364Y12431014D01*
X7861757Y12416891D01*
X7859928Y12402464D01*
X7859928Y12387935D01*
X7861757Y12373508D01*
X7865364Y12359386D01*
X7870748Y12345873D01*
X7877759Y12333122D01*
X7886293Y12321336D01*
X7896250Y12310719D01*
X7907477Y12301423D01*
X7919770Y12293650D01*
X7932928Y12287453D01*
X7946796Y12282932D01*
X7961071Y12280239D01*
G37*
G36*
X8902700Y12279325D02*
G01*
X8917228Y12280239D01*
X8931503Y12282932D01*
X8945372Y12287453D01*
X8958529Y12293650D01*
X8970822Y12301423D01*
X8982049Y12310719D01*
X8992006Y12321336D01*
X9000540Y12333122D01*
X9007551Y12345873D01*
X9012936Y12359386D01*
X9016542Y12373508D01*
X9018371Y12387935D01*
X9018371Y12402464D01*
X9016542Y12416891D01*
X9012936Y12431014D01*
X9007551Y12444526D01*
X9000540Y12457277D01*
X8993174Y12467437D01*
X8991396Y12471552D01*
X8991549Y12475972D01*
X8993530Y12479883D01*
X8997035Y12482626D01*
X9001404Y12483592D01*
X10180015Y12483592D01*
X10188041Y12484404D01*
X10195255Y12486589D01*
X10201910Y12490145D01*
X10208158Y12495276D01*
X10238028Y12525146D01*
X10241280Y12527330D01*
X10245039Y12528143D01*
X10248900Y12527432D01*
X10251846Y12526314D01*
X10265105Y12523114D01*
X10278668Y12521793D01*
X10292334Y12522250D01*
X10305745Y12524486D01*
X10318800Y12528550D01*
X10331145Y12534290D01*
X10342676Y12541605D01*
X10353090Y12550394D01*
X10362234Y12560554D01*
X10369956Y12571780D01*
X10376103Y12583922D01*
X10380573Y12596825D01*
X10383266Y12610185D01*
X10384180Y12623800D01*
X10383266Y12637414D01*
X10380573Y12650774D01*
X10376103Y12663678D01*
X10369956Y12675819D01*
X10362234Y12687046D01*
X10353090Y12697206D01*
X10342676Y12705994D01*
X10331145Y12713309D01*
X10318800Y12719050D01*
X10305745Y12723114D01*
X10292334Y12725349D01*
X10278668Y12725806D01*
X10265105Y12724485D01*
X10251846Y12721285D01*
X10239146Y12716408D01*
X10227157Y12709855D01*
X10216184Y12701778D01*
X10206380Y12692278D01*
X10197947Y12681559D01*
X10190988Y12669824D01*
X10185654Y12657277D01*
X10182047Y12644120D01*
X10180218Y12630607D01*
X10180218Y12616992D01*
X10182047Y12603480D01*
X10185908Y12589510D01*
X10186263Y12585954D01*
X10185349Y12582499D01*
X10183317Y12579604D01*
X10167467Y12563805D01*
X10164165Y12561570D01*
X10160304Y12560808D01*
X9001404Y12560808D01*
X8997035Y12561773D01*
X8993530Y12564516D01*
X8991549Y12568428D01*
X8991396Y12572847D01*
X8993174Y12576962D01*
X9000540Y12587122D01*
X9007551Y12599873D01*
X9012936Y12613386D01*
X9016542Y12627508D01*
X9018371Y12641935D01*
X9018371Y12656464D01*
X9016542Y12670891D01*
X9012936Y12685014D01*
X9007551Y12698526D01*
X9000540Y12711277D01*
X8992006Y12723063D01*
X8982049Y12733680D01*
X8970822Y12742976D01*
X8958529Y12750749D01*
X8945372Y12756946D01*
X8931503Y12761468D01*
X8917228Y12764160D01*
X8902700Y12765074D01*
X8888171Y12764160D01*
X8873896Y12761468D01*
X8860028Y12756946D01*
X8846870Y12750749D01*
X8834577Y12742976D01*
X8823350Y12733680D01*
X8813393Y12723063D01*
X8804859Y12711277D01*
X8797848Y12698526D01*
X8792464Y12685014D01*
X8788857Y12670891D01*
X8787028Y12656464D01*
X8787028Y12641935D01*
X8788857Y12627508D01*
X8792464Y12613386D01*
X8797848Y12599873D01*
X8804859Y12587122D01*
X8812225Y12576962D01*
X8814003Y12572847D01*
X8813850Y12568428D01*
X8811869Y12564516D01*
X8808364Y12561773D01*
X8803995Y12560808D01*
X8240928Y12560808D01*
X8237016Y12561570D01*
X8233714Y12563805D01*
X8121345Y12676124D01*
X8115147Y12681254D01*
X8108442Y12684810D01*
X8097113Y12688112D01*
X8094116Y12690348D01*
X8092186Y12693548D01*
X8091525Y12697206D01*
X8091525Y12738608D01*
X8090814Y12744958D01*
X8088884Y12750393D01*
X8085785Y12755321D01*
X8081721Y12759385D01*
X8076793Y12762484D01*
X8071358Y12764414D01*
X8065008Y12765125D01*
X7886192Y12765125D01*
X7879842Y12764414D01*
X7874406Y12762484D01*
X7869478Y12759385D01*
X7865414Y12755321D01*
X7862316Y12750393D01*
X7860385Y12744958D01*
X7859674Y12738608D01*
X7859674Y12559792D01*
X7860385Y12553442D01*
X7862316Y12548006D01*
X7865414Y12543078D01*
X7869478Y12539014D01*
X7874406Y12535916D01*
X7879842Y12533985D01*
X7886192Y12533274D01*
X8065008Y12533274D01*
X8071358Y12533985D01*
X8076793Y12535916D01*
X8081721Y12539014D01*
X8085785Y12543078D01*
X8088884Y12548006D01*
X8090814Y12553442D01*
X8091525Y12559792D01*
X8091525Y12572288D01*
X8092287Y12576149D01*
X8094472Y12579451D01*
X8097774Y12581636D01*
X8101685Y12582448D01*
X8105546Y12581636D01*
X8108848Y12579451D01*
X8193074Y12495276D01*
X8199272Y12490145D01*
X8205978Y12486589D01*
X8213191Y12484404D01*
X8221218Y12483592D01*
X8803995Y12483592D01*
X8808364Y12482626D01*
X8811869Y12479883D01*
X8813850Y12475972D01*
X8814003Y12471552D01*
X8812225Y12467437D01*
X8804859Y12457277D01*
X8797848Y12444526D01*
X8792464Y12431014D01*
X8788857Y12416891D01*
X8787028Y12402464D01*
X8787028Y12387935D01*
X8788857Y12373508D01*
X8792464Y12359386D01*
X8797848Y12345873D01*
X8804859Y12333122D01*
X8813393Y12321336D01*
X8823350Y12310719D01*
X8834577Y12301423D01*
X8846870Y12293650D01*
X8860028Y12287453D01*
X8873896Y12282932D01*
X8888171Y12280239D01*
G37*
G36*
X6356350Y12414250D02*
G01*
X6403543Y12414250D01*
X6399733Y12421819D01*
X6392011Y12433046D01*
X6382867Y12443206D01*
X6372453Y12451994D01*
X6360972Y12459309D01*
X6356350Y12461443D01*
G37*
G36*
X10610850Y12414250D02*
G01*
X10658043Y12414250D01*
X10654233Y12421819D01*
X10646511Y12433046D01*
X10637367Y12443206D01*
X10626953Y12451994D01*
X10615472Y12459309D01*
X10610850Y12461443D01*
G37*
G36*
X6220104Y12414250D02*
G01*
X6267450Y12414250D01*
X6267450Y12461595D01*
X6256985Y12455855D01*
X6246012Y12447778D01*
X6236208Y12438278D01*
X6227724Y12427559D01*
X6220764Y12415824D01*
G37*
G36*
X10474604Y12414250D02*
G01*
X10521950Y12414250D01*
X10521950Y12461595D01*
X10511485Y12455855D01*
X10500512Y12447778D01*
X10490708Y12438278D01*
X10482224Y12427559D01*
X10475264Y12415824D01*
G37*
G36*
X6267450Y12532004D02*
G01*
X6267450Y12579350D01*
X6220104Y12579350D01*
X6220764Y12577775D01*
X6227724Y12566040D01*
X6236208Y12555321D01*
X6246012Y12545822D01*
X6256985Y12537744D01*
G37*
G36*
X10521950Y12532004D02*
G01*
X10521950Y12579350D01*
X10474604Y12579350D01*
X10475264Y12577775D01*
X10482224Y12566040D01*
X10490708Y12555321D01*
X10500512Y12545822D01*
X10511485Y12537744D01*
G37*
G36*
X6356350Y12532156D02*
G01*
X6360972Y12534290D01*
X6372453Y12541605D01*
X6382867Y12550394D01*
X6392011Y12560554D01*
X6399733Y12571780D01*
X6403543Y12579350D01*
X6356350Y12579350D01*
G37*
G36*
X10610850Y12532156D02*
G01*
X10615472Y12534290D01*
X10626953Y12541605D01*
X10637367Y12550394D01*
X10646511Y12560554D01*
X10654233Y12571780D01*
X10658043Y12579350D01*
X10610850Y12579350D01*
G37*
G36*
X6356350Y12668250D02*
G01*
X6403543Y12668250D01*
X6399733Y12675819D01*
X6392011Y12687046D01*
X6382867Y12697206D01*
X6372453Y12705994D01*
X6360972Y12713309D01*
X6356350Y12715443D01*
G37*
G36*
X10610850Y12668250D02*
G01*
X10658043Y12668250D01*
X10654233Y12675819D01*
X10646511Y12687046D01*
X10637367Y12697206D01*
X10626953Y12705994D01*
X10615472Y12713309D01*
X10610850Y12715443D01*
G37*
G36*
X6220104Y12668250D02*
G01*
X6267450Y12668250D01*
X6267450Y12715595D01*
X6256985Y12709855D01*
X6246012Y12701778D01*
X6236208Y12692278D01*
X6227724Y12681559D01*
X6220764Y12669824D01*
G37*
G36*
X10474604Y12668250D02*
G01*
X10521950Y12668250D01*
X10521950Y12715595D01*
X10511485Y12709855D01*
X10500512Y12701778D01*
X10490708Y12692278D01*
X10482224Y12681559D01*
X10475264Y12669824D01*
G37*

%LPD*%
G36*
X3639312Y9507829D02*
G01*
X3635400Y9508642D01*
X3632098Y9510877D01*
X3629914Y9514230D01*
X3629151Y9518192D01*
X3630015Y9522104D01*
X3632352Y9525406D01*
X3641598Y9534144D01*
X3652316Y9546793D01*
X3661613Y9560458D01*
X3669385Y9575088D01*
X3675481Y9590481D01*
X3679901Y9606432D01*
X3682593Y9622790D01*
X3683508Y9639554D01*
X3683508Y9791446D01*
X3682593Y9808210D01*
X3679901Y9824567D01*
X3675481Y9840518D01*
X3669385Y9855911D01*
X3661613Y9870541D01*
X3652316Y9884206D01*
X3641598Y9896856D01*
X3629558Y9908235D01*
X3616401Y9918242D01*
X3602228Y9926777D01*
X3587191Y9933736D01*
X3571494Y9939020D01*
X3555339Y9942576D01*
X3538880Y9944354D01*
X3522319Y9944354D01*
X3505860Y9942576D01*
X3489706Y9939020D01*
X3474008Y9933736D01*
X3458972Y9926777D01*
X3444798Y9918242D01*
X3431641Y9908235D01*
X3419601Y9896856D01*
X3408883Y9884206D01*
X3399586Y9870541D01*
X3391814Y9855911D01*
X3385718Y9840518D01*
X3381298Y9824567D01*
X3378606Y9808210D01*
X3377692Y9791446D01*
X3377692Y9639554D01*
X3378606Y9622790D01*
X3381298Y9606432D01*
X3382772Y9601098D01*
X3382975Y9596678D01*
X3381349Y9592614D01*
X3378098Y9589617D01*
X3373882Y9588246D01*
X3369513Y9588855D01*
X3365804Y9591192D01*
X2562961Y10394035D01*
X2560726Y10397337D01*
X2559964Y10401249D01*
X2560726Y10405110D01*
X2562961Y10408412D01*
X2566212Y10410596D01*
X2570124Y10411409D01*
X2635554Y10411409D01*
X2641854Y10412120D01*
X2647289Y10414000D01*
X2652217Y10417098D01*
X2656281Y10421162D01*
X2659380Y10426090D01*
X2661310Y10431526D01*
X2662021Y10437876D01*
X2662021Y10593324D01*
X2661310Y10599674D01*
X2659380Y10605109D01*
X2656281Y10610037D01*
X2652217Y10614101D01*
X2647289Y10617200D01*
X2641854Y10619079D01*
X2635554Y10619790D01*
X2625648Y10619790D01*
X2621737Y10620603D01*
X2618435Y10622788D01*
X2616250Y10626090D01*
X2615438Y10629950D01*
X2615438Y10883849D01*
X2616250Y10887710D01*
X2618435Y10891012D01*
X2621737Y10893196D01*
X2625648Y10894009D01*
X2638044Y10894009D01*
X2644343Y10894720D01*
X2649829Y10896600D01*
X2654706Y10899698D01*
X2658821Y10903762D01*
X2661869Y10908690D01*
X2663799Y10914126D01*
X2664510Y10920476D01*
X2664510Y10950194D01*
X2665171Y10953851D01*
X2667152Y10957052D01*
X2670098Y10959287D01*
X2681478Y10962589D01*
X2688132Y10966145D01*
X2694381Y10971276D01*
X3231692Y11508536D01*
X3234994Y11510772D01*
X3238855Y11511534D01*
X3654551Y11511534D01*
X3658412Y11510772D01*
X3661714Y11508536D01*
X3663899Y11505285D01*
X3664712Y11501374D01*
X3664712Y11441938D01*
X3665423Y11435588D01*
X3667302Y11430152D01*
X3670401Y11425224D01*
X3674465Y11421160D01*
X3679393Y11418062D01*
X3684828Y11416131D01*
X3689705Y11414963D01*
X3692601Y11412677D01*
X3694531Y11409527D01*
X3695192Y11405920D01*
X3695192Y11237874D01*
X3694429Y11234013D01*
X3692194Y11230711D01*
X3688943Y11228527D01*
X3685032Y11227714D01*
X3236671Y11227714D01*
X3228644Y11226952D01*
X3221431Y11224768D01*
X3214725Y11221212D01*
X3208528Y11216081D01*
X3060344Y11067897D01*
X3057194Y11065764D01*
X3053486Y11064951D01*
X3049727Y11065560D01*
X3046476Y11067491D01*
X3044139Y11070488D01*
X3043072Y11074146D01*
X3042259Y11082324D01*
X3040380Y11087709D01*
X3037281Y11092637D01*
X3033217Y11096701D01*
X3028289Y11099800D01*
X3022854Y11101679D01*
X3016554Y11102390D01*
X2899156Y11102390D01*
X2892856Y11101679D01*
X2887370Y11099800D01*
X2882493Y11096701D01*
X2878378Y11092637D01*
X2875330Y11087709D01*
X2873400Y11082274D01*
X2872689Y11075924D01*
X2872689Y10920476D01*
X2873400Y10914126D01*
X2875330Y10908690D01*
X2878378Y10903762D01*
X2882493Y10899698D01*
X2887370Y10896600D01*
X2892856Y10894720D01*
X2899156Y10894009D01*
X3016554Y10894009D01*
X3022854Y10894720D01*
X3028289Y10896600D01*
X3033217Y10899698D01*
X3037281Y10903762D01*
X3040380Y10908690D01*
X3042310Y10914126D01*
X3043021Y10920476D01*
X3043021Y10950194D01*
X3043682Y10953851D01*
X3045663Y10957052D01*
X3048609Y10959287D01*
X3059988Y10962589D01*
X3066643Y10966145D01*
X3072892Y10971276D01*
X3249168Y11147552D01*
X3252470Y11149736D01*
X3256381Y11150498D01*
X3705504Y11150498D01*
X3709415Y11149736D01*
X3712718Y11147552D01*
X3714902Y11144250D01*
X3715715Y11140338D01*
X3715715Y11085068D01*
X3714953Y11081308D01*
X3712921Y11078108D01*
X3709822Y11075873D01*
X3705707Y11073993D01*
X3694328Y11066729D01*
X3684066Y11058042D01*
X3675024Y11048034D01*
X3667404Y11036909D01*
X3661308Y11024870D01*
X3656888Y11012170D01*
X3654196Y10998962D01*
X3653332Y10985500D01*
X3654196Y10972038D01*
X3656888Y10958830D01*
X3661308Y10946130D01*
X3667404Y10934090D01*
X3675024Y10922965D01*
X3684066Y10912957D01*
X3694328Y10904270D01*
X3705707Y10897006D01*
X3717950Y10891367D01*
X3730802Y10887354D01*
X3744112Y10885119D01*
X3757574Y10884662D01*
X3770985Y10886033D01*
X3784092Y10889132D01*
X3796639Y10894009D01*
X3808476Y10900460D01*
X3819347Y10908436D01*
X3828999Y10917834D01*
X3837381Y10928400D01*
X3844239Y10939983D01*
X3849522Y10952429D01*
X3853078Y10965383D01*
X3854856Y10978743D01*
X3854856Y10992256D01*
X3853078Y11005616D01*
X3849522Y11018570D01*
X3844239Y11031016D01*
X3837381Y11042599D01*
X3828999Y11053165D01*
X3819347Y11062563D01*
X3808476Y11070539D01*
X3798163Y11076178D01*
X3795369Y11078464D01*
X3793540Y11081562D01*
X3792931Y11085068D01*
X3792931Y11168126D01*
X3792118Y11176152D01*
X3789934Y11183366D01*
X3786378Y11190071D01*
X3781247Y11196269D01*
X3775405Y11202162D01*
X3773170Y11205464D01*
X3772408Y11209324D01*
X3772408Y11405920D01*
X3773068Y11409527D01*
X3774998Y11412677D01*
X3777894Y11414963D01*
X3782771Y11416131D01*
X3788206Y11418062D01*
X3793134Y11421160D01*
X3797198Y11425224D01*
X3800297Y11430152D01*
X3802176Y11435588D01*
X3802887Y11441938D01*
X3802887Y11501374D01*
X3803700Y11505285D01*
X3805885Y11508536D01*
X3809187Y11510772D01*
X3813048Y11511534D01*
X3900068Y11511534D01*
X3903878Y11510772D01*
X3907129Y11508638D01*
X3909364Y11505438D01*
X3910228Y11501628D01*
X3909568Y11497767D01*
X3907485Y11494465D01*
X3904335Y11492179D01*
X3899001Y11489639D01*
X3890924Y11484051D01*
X3883964Y11477091D01*
X3878376Y11469014D01*
X3874211Y11460124D01*
X3871671Y11450624D01*
X3870807Y11440820D01*
X3871671Y11431066D01*
X3874211Y11421567D01*
X3878376Y11412677D01*
X3883964Y11404600D01*
X3890924Y11397640D01*
X3899001Y11392052D01*
X3907891Y11387886D01*
X3917391Y11385346D01*
X3927195Y11384483D01*
X3936949Y11385346D01*
X3946448Y11387886D01*
X3955338Y11392052D01*
X3959656Y11394490D01*
X3962704Y11394948D01*
X4272330Y11394948D01*
X4276242Y11394186D01*
X4279493Y11391950D01*
X4281728Y11388648D01*
X4282490Y11384788D01*
X4282490Y11281206D01*
X4283202Y11274856D01*
X4285132Y11269421D01*
X4288180Y11264493D01*
X4292295Y11260429D01*
X4297172Y11257330D01*
X4302658Y11255451D01*
X4308957Y11254740D01*
X4377842Y11254740D01*
X4384141Y11255451D01*
X4389628Y11257330D01*
X4394504Y11260429D01*
X4398619Y11264493D01*
X4401667Y11269421D01*
X4403598Y11274856D01*
X4404309Y11281206D01*
X4404309Y11405057D01*
X4403598Y11411407D01*
X4401667Y11416842D01*
X4398619Y11421770D01*
X4391507Y11428374D01*
X4389882Y11431371D01*
X4389323Y11434724D01*
X4389120Y11444935D01*
X4387900Y11451945D01*
X4388104Y11456314D01*
X4390136Y11460175D01*
X4393641Y11462867D01*
X4397908Y11463782D01*
X4489602Y11463782D01*
X4497628Y11464594D01*
X4504842Y11466779D01*
X4511497Y11470335D01*
X4517745Y11475466D01*
X5204053Y12161774D01*
X5207863Y12164161D01*
X5212334Y12164720D01*
X5216601Y12163247D01*
X5223865Y12155982D01*
X5228793Y12152934D01*
X5234838Y12150801D01*
X5238394Y12148667D01*
X5240832Y12145264D01*
X5241645Y12141200D01*
X5240832Y12137136D01*
X5238394Y12133732D01*
X5234838Y12131598D01*
X5228793Y12129465D01*
X5223865Y12126417D01*
X5219801Y12122302D01*
X5216702Y12117425D01*
X5214823Y12111939D01*
X5214112Y12105640D01*
X5214112Y12026138D01*
X5214823Y12019788D01*
X5216702Y12014352D01*
X5219801Y12009424D01*
X5223865Y12005360D01*
X5228793Y12002262D01*
X5230469Y12001652D01*
X5234025Y11999569D01*
X5236413Y11996216D01*
X5237276Y11992203D01*
X5237327Y11988546D01*
X5238546Y11979859D01*
X5241239Y11971832D01*
X5245354Y11964416D01*
X5251094Y11957558D01*
X5291226Y11917426D01*
X5293410Y11914124D01*
X5294172Y11910212D01*
X5294172Y10821060D01*
X5293614Y10817707D01*
X5291988Y10814710D01*
X5288991Y10812170D01*
X5284876Y10808106D01*
X5281828Y10803178D01*
X5279898Y10797743D01*
X5279186Y10791393D01*
X5279186Y10715802D01*
X5278424Y10711942D01*
X5276189Y10708640D01*
X5272938Y10706404D01*
X5269026Y10705642D01*
X5265115Y10706404D01*
X5261864Y10708640D01*
X5255107Y10715345D01*
X5252923Y10718647D01*
X5252161Y10722559D01*
X5252161Y10819638D01*
X5251348Y10827664D01*
X5249164Y10834878D01*
X5245608Y10841532D01*
X5240477Y10847781D01*
X5075783Y11012424D01*
X5069586Y11017554D01*
X5062880Y11021110D01*
X5055666Y11023295D01*
X5047640Y11024108D01*
X4193997Y11024108D01*
X4190136Y11024870D01*
X4186834Y11027054D01*
X4177487Y11042599D01*
X4169105Y11053165D01*
X4159453Y11062563D01*
X4148582Y11070539D01*
X4136745Y11076990D01*
X4124198Y11081867D01*
X4111091Y11084966D01*
X4097680Y11086338D01*
X4084218Y11085880D01*
X4070908Y11083645D01*
X4058056Y11079632D01*
X4045813Y11073993D01*
X4034434Y11066729D01*
X4024172Y11058042D01*
X4015130Y11048034D01*
X4007510Y11036909D01*
X4001414Y11024870D01*
X3996994Y11012170D01*
X3994302Y10998962D01*
X3993438Y10985500D01*
X3994302Y10972038D01*
X3996994Y10958830D01*
X4001414Y10946130D01*
X4007510Y10934090D01*
X4015130Y10922965D01*
X4024172Y10912957D01*
X4034434Y10904270D01*
X4045813Y10897006D01*
X4058056Y10891367D01*
X4070908Y10887354D01*
X4084218Y10885119D01*
X4097680Y10884662D01*
X4111091Y10886033D01*
X4124198Y10889132D01*
X4136745Y10894009D01*
X4148582Y10900460D01*
X4159453Y10908436D01*
X4169105Y10917834D01*
X4177487Y10928400D01*
X4186834Y10943945D01*
X4190136Y10946130D01*
X4193997Y10946892D01*
X5027930Y10946892D01*
X5031841Y10946130D01*
X5035143Y10943894D01*
X5170982Y10808055D01*
X5173167Y10804753D01*
X5173929Y10800892D01*
X5173929Y10761218D01*
X5174945Y10756900D01*
X5174945Y10702340D01*
X5173929Y10698022D01*
X5173929Y10641076D01*
X5184546Y10641076D01*
X5190845Y10641787D01*
X5196281Y10643666D01*
X5202377Y10647578D01*
X5205526Y10648950D01*
X5208930Y10649153D01*
X5212232Y10648188D01*
X5215026Y10646206D01*
X5271008Y10590276D01*
X5276240Y10585958D01*
X5278831Y10582757D01*
X5279948Y10578744D01*
X5279390Y10574680D01*
X5277205Y10571175D01*
X5273852Y10568787D01*
X5269788Y10567924D01*
X5210657Y10567924D01*
X5204358Y10567212D01*
X5198872Y10565333D01*
X5193995Y10562234D01*
X5189880Y10558170D01*
X5186832Y10553242D01*
X5184902Y10547807D01*
X5184190Y10541457D01*
X5184190Y10417606D01*
X5184902Y10411256D01*
X5186832Y10405821D01*
X5189880Y10400893D01*
X5196992Y10394289D01*
X5198618Y10391292D01*
X5199176Y10387939D01*
X5199227Y9691522D01*
X5200446Y9682784D01*
X5203139Y9674758D01*
X5207254Y9667392D01*
X5212994Y9660483D01*
X5225084Y9648393D01*
X5227167Y9645345D01*
X5228031Y9641738D01*
X5227574Y9638080D01*
X5224983Y9630003D01*
X5222240Y9615728D01*
X5221325Y9601200D01*
X5222240Y9586671D01*
X5224983Y9572396D01*
X5229453Y9558528D01*
X5235651Y9545370D01*
X5243474Y9533077D01*
X5250535Y9524492D01*
X5252415Y9521139D01*
X5252872Y9517380D01*
X5251907Y9513671D01*
X5249672Y9510623D01*
X5246471Y9508591D01*
X5242712Y9507829D01*
X4561687Y9507829D01*
X4557928Y9508591D01*
X4554728Y9510623D01*
X4552492Y9513671D01*
X4551527Y9517380D01*
X4551984Y9521139D01*
X4553864Y9524492D01*
X4560925Y9533077D01*
X4568748Y9545370D01*
X4574946Y9558528D01*
X4579416Y9572396D01*
X4582160Y9586671D01*
X4583074Y9601200D01*
X4582160Y9615728D01*
X4579416Y9630003D01*
X4574946Y9643872D01*
X4568748Y9657029D01*
X4560925Y9669322D01*
X4551680Y9680549D01*
X4541062Y9690506D01*
X4529277Y9699040D01*
X4516526Y9706051D01*
X4503013Y9711436D01*
X4488891Y9715042D01*
X4474464Y9716871D01*
X4459935Y9716871D01*
X4445457Y9715042D01*
X4431385Y9711436D01*
X4417872Y9706051D01*
X4405122Y9699040D01*
X4393336Y9690506D01*
X4382719Y9680549D01*
X4373422Y9669322D01*
X4365650Y9657029D01*
X4359452Y9643872D01*
X4354931Y9630003D01*
X4352239Y9615728D01*
X4351324Y9601200D01*
X4352239Y9586671D01*
X4354931Y9572396D01*
X4359452Y9558528D01*
X4365650Y9545370D01*
X4373422Y9533077D01*
X4380534Y9524492D01*
X4382363Y9521139D01*
X4382871Y9517380D01*
X4381906Y9513671D01*
X4379671Y9510623D01*
X4376470Y9508591D01*
X4372711Y9507829D01*
X4147312Y9507829D01*
X4143400Y9508642D01*
X4140098Y9510877D01*
X4137914Y9514230D01*
X4137151Y9518192D01*
X4138015Y9522104D01*
X4140352Y9525406D01*
X4149598Y9534144D01*
X4160316Y9546793D01*
X4169613Y9560458D01*
X4177385Y9575088D01*
X4183481Y9590481D01*
X4187901Y9606432D01*
X4190593Y9622790D01*
X4191508Y9639554D01*
X4191508Y9791446D01*
X4190593Y9808210D01*
X4187901Y9824567D01*
X4183481Y9840518D01*
X4177385Y9855911D01*
X4169613Y9870541D01*
X4160316Y9884206D01*
X4149598Y9896856D01*
X4137558Y9908235D01*
X4124401Y9918242D01*
X4110228Y9926777D01*
X4095191Y9933736D01*
X4079494Y9939020D01*
X4063339Y9942576D01*
X4046880Y9944354D01*
X4030319Y9944354D01*
X4013860Y9942576D01*
X3997706Y9939020D01*
X3982008Y9933736D01*
X3966972Y9926777D01*
X3952798Y9918242D01*
X3939641Y9908235D01*
X3927601Y9896856D01*
X3916883Y9884206D01*
X3907586Y9870541D01*
X3899814Y9855911D01*
X3893718Y9840518D01*
X3889298Y9824567D01*
X3886606Y9808210D01*
X3885692Y9791446D01*
X3885692Y9639554D01*
X3886606Y9622790D01*
X3889298Y9606432D01*
X3893718Y9590481D01*
X3899814Y9575088D01*
X3907586Y9560458D01*
X3916883Y9546793D01*
X3927601Y9534144D01*
X3936847Y9525406D01*
X3939184Y9522104D01*
X3940048Y9518192D01*
X3939286Y9514230D01*
X3937101Y9510877D01*
X3933799Y9508642D01*
X3929887Y9507829D01*
G37*

%LPC*%
G36*
X4673854Y10497312D02*
G01*
X4687062Y10497312D01*
X4693412Y10498023D01*
X4698847Y10499902D01*
X4703775Y10503001D01*
X4707839Y10507065D01*
X4710938Y10511993D01*
X4712868Y10517428D01*
X4713579Y10523778D01*
X4713579Y10538460D01*
X4673854Y10538460D01*
G37*
G36*
X4456938Y10497312D02*
G01*
X4536440Y10497312D01*
X4542739Y10498023D01*
X4548225Y10499902D01*
X4553102Y10503001D01*
X4557217Y10507065D01*
X4560265Y10511993D01*
X4562398Y10518038D01*
X4564532Y10521594D01*
X4567936Y10524032D01*
X4572000Y10524845D01*
X4576064Y10524032D01*
X4579467Y10521594D01*
X4581601Y10518038D01*
X4583734Y10511993D01*
X4586782Y10507065D01*
X4590897Y10503001D01*
X4595774Y10499902D01*
X4601260Y10498023D01*
X4607560Y10497312D01*
X4620818Y10497312D01*
X4620818Y10538460D01*
X4573066Y10538460D01*
X4569155Y10539222D01*
X4565904Y10541406D01*
X4563668Y10544708D01*
X4562906Y10548620D01*
X4562906Y10584180D01*
X4563668Y10588091D01*
X4565904Y10591393D01*
X4569155Y10593578D01*
X4573066Y10594340D01*
X4620818Y10594340D01*
X4620818Y10635488D01*
X4607560Y10635488D01*
X4601260Y10634776D01*
X4595774Y10632897D01*
X4590897Y10629798D01*
X4586782Y10625734D01*
X4583734Y10620806D01*
X4581601Y10614761D01*
X4579467Y10611205D01*
X4576064Y10608767D01*
X4572000Y10607954D01*
X4567936Y10608767D01*
X4564532Y10611205D01*
X4562398Y10614761D01*
X4560265Y10620806D01*
X4557217Y10625734D01*
X4553102Y10629798D01*
X4548225Y10632897D01*
X4542739Y10634776D01*
X4536440Y10635488D01*
X4456938Y10635488D01*
X4450588Y10634776D01*
X4445152Y10632897D01*
X4440224Y10629798D01*
X4436160Y10625734D01*
X4433062Y10620806D01*
X4430826Y10616488D01*
X4427880Y10614152D01*
X4424222Y10613034D01*
X4420463Y10613288D01*
X4417060Y10614202D01*
X4407306Y10615066D01*
X4397502Y10614202D01*
X4388002Y10611662D01*
X4379112Y10607497D01*
X4371035Y10601909D01*
X4364075Y10594949D01*
X4358487Y10586872D01*
X4354322Y10577982D01*
X4351782Y10568482D01*
X4350918Y10558678D01*
X4351782Y10548924D01*
X4354322Y10539425D01*
X4358487Y10530535D01*
X4364075Y10522458D01*
X4371035Y10515498D01*
X4379112Y10509910D01*
X4388002Y10505744D01*
X4397502Y10503204D01*
X4407306Y10502341D01*
X4417060Y10503204D01*
X4431588Y10507167D01*
X4435602Y10506456D01*
X4439056Y10504170D01*
X4440224Y10503001D01*
X4445152Y10499902D01*
X4450588Y10498023D01*
G37*
G36*
X4673854Y10594340D02*
G01*
X4713579Y10594340D01*
X4713579Y10609021D01*
X4712868Y10615371D01*
X4710938Y10620806D01*
X4707839Y10625734D01*
X4703775Y10629798D01*
X4698847Y10632897D01*
X4693412Y10634776D01*
X4687062Y10635488D01*
X4673854Y10635488D01*
G37*
G36*
X5115661Y10641076D02*
G01*
X5126278Y10641076D01*
X5126278Y10691876D01*
X5089194Y10691876D01*
X5089194Y10667542D01*
X5089906Y10661192D01*
X5091836Y10655757D01*
X5094884Y10650829D01*
X5098999Y10646765D01*
X5103876Y10643666D01*
X5109362Y10641787D01*
G37*
G36*
X5089194Y10767060D02*
G01*
X5126278Y10767060D01*
X5126278Y10817860D01*
X5115661Y10817860D01*
X5109362Y10817148D01*
X5103876Y10815269D01*
X5098999Y10812170D01*
X5094884Y10808106D01*
X5091836Y10803178D01*
X5089906Y10797743D01*
X5089194Y10791393D01*
G37*

%LPD*%
D10*
X5150104Y10638840D02*
G01*
X5218760Y10570184D01*
X6241973Y10570184D01*
X6253708Y10558449D01*
X7366000Y7772400D02*
G01*
X6908800Y7772400D01*
X6781800Y7899400D01*
X10566400Y12369800D02*
G01*
X10214305Y12017705D01*
X6663994Y12017705D01*
X6311900Y12369800D01*
X4715763Y10566400D02*
G01*
X4788204Y10638840D01*
X5150104Y10638840D01*
X6311900Y12623800D02*
G01*
X6311900Y12369800D01*
X5994400Y8008340D02*
G01*
X6672859Y8008340D01*
X6781800Y7899400D01*
X3805123Y11632336D02*
G01*
X3811168Y11638381D01*
X4248404Y11638381D01*
X4248404Y11638381D02*
G01*
X4248404Y11839092D01*
X4779111Y12369800D01*
X6311900Y12369800D01*
X4248404Y11593068D02*
G01*
X4248404Y11638381D01*
X3733800Y11632336D02*
G01*
X2640736Y11632336D01*
X2095500Y11087100D01*
X3759708Y11632336D02*
G01*
X3733800Y11632336D01*
X3759708Y11632336D02*
G01*
X3805123Y11632336D01*
X5150104Y10729468D02*
G01*
X5150104Y10708894D01*
X5150104Y10684154D02*
G01*
X5150104Y10638840D01*
X5150104Y10684154D02*
G01*
X5150104Y10708894D01*
X4647336Y10566400D02*
G01*
X4715763Y10566400D01*
X9474200Y11049000D02*
G01*
X10274300Y11049000D01*
D11*
X7975600Y8077200D02*
G01*
X6683908Y8077200D01*
X5715609Y9045498D01*
X4269181Y9045498D01*
X6596202Y12623800D02*
G01*
X6596202Y12369800D01*
X4269181Y9045498D02*
G01*
X4160291Y9154388D01*
X2396870Y9154388D01*
X2287981Y9045498D01*
X1079500Y11087100D02*
G01*
X1651000Y10515600D01*
X2198344Y10515600D01*
D10*
X2609468Y10998200D02*
G01*
X2576855Y10965586D01*
X2576855Y10515600D01*
X2623032Y10998200D02*
G01*
X2666720Y10998200D01*
X2579344Y10998200D02*
G01*
X2609468Y10998200D01*
X2623032Y10998200D02*
G01*
X2609468Y10998200D01*
X6849643Y11645900D02*
G01*
X6210554Y12284989D01*
X5219293Y12284989D01*
X5211851Y12277547D01*
X5211851Y12224181D01*
X4490084Y11502415D01*
X4106290Y11502415D01*
X4058564Y11550142D01*
X3218662Y11550142D01*
X2666720Y10998200D01*
X6849643Y11645900D02*
G01*
X6893331Y11645900D01*
X6805955Y11645900D02*
G01*
X6849643Y11645900D01*
X7975600Y11633200D02*
G01*
X6906031Y11633200D01*
X6893331Y11645900D01*
X3733800Y11413236D02*
G01*
X3733800Y11189131D01*
X3733800Y11189131D02*
G01*
X3236163Y11189131D01*
X3045231Y10998200D01*
X3754297Y10985500D02*
G01*
X3754297Y11168634D01*
X3733800Y11189131D01*
X2957855Y10998200D02*
G01*
X3045231Y10998200D01*
X3733800Y11481663D02*
G01*
X3733800Y11413236D01*
X5713272Y11872391D02*
G01*
X6113602Y11872391D01*
X6340093Y11645900D01*
X6427444Y11645900D02*
G01*
X6340093Y11645900D01*
X7975600Y12649200D02*
G01*
X8093709Y12649200D01*
X8093709Y12649200D02*
G01*
X8220709Y12522200D01*
X10180497Y12522200D01*
X10282097Y12623800D01*
X8902700Y8839200D02*
G01*
X8521700Y9220200D01*
X7108596Y9220200D01*
X4469688Y11859107D02*
G01*
X4483963Y11873382D01*
X4483963Y11950700D01*
X9283700Y10592663D02*
G01*
X9283700Y10524236D01*
X9283700Y10524236D02*
G01*
X8995663Y10236200D01*
X8849182Y10236200D01*
X8723172Y10110190D01*
X8723172Y9272727D01*
X8902700Y9093200D01*
X10186263Y10693400D02*
G01*
X9682225Y10693400D01*
X8971025Y9982200D01*
X8854490Y9982200D01*
X8766835Y9894544D01*
X8766835Y9483064D01*
X8902700Y9347200D01*
X8902700Y9601200D02*
G01*
X9038564Y9737064D01*
X9038564Y9843973D01*
X9764522Y10569930D01*
X10718266Y10569930D01*
X10803636Y10655300D01*
X10872063Y10655300D02*
G01*
X10803636Y10655300D01*
X5283200Y12216536D02*
G01*
X5283200Y12148083D01*
X5283200Y12148083D02*
G01*
X5351652Y12148083D01*
X5993536Y11506200D01*
X8775700Y11506200D01*
X8902700Y11379200D01*
X7975600Y10617200D02*
G01*
X5298668Y10617200D01*
X5213527Y10702340D01*
X5213527Y10820120D01*
X5048148Y10985500D01*
X4094302Y10985500D01*
X1587500Y11087100D02*
G01*
X1972741Y10701858D01*
X2200529Y10701858D01*
X3433140Y9469246D01*
X7335647Y9469246D01*
X7975600Y10109200D01*
X4407281Y10558703D02*
G01*
X4420539Y10558703D01*
X4428236Y10566400D01*
X4496663Y10566400D02*
G01*
X4428236Y10566400D01*
D11*
X4343400Y11440845D02*
G01*
X3927170Y11440845D01*
X4343400Y11343131D02*
G01*
X4343400Y11440845D01*
X5245100Y10479531D02*
G01*
X5245100Y9693300D01*
X5337200Y9601200D01*
X4634636Y11950700D02*
G01*
X4634636Y11872290D01*
X4438395Y11593068D02*
G01*
X4438395Y11690781D01*
X4634636Y11872290D02*
G01*
X4619904Y11872290D01*
X4438395Y11690781D01*
X5283200Y12065863D02*
G01*
X5283200Y11990349D01*
X5340095Y10729468D02*
G01*
X5340095Y11933453D01*
X5283200Y11990349D01*
D10*
X11022736Y10655300D02*
G01*
X11022736Y10726623D01*
X11022736Y10726623D02*
G01*
X11060963Y10764850D01*
X11060963Y11151336D01*
X10947400Y11264900D01*
X10336936Y10693400D02*
G01*
X10336936Y10764723D01*
X10336936Y10764723D02*
G01*
X10397439Y10825226D01*
X10397439Y11179860D01*
X10274300Y11303000D01*
X9283700Y10743336D02*
G01*
X9283700Y11112500D01*
X9474200Y11303000D01*
G36*
X2257600Y10593900D02*
G01*
X2257600Y10437299D01*
X2139099Y10437299D01*
X2139099Y10593900D01*
G37*
G36*
X2517599Y10593900D02*
G01*
X2517599Y10437299D01*
X2636100Y10437299D01*
X2636100Y10593900D01*
G37*
G36*
X2898599Y10919899D02*
G01*
X2898599Y11076500D01*
X3017100Y11076500D01*
X3017100Y10919899D01*
G37*
G36*
X2638600Y10919899D02*
G01*
X2638600Y11076500D01*
X2520099Y11076500D01*
X2520099Y10919899D01*
G37*
G36*
X6486700Y11724200D02*
G01*
X6486700Y11567599D01*
X6368199Y11567599D01*
X6368199Y11724200D01*
G37*
G36*
X6746699Y11724200D02*
G01*
X6746699Y11567599D01*
X6865200Y11567599D01*
X6865200Y11724200D01*
G37*
G36*
X4308398Y11405631D02*
G01*
X4378401Y11405631D01*
X4378401Y11280632D01*
X4308398Y11280632D01*
G37*
G36*
X4213402Y11655577D02*
G01*
X4283405Y11655577D01*
X4283405Y11530558D01*
X4213402Y11530558D01*
G37*
G36*
X4403394Y11655577D02*
G01*
X4473397Y11655577D01*
X4473397Y11530558D01*
X4403394Y11530558D01*
G37*
G36*
X5210098Y10542031D02*
G01*
X5280101Y10542031D01*
X5280101Y10417032D01*
X5210098Y10417032D01*
G37*
G36*
X5115102Y10791977D02*
G01*
X5185105Y10791977D01*
X5185105Y10666958D01*
X5115102Y10666958D01*
G37*
G36*
X5305094Y10791977D02*
G01*
X5375097Y10791977D01*
X5375097Y10666958D01*
X5305094Y10666958D01*
G37*
G36*
X3777000Y11592001D02*
G01*
X3690599Y11592001D01*
X3690599Y11672648D01*
X3777000Y11672648D01*
G37*
D15*
G01*
X3733800Y11481663D03*
G36*
X4536998Y10609600D02*
G01*
X4536998Y10523199D01*
X4456351Y10523199D01*
X4456351Y10609600D01*
G37*
G36*
X4607001Y10609600D02*
G01*
X4607001Y10523199D01*
X4687648Y10523199D01*
X4687648Y10609600D01*
G37*
G36*
X4594301Y11907499D02*
G01*
X4594301Y11993900D01*
X4674948Y11993900D01*
X4674948Y11907499D01*
G37*
G36*
X4524298Y11907499D02*
G01*
X4524298Y11993900D01*
X4443651Y11993900D01*
X4443651Y11907499D01*
G37*
G36*
X5239999Y12106198D02*
G01*
X5326400Y12106198D01*
X5326400Y12025551D01*
X5239999Y12025551D01*
G37*
G01*
X5283200Y12216536D03*
G36*
X9326900Y10703001D02*
G01*
X9240499Y10703001D01*
X9240499Y10783648D01*
X9326900Y10783648D01*
G37*
G01*
X9283700Y10592663D03*
G36*
X10296601Y10650199D02*
G01*
X10296601Y10736600D01*
X10377248Y10736600D01*
X10377248Y10650199D01*
G37*
G36*
X10226598Y10650199D02*
G01*
X10226598Y10736600D01*
X10145951Y10736600D01*
X10145951Y10650199D01*
G37*
G36*
X10982401Y10612099D02*
G01*
X10982401Y10698500D01*
X11063048Y10698500D01*
X11063048Y10612099D01*
G37*
G36*
X10912398Y10612099D02*
G01*
X10912398Y10698500D01*
X10831751Y10698500D01*
X10831751Y10612099D01*
G37*
D17*
G01*
X7391400Y8343900D03*
G01*
X7645400Y8343900D03*
G01*
X7620000Y7772400D03*
G01*
X7366000Y7772400D03*
G01*
X10282097Y12369800D03*
G01*
X10282097Y12623800D03*
G01*
X10566400Y12369800D03*
G01*
X10566400Y12623800D03*
G01*
X6596202Y12369800D03*
G01*
X6596202Y12623800D03*
G01*
X6311900Y12369800D03*
G01*
X6311900Y12623800D03*
D18*
G01*
X8902700Y7823200D03*
D19*
G01*
X8902700Y8077200D03*
G01*
X8902700Y8331200D03*
G01*
X8902700Y8585200D03*
G01*
X8902700Y8839200D03*
G01*
X8902700Y9093200D03*
G01*
X8902700Y9347200D03*
G01*
X8902700Y9601200D03*
G01*
X8902700Y9855200D03*
G01*
X8902700Y10109200D03*
G01*
X8902700Y10363200D03*
G01*
X8902700Y10617200D03*
G01*
X8902700Y10871200D03*
G01*
X8902700Y11125200D03*
G01*
X8902700Y11379200D03*
G01*
X8902700Y11633200D03*
G01*
X8902700Y11887200D03*
G01*
X8902700Y12141200D03*
G01*
X8902700Y12395200D03*
G01*
X8902700Y12649200D03*
D18*
G01*
X7975600Y12649200D03*
D19*
G01*
X7975600Y12395200D03*
G01*
X7975600Y12141200D03*
G01*
X7975600Y11887200D03*
G01*
X7975600Y11633200D03*
G01*
X7975600Y11379200D03*
G01*
X7975600Y11125200D03*
G01*
X7975600Y10871200D03*
G01*
X7975600Y10617200D03*
G01*
X7975600Y10363200D03*
G01*
X7975600Y10109200D03*
G01*
X7975600Y9855200D03*
G01*
X7975600Y9601200D03*
G01*
X7975600Y9347200D03*
G01*
X7975600Y9093200D03*
G01*
X7975600Y8839200D03*
G01*
X7975600Y8585200D03*
G01*
X7975600Y8331200D03*
G01*
X7975600Y8077200D03*
G01*
X7975600Y7823200D03*
G01*
X2295499Y9448800D03*
G01*
X3165500Y9448800D03*
G01*
X4467199Y9601200D03*
G01*
X5337200Y9601200D03*
D20*
G01*
X4094302Y10985500D03*
G01*
X3754297Y10985500D03*
D21*
G01*
X5232400Y8008340D03*
D22*
G01*
X5486400Y8008340D03*
G01*
X5740400Y8008340D03*
G01*
X5994400Y8008340D03*
D17*
G01*
X2488006Y8445500D03*
D23*
G01*
X2287981Y9045498D03*
G01*
X2287981Y7845501D03*
G01*
X1068019Y9045498D03*
G01*
X1068019Y7845501D03*
D17*
G01*
X4469206Y8445500D03*
D23*
G01*
X4269181Y9045498D03*
G01*
X4269181Y7845501D03*
G01*
X3049193Y9045498D03*
G01*
X3049193Y7845501D03*
D24*
G01*
X10947400Y11264900D03*
G01*
X10947400Y11010900D03*
G01*
X10274300Y11303000D03*
G01*
X10274300Y11049000D03*
G01*
X9474200Y11303000D03*
G01*
X9474200Y11049000D03*
D12*
G01*
X6253708Y10558449D03*
G01*
X5713272Y11872391D03*
G01*
X4469688Y11859107D03*
G01*
X7108596Y9220200D03*
G01*
X4407281Y10558703D03*
G01*
X3927170Y11440845D03*
D25*
X6705600Y7899400D02*
G01*
X6858000Y7899400D01*
X6705600Y8407400D02*
G01*
X6858000Y8407400D01*
X6705600Y8915400D02*
G01*
X6858000Y8915400D01*
X4038600Y9791700D02*
G01*
X4038600Y9639300D01*
X3530600Y9639300D02*
G01*
X3530600Y9791700D01*
X1930400Y9791700D02*
G01*
X1930400Y9639300D01*
X1422400Y9639300D02*
G01*
X1422400Y9791700D01*
X2095500Y11899900D02*
G01*
X2095500Y12052300D01*
X1587500Y11899900D02*
G01*
X1587500Y12052300D01*
X1079500Y11899900D02*
G01*
X1079500Y12052300D01*
X1079500Y11163300D02*
G01*
X1079500Y11010900D01*
X1587500Y11163300D02*
G01*
X1587500Y11010900D01*
X2095500Y11163300D02*
G01*
X2095500Y11010900D01*
M02*
