G04 Layer: TopSolderMaskLayer*
G04 EasyEDA v6.4.23, 2021-09-03T17:21:03+02:00*
G04 aeee774bf32f4d08b0fc01e64f25dcb3,11806c6667b54f078b534f3636c84428,10*
G04 Gerber Generator version 0.2*
G04 Scale: 100 percent, Rotated: No, Reflected: No *
G04 Dimensions in millimeters *
G04 leading zeros omitted , absolute positions ,4 integer and 5 decimal *
%FSLAX45Y45*%
%MOMM*%

%ADD31C,2.7432*%
%ADD32C,1.7272*%
%ADD35C,1.9016*%
%ADD37C,1.7032*%
%ADD41C,1.3970*%
%ADD42C,1.5032*%
%ADD43C,1.7526*%

%LPD*%
D31*
X6705600Y7899400D02*
G01*
X6858000Y7899400D01*
X6705600Y8407400D02*
G01*
X6858000Y8407400D01*
X6705600Y8915400D02*
G01*
X6858000Y8915400D01*
X4038600Y9791700D02*
G01*
X4038600Y9639300D01*
X3530600Y9639300D02*
G01*
X3530600Y9791700D01*
X1930400Y9791700D02*
G01*
X1930400Y9639300D01*
X1422400Y9639300D02*
G01*
X1422400Y9791700D01*
X2095500Y11899900D02*
G01*
X2095500Y12052300D01*
X1587500Y11899900D02*
G01*
X1587500Y12052300D01*
X1079500Y11899900D02*
G01*
X1079500Y12052300D01*
X1079500Y11163300D02*
G01*
X1079500Y11010900D01*
X1587500Y11163300D02*
G01*
X1587500Y11010900D01*
X2095500Y11163300D02*
G01*
X2095500Y11010900D01*
D32*
G01*
X7391400Y8343900D03*
G01*
X7645400Y8343900D03*
G01*
X7620000Y7772400D03*
G01*
X7366000Y7772400D03*
G36*
X2134108Y10432287D02*
G01*
X2134108Y10598912D01*
X2262631Y10598912D01*
X2262631Y10432287D01*
G37*
G36*
X2512568Y10432287D02*
G01*
X2512568Y10598912D01*
X2641091Y10598912D01*
X2641091Y10432287D01*
G37*
G36*
X2893568Y10914887D02*
G01*
X2893568Y11081512D01*
X3022091Y11081512D01*
X3022091Y10914887D01*
G37*
G36*
X2515108Y10914887D02*
G01*
X2515108Y11081512D01*
X2643631Y11081512D01*
X2643631Y10914887D01*
G37*
G36*
X6363208Y11562587D02*
G01*
X6363208Y11729212D01*
X6491731Y11729212D01*
X6491731Y11562587D01*
G37*
G36*
X6741668Y11562587D02*
G01*
X6741668Y11729212D01*
X6870191Y11729212D01*
X6870191Y11562587D01*
G37*
G01*
X10282097Y12369800D03*
G01*
X10282097Y12623800D03*
G01*
X10566400Y12369800D03*
G01*
X10566400Y12623800D03*
G01*
X6596202Y12369800D03*
G01*
X6596202Y12623800D03*
G01*
X6311900Y12369800D03*
G01*
X6311900Y12623800D03*
G36*
X8807704Y7728204D02*
G01*
X8807704Y7918195D01*
X8997695Y7918195D01*
X8997695Y7728204D01*
G37*
D35*
G01*
X8902700Y8077200D03*
G01*
X8902700Y8331200D03*
G01*
X8902700Y8585200D03*
G01*
X8902700Y8839200D03*
G01*
X8902700Y9093200D03*
G01*
X8902700Y9347200D03*
G01*
X8902700Y9601200D03*
G01*
X8902700Y9855200D03*
G01*
X8902700Y10109200D03*
G01*
X8902700Y10363200D03*
G01*
X8902700Y10617200D03*
G01*
X8902700Y10871200D03*
G01*
X8902700Y11125200D03*
G01*
X8902700Y11379200D03*
G01*
X8902700Y11633200D03*
G01*
X8902700Y11887200D03*
G01*
X8902700Y12141200D03*
G01*
X8902700Y12395200D03*
G01*
X8902700Y12649200D03*
G36*
X7880604Y12554204D02*
G01*
X7880604Y12744195D01*
X8070595Y12744195D01*
X8070595Y12554204D01*
G37*
G01*
X7975600Y12395200D03*
G01*
X7975600Y12141200D03*
G01*
X7975600Y11887200D03*
G01*
X7975600Y11633200D03*
G01*
X7975600Y11379200D03*
G01*
X7975600Y11125200D03*
G01*
X7975600Y10871200D03*
G01*
X7975600Y10617200D03*
G01*
X7975600Y10363200D03*
G01*
X7975600Y10109200D03*
G01*
X7975600Y9855200D03*
G01*
X7975600Y9601200D03*
G01*
X7975600Y9347200D03*
G01*
X7975600Y9093200D03*
G01*
X7975600Y8839200D03*
G01*
X7975600Y8585200D03*
G01*
X7975600Y8331200D03*
G01*
X7975600Y8077200D03*
G01*
X7975600Y7823200D03*
G01*
X2295499Y9448800D03*
G01*
X3165500Y9448800D03*
G01*
X4467199Y9601200D03*
G01*
X5337200Y9601200D03*
G36*
X4303268Y11275568D02*
G01*
X4303268Y11410695D01*
X4383531Y11410695D01*
X4383531Y11275568D01*
G37*
G36*
X4208272Y11525504D02*
G01*
X4208272Y11660631D01*
X4288536Y11660631D01*
X4288536Y11525504D01*
G37*
G36*
X4398263Y11525504D02*
G01*
X4398263Y11660631D01*
X4478527Y11660631D01*
X4478527Y11525504D01*
G37*
G36*
X5204968Y10411968D02*
G01*
X5204968Y10547095D01*
X5285231Y10547095D01*
X5285231Y10411968D01*
G37*
G36*
X5109972Y10661904D02*
G01*
X5109972Y10797031D01*
X5190236Y10797031D01*
X5190236Y10661904D01*
G37*
G36*
X5299963Y10661904D02*
G01*
X5299963Y10797031D01*
X5380227Y10797031D01*
X5380227Y10661904D01*
G37*
D37*
G01*
X4094302Y10985500D03*
G01*
X3754297Y10985500D03*
G36*
X3685540Y11586971D02*
G01*
X3685540Y11677650D01*
X3782059Y11677650D01*
X3782059Y11586971D01*
G37*
G36*
X3685540Y11436350D02*
G01*
X3685540Y11527028D01*
X3782059Y11527028D01*
X3782059Y11436350D01*
G37*
G36*
X4451350Y10518139D02*
G01*
X4451350Y10614660D01*
X4542027Y10614660D01*
X4542027Y10518139D01*
G37*
G36*
X4601972Y10518139D02*
G01*
X4601972Y10614660D01*
X4692650Y10614660D01*
X4692650Y10518139D01*
G37*
G36*
X4589272Y11902439D02*
G01*
X4589272Y11998960D01*
X4679950Y11998960D01*
X4679950Y11902439D01*
G37*
G36*
X4438650Y11902439D02*
G01*
X4438650Y11998960D01*
X4529327Y11998960D01*
X4529327Y11902439D01*
G37*
G36*
X5234940Y12020550D02*
G01*
X5234940Y12111228D01*
X5331459Y12111228D01*
X5331459Y12020550D01*
G37*
G36*
X5234940Y12171171D02*
G01*
X5234940Y12261850D01*
X5331459Y12261850D01*
X5331459Y12171171D01*
G37*
G36*
X5162550Y7938515D02*
G01*
X5162550Y8078215D01*
X5302250Y8078215D01*
X5302250Y7938515D01*
G37*
D41*
G01*
X5486400Y8008340D03*
G01*
X5740400Y8008340D03*
G01*
X5994400Y8008340D03*
D32*
G01*
X2488006Y8445500D03*
D42*
G01*
X2287981Y9045498D03*
G01*
X2287981Y7845501D03*
G01*
X1068019Y9045498D03*
G01*
X1068019Y7845501D03*
D32*
G01*
X4469206Y8445500D03*
D42*
G01*
X4269181Y9045498D03*
G01*
X4269181Y7845501D03*
G01*
X3049193Y9045498D03*
G01*
X3049193Y7845501D03*
D43*
G01*
X10947400Y11264900D03*
G01*
X10947400Y11010900D03*
G01*
X10274300Y11303000D03*
G01*
X10274300Y11049000D03*
G01*
X9474200Y11303000D03*
G01*
X9474200Y11049000D03*
G36*
X9235440Y10697971D02*
G01*
X9235440Y10788650D01*
X9331959Y10788650D01*
X9331959Y10697971D01*
G37*
G36*
X9235440Y10547350D02*
G01*
X9235440Y10638028D01*
X9331959Y10638028D01*
X9331959Y10547350D01*
G37*
G36*
X10291572Y10645139D02*
G01*
X10291572Y10741660D01*
X10382250Y10741660D01*
X10382250Y10645139D01*
G37*
G36*
X10140950Y10645139D02*
G01*
X10140950Y10741660D01*
X10231627Y10741660D01*
X10231627Y10645139D01*
G37*
G36*
X10977372Y10607039D02*
G01*
X10977372Y10703560D01*
X11068050Y10703560D01*
X11068050Y10607039D01*
G37*
G36*
X10826750Y10607039D02*
G01*
X10826750Y10703560D01*
X10917427Y10703560D01*
X10917427Y10607039D01*
G37*
M02*
